<svg id="Calque_1" data-name="Calque 1" xmlns="http://www.w3.org/2000/svg" xmlns:xlink="http://www.w3.org/1999/xlink" viewBox="0 0 22 16"><defs><style>.cls-1{fill:none;}.cls-2{clip-path:url(#clip-path);}.cls-3{fill:#fff;}</style><clipPath id="clip-path"><rect class="cls-1" x="-1248.4" y="-304.3" width="1024" height="423.8"/></clipPath></defs><title>atelierdesign</title><g id="HEADER_FOOTER" data-name="HEADER FOOTER"><path class="cls-3" d="M19.4,13.1a7.73,7.73,0,0,0,2.2-5.4h0a7.91,7.91,0,0,0-2.2-5.4,6.42,6.42,0,0,0-1.3-1,.1.1,0,0,1-.1-.1h0A6.82,6.82,0,0,0,14.2,0H11.1c-.1,0-.2.1-.3.2s-.1.2,0,.4l1,2.7c.1.2.2.3.4.3h2.1A3.68,3.68,0,0,1,17,4.9a4.56,4.56,0,0,1,1.1,2.9A4.36,4.36,0,0,1,17,10.7,3.85,3.85,0,0,1,14.3,12H13L9,.7A.76.76,0,0,0,8.2.1H5.8A.76.76,0,0,0,5,.7L.1,14.6a.45.45,0,0,0,0,.5.76.76,0,0,0,.5.2H2.9a.76.76,0,0,0,.8-.6l.7-2.1H9.5l.7,2.1a.76.76,0,0,0,.8.6h3.1a7,7,0,0,0,3.7-1.1h0a.1.1,0,0,0,.1-.1A6.47,6.47,0,0,0,19.4,13.1ZM5.2,9.7,7,4,8.9,9.7Z"/></g></svg>