<?xml version="1.0" encoding="UTF-8"?>
<svg width="46px" height="48px" viewBox="0 0 46 48" version="1.1" xmlns="http://www.w3.org/2000/svg" xmlns:xlink="http://www.w3.org/1999/xlink">
    <!-- Generator: Sketch 50.2 (55047) - http://www.bohemiancoding.com/sketch -->
    <title>tech-09</title>
    <desc>Created with Sketch.</desc>
    <defs></defs>
    <g id="Page-1" stroke="none" stroke-width="1" fill="none" fill-rule="evenodd">
        <g id="Uptime-Home_v1" transform="translate(-1135.000000, -1314.000000)">
            <g id="Group-5" transform="translate(0.000000, 750.000000)">
                <g id="Group-10" transform="translate(315.000000, 270.000000)">
                    <g id="Group-4" transform="translate(700.000000, 294.000000)">
                        <g id="tech-09" transform="translate(120.000000, 0.000000)">
                            <rect id="Rectangle-3" fill="#D1EBFF" x="6" y="0" width="40" height="40" rx="2"></rect>
                            <path d="M16,20 C16,21.4571486 15.6104229,22.8233065 14.9297424,24 L24.0075946,24 C26.2120698,24 28,22.2102687 28,20 C28,17.7952025 26.2078928,16 24.0075946,16 L14.9297424,16 C15.6104229,17.1766935 16,18.5428514 16,20 Z M32.0100021,40 C32.0100021,44.418278 28.4282801,48 24.0100021,48 L7.9924054,48 C3.5783218,48 0,44.4092877 0,40 C0,35.581722 3.5776607,32 7.9924054,32 L24.0075946,32 C24.0421256,32 24.0766054,32.0002197 24.1110328,32.0006579 C28.4827566,32.0547339 32.0100021,35.6154508 32.0100021,40 Z M7.9924054,36 C5.7879302,36 4,37.7897313 4,40 C4,42.2047975 5.7921072,44 7.9924054,44 L17.0802597,44 C16.3995793,42.8233065 16.0100021,41.4571486 16.0100021,40 C16.0100021,38.5428514 16.3995793,37.1766935 17.0802597,36 L7.9924054,36 Z M0,20 C0,15.581722 3.5776607,12 7.9924054,12 L24.0075946,12 C28.4216782,12 32,15.5907123 32,20 C32,24.418278 28.4223393,28 24.0075946,28 L7.9924054,28 C3.5783218,28 0,24.4092877 0,20 Z" id="Combined-Shape" fill="#0074CE" fill-rule="nonzero"></path>
                        </g>
                    </g>
                </g>
            </g>
        </g>
    </g>
</svg>