<?xml version="1.0" encoding="UTF-8"?>
<svg width="75px" height="75px" viewBox="0 0 75 75" version="1.1" xmlns="http://www.w3.org/2000/svg" xmlns:xlink="http://www.w3.org/1999/xlink">
    <!-- Generator: Sketch 50 (54983) - http://www.bohemiancoding.com/sketch -->
    <title>Group 3</title>
    <desc>Created with Sketch.</desc>
    <defs></defs>
    <g id="Page-1" stroke="none" stroke-width="1" fill="none" fill-rule="evenodd">
        <g id="Domain-Health-Check_v1" transform="translate(-888.000000, -179.000000)">
            <g id="Group-5" transform="translate(670.000000, 179.000000)">
                <g id="Group-3" transform="translate(218.000000, 0.000000)">
                    <rect id="Rectangle-3" fill="#D1EBFF" x="15" y="0" width="60" height="60" rx="3"></rect>
                    <path d="M54,27 L6,27 L6,45 L10.1787414,45 L12.3167184,40.6583592 C13.4222913,38.4472136 16.5777087,38.4472136 17.6832816,40.6583592 L20.2312674,45.754331 L24.1154281,32.1758365 C24.9797355,29.1507609 29.3247358,29.3266209 29.9417421,32.4116516 L33.5121755,50.2638186 L36.1154281,41.1758365 C36.6737965,39.2215471 38.9729652,38.3764256 40.6641006,39.5038491 L48.927594,45 L54,45 L54,27 Z M48,51 C47.407725,51 46.8287019,50.8246858 46.3358994,50.4961509 L40.7885432,46.7979133 L35.8845719,63.8241635 C35.0202645,66.8492391 30.6752642,66.6733791 30.0582579,63.5883484 L26.4859618,45.7268677 L23.8845719,54.8241634 C23.1329276,57.4549185 19.5403068,57.7888174 18.3167184,55.3416408 L15.0066477,48.7214992 L14.6832816,49.3416408 C14.1751056,50.3579928 13.1363162,51 12,51 L6,51 L6,69 L54,69 L54,51 L48,51 Z M0,26.9852679 C0,23.6796957 2.69463714,21 6.0000383,21 L53.9999617,21 C57.3136914,21 60,23.6778684 60,26.9852679 L60,69.0147321 C60,72.3203043 57.3053628,75 53.9999617,75 L6.0000383,75 C2.68630865,75 0,72.3221316 0,69.0147321 L0,26.9852679 Z" id="Combined-Shape" fill="#0074CE" fill-rule="nonzero"></path>
                </g>
            </g>
        </g>
    </g>
</svg>