<?xml version="1.0" encoding="UTF-8"?>
<svg width="50px" height="50px" viewBox="0 0 50 50" version="1.1" xmlns="http://www.w3.org/2000/svg" xmlns:xlink="http://www.w3.org/1999/xlink">
    <!-- Generator: Sketch 50.2 (55047) - http://www.bohemiancoding.com/sketch -->
    <title>ui-42</title>
    <desc>Created with Sketch.</desc>
    <defs></defs>
    <g id="Page-1" stroke="none" stroke-width="1" fill="none" fill-rule="evenodd">
        <g id="Uptime-Home_v1" transform="translate(-780.000000, -1020.000000)">
            <g id="Group-5" transform="translate(0.000000, 750.000000)">
                <g id="Group-10" transform="translate(315.000000, 270.000000)">
                    <g id="Group-4" transform="translate(350.000000, 0.000000)">
                        <g id="ui-42" transform="translate(115.000000, 0.000000)">
                            <rect id="Rectangle-3" fill="#D1EBFF" x="10" y="0" width="40" height="40" rx="2"></rect>
                            <path d="M22.1254164,31.8788442 C21.3248497,31.117314 21.3248629,29.8826424 22.1254458,29.1211278 C22.9260288,28.3596131 24.224017,28.3596257 25.0245836,29.1211558 L31.1745836,34.9712748 C31.9751503,35.7328049 31.9751371,36.9674767 31.1745542,37.7289912 L25.0245542,43.5788722 C24.2239712,44.3403869 22.925983,44.3403743 22.1254164,43.5788442 C21.3248497,42.817314 21.3248629,41.5826424 22.1254458,40.8211278 L24.76303,38.3 L16.4,38.3 L16.4,46.1 L36.9,46.1 L36.9,26.6 L16.4,26.6 L16.4,34.4 L24.7630299,34.4 L22.1254164,31.8788442 Z M36.9032401,22.7 C39.1658182,22.7 41,24.4492673 41,26.5969179 L41,46.1030821 C41,48.2552904 39.1610267,50 36.9032401,50 L16.3967599,50 C14.1341818,50 12.3,48.2507327 12.3,46.1030821 L12.3,38.3 L4.09675984,38.3 C1.83418185,38.3 0,36.5507327 0,34.4030821 L0,14.8969179 C0,12.7447096 1.83897326,11 4.09675984,11 L24.6032401,11 C26.8658182,11 28.7,12.7492672 28.7,14.8969179 L28.7,22.7 L36.9032401,22.7 Z M24.6,14.9 L4.1,14.9 L4.1,34.4 L12.3,34.4 L12.3,26.5969179 C12.3,24.4447096 14.1389733,22.7 16.3967599,22.7 L24.6,22.7 L24.6,14.9 Z" id="Combined-Shape" fill="#0074CE" fill-rule="nonzero"></path>
                        </g>
                    </g>
                </g>
            </g>
        </g>
    </g>
</svg>