<?xml version="1.0" encoding="UTF-8"?>
<svg width="50px" height="50px" viewBox="0 0 50 50" version="1.1" xmlns="http://www.w3.org/2000/svg" xmlns:xlink="http://www.w3.org/1999/xlink">
    <!-- Generator: Sketch 50.2 (55047) - http://www.bohemiancoding.com/sketch -->
    <title>tech-09</title>
    <desc>Created with Sketch.</desc>
    <defs></defs>
    <g id="Page-1" stroke="none" stroke-width="1" fill="none" fill-rule="evenodd">
        <g id="Uptime-Home_v1" transform="translate(-425.000000, -1020.000000)">
            <g id="Group-5" transform="translate(0.000000, 750.000000)">
                <g id="Group-10" transform="translate(315.000000, 270.000000)">
                    <g id="Group-4">
                        <g id="tech-09" transform="translate(110.000000, 0.000000)">
                            <rect id="Rectangle-3" fill="#D1EBFF" x="10" y="0" width="40" height="40" rx="2"></rect>
                            <rect id="Rectangle-3" fill="#D1EBFF" x="10" y="0" width="40" height="40" rx="2"></rect>
                            <path d="M8,26.0005599 L12,26.0005599 L12,32.0005599 L16,32.0005599 L16,36.0005599 L4,36.0005599 L4,32.0005599 L8,32.0005599 L8,26.0005599 Z M12.1738705,22.0005599 L14.0037973,22.0005599 C17.3152877,22.0005599 20,24.6801596 20,27.9906129 L20,40.0089074 C20,45.524861 15.5161482,50.0005599 10,50.0005599 C4.47826174,50.0005599 0,45.5261623 0,40.0089074 L0,27.9906129 C0,24.6816195 2.68503841,22.0005599 5.99620271,22.0005599 L8.1373434,22.0005599 C8.9587899,14.9771008 13.2844509,8.92608761 20.0221412,9.00068245 C27.3588221,9.08190889 32.0393066,16.5163874 32.0393066,23.9754134 C32.0393066,27.2008204 33.2138804,29.9560496 38.0185629,30.000646 C39.1230849,30.0108981 40.0101659,30.9146009 39.9999139,32.0191228 C39.9896618,33.1236447 39.085959,34.0107258 37.9814371,34.0004737 C31.2551816,33.9380416 28.0393066,29.8702936 28.0393066,23.9754134 C28.0393066,18.4360095 24.6498268,13.052162 19.9778588,13.0004373 C15.9026394,12.9553194 12.916037,16.9898527 12.1738705,22.0005599 Z M4,27.9906129 L4,40.0089074 C4,43.3162499 6.6866281,46.0005599 10,46.0005599 C13.3086372,46.0005599 16,43.3140907 16,40.0089074 L16,27.9906129 C16,26.8910072 15.1078537,26.0005599 14.0037973,26.0005599 L5.99620271,26.0005599 C4.89285063,26.0005599 4,26.8920875 4,27.9906129 Z" id="Combined-Shape" fill="#0074CE" fill-rule="nonzero"></path>
                        </g>
                    </g>
                </g>
            </g>
        </g>
    </g>
</svg>