<?xml version="1.0" encoding="utf-8"?>
<!-- Generator: Adobe Illustrator 16.0.0, SVG Export Plug-In . SVG Version: 6.00 Build 0)  -->
<!DOCTYPE svg PUBLIC "-//W3C//DTD SVG 1.1//EN" "http://www.w3.org/Graphics/SVG/1.1/DTD/svg11.dtd">
<svg version="1.1"
	 id="LendingTree_Logo" xmlns:rdf="http://www.w3.org/1999/02/22-rdf-syntax-ns#" xmlns:svg="http://www.w3.org/2000/svg" xmlns:dc="http://purl.org/dc/elements/1.1/" xmlns:cc="http://creativecommons.org/ns#"
	 xmlns="http://www.w3.org/2000/svg" xmlns:xlink="http://www.w3.org/1999/xlink" x="0px" y="0px" width="180px" height="90px"
	 viewBox="120.023 17.657 180 90" enable-background="new 120.023 17.657 180 90" xml:space="preserve">
<title  id="title17">LT Logo - Gradient</title>
<g>
	<g id="LendingTree" transform="translate(-21.599946,-19.996447)">
		<path id="path19" fill="#101F30" d="M311.078,92.188c0-3.042-0.702-5.409-2.081-7.034c-1.381-1.626-3.475-2.47-6.171-2.47
			s-4.849,0.856-6.345,2.542c-1.495,1.685-2.229,4.139-2.229,7.328c-0.06,1.805,0.357,3.594,1.211,5.186
			c0.749,1.341,1.887,2.423,3.262,3.105c1.418,0.67,2.97,1.005,4.538,0.979c1.181,0.017,2.358-0.134,3.495-0.449
			c1.025-0.302,1.991-0.773,2.859-1.396c0.241-0.163,0.389-0.431,0.397-0.721c-0.005-0.186-0.047-0.367-0.123-0.536l-0.737-1.538
			c-0.175-0.465-0.477-0.531-0.639-0.531c-0.188,0.014-0.37,0.083-0.52,0.198c-1.256,0.834-2.734,1.271-4.243,1.253
			c-1.613,0-2.882-0.396-3.771-1.189c-0.853-0.817-1.331-1.951-1.32-3.133h11.103C310.258,93.777,311.078,93.572,311.078,92.188
			L311.078,92.188z M298.666,90.455c0.001-1.082,0.383-2.129,1.08-2.957c0.709-0.793,1.756-1.19,3.107-1.19
			c1.353,0,2.329,0.397,2.979,1.158c0.659,0.86,1.008,1.918,0.991,3.002L298.666,90.455z"/>
		<path id="path21" fill="#101F30" d="M284.491,82.684c-2.717,0-4.85,0.856-6.346,2.542c-1.494,1.685-2.228,4.139-2.228,7.328
			c-0.061,1.805,0.356,3.594,1.21,5.186c0.75,1.341,1.888,2.423,3.263,3.105c1.411,0.668,2.956,1.003,4.517,0.979
			c1.181,0.017,2.359-0.134,3.497-0.449c1.024-0.302,1.991-0.774,2.859-1.396c0.239-0.163,0.388-0.431,0.396-0.721
			c-0.003-0.186-0.045-0.367-0.122-0.536l-0.737-1.538c-0.175-0.465-0.477-0.531-0.639-0.531c-0.189,0.014-0.369,0.083-0.52,0.198
			c-1.257,0.834-2.734,1.271-4.242,1.253c-1.615,0-2.883-0.396-3.771-1.189c-0.854-0.817-1.331-1.951-1.319-3.133h11.103
			c0.491,0,1.312-0.206,1.312-1.586c0-3.042-0.701-5.408-2.081-7.035C289.262,83.536,287.191,82.684,284.491,82.684L284.491,82.684z
			 M288.476,90.455h-8.145c0-1.082,0.382-2.129,1.078-2.957c0.71-0.793,1.756-1.19,3.108-1.19c1.352,0,2.328,0.397,2.978,1.158
			C288.148,88.325,288.493,89.377,288.476,90.455z"/>
		<path id="path23" fill="#101F30" d="M276.581,84.491c0.051-0.181,0.051-0.373,0-0.554c-0.061-0.192-0.182-0.36-0.345-0.477
			c-0.668-0.508-2.729-0.611-3.245-0.611c-0.396,0-1.831,0.044-4.654,0.885c-0.136-0.251-0.401-0.405-0.686-0.396h-2.071
			c-0.343-0.042-0.685,0.088-0.911,0.35c-0.165,0.286-0.241,0.617-0.215,0.946v15.01c-0.027,0.426,0.1,0.848,0.357,1.188
			l0.043,0.044c0.296,0.279,0.694,0.423,1.099,0.396h1.618c0.437,0.04,0.866-0.124,1.166-0.443c0.247-0.346,0.365-0.767,0.337-1.19
			V87.348c1.124-0.359,2.291-0.563,3.47-0.604c0.158,0,0.305,0,0.46,0.021c0.469,0.021,0.928,0.145,1.345,0.36l0.302,0.091h0.067
			c0.314,0,0.583-0.231,0.63-0.543l1.189-2.177L276.581,84.491z"/>
		<path id="path25" fill="#101F30" d="M262.44,83.663c-0.274-0.298-0.677-0.446-1.078-0.396h-3.173v-4.611
			c0.026-0.396-0.079-0.789-0.297-1.118c-0.259-0.305-0.649-0.467-1.047-0.433h-1.931c-0.399-0.033-0.79,0.129-1.048,0.436
			c-0.219,0.33-0.323,0.723-0.297,1.118v16.472c0,5.368,3.318,6.486,5.052,6.704c0.499,0.064,0.956-0.29,1.02-0.789
			c0.005-0.038,0.007-0.075,0.007-0.114v-2.454c-0.006-0.336-0.195-0.64-0.491-0.793c-0.205-0.112-0.384-0.263-0.527-0.444
			c-0.333-0.396-0.444-1.189-0.444-2.237V87.31h3.172c0.396,0.048,0.793-0.09,1.075-0.372c0.212-0.341,0.307-0.742,0.27-1.142
			v-0.983C262.736,84.412,262.644,84.01,262.44,83.663L262.44,83.663z"/>
		<path id="path27" fill="#101F30" d="M247.935,83.39c-1.312-0.443-2.685-0.669-4.068-0.67c-3.002,0-5.337,0.856-6.939,2.549
			c-1.603,1.694-2.406,4.124-2.406,7.245c0,2.755,0.682,4.929,2.021,6.455c1.341,1.527,3.26,2.323,5.671,2.323
			c1.011,0.025,2.015-0.164,2.945-0.555c0.579-0.264,1.109-0.623,1.566-1.063c-0.083,1.317-0.376,2.284-0.864,2.876
			c-0.579,0.693-1.522,1.046-2.807,1.046c-1.154,0.002-2.301-0.185-3.395-0.551c-0.328-0.118-0.689,0.051-0.807,0.379
			c-0.023,0.063-0.035,0.129-0.038,0.196l-0.075,2.652c-0.012,0.296,0.187,0.558,0.472,0.631c1.366,0.359,2.771,0.56,4.184,0.595
			c2.709,0,4.73-0.888,6.016-2.637c1.284-1.749,1.898-4.104,1.898-7.086V84.889C250.215,84.325,249.088,83.824,247.935,83.39z
			 M246.745,87.264v6.269c0.06,1.009-0.301,1.997-0.995,2.731c-0.7,0.668-1.643,1.021-2.609,0.98c-1.366,0-2.379-0.397-3.052-1.19
			c-0.676-0.793-1.02-2.102-1.02-3.81c0-3.72,1.502-5.527,4.6-5.527c0.616-0.003,1.231,0.056,1.836,0.174
			c0.431,0.073,0.85,0.198,1.248,0.373H246.745z"/>
		<path id="path29" fill="#101F30" d="M226.824,82.719c-1.697-0.012-3.387,0.23-5.011,0.721l-0.846,0.22
			c-0.136-0.255-0.405-0.409-0.693-0.397h-2.07c-0.343-0.042-0.685,0.088-0.912,0.35c-0.167,0.286-0.241,0.617-0.214,0.946v15.143
			c-0.028,0.427,0.099,0.85,0.357,1.19c0.296,0.311,0.718,0.47,1.146,0.437h1.618c0.437,0.039,0.867-0.124,1.167-0.444
			c0.245-0.346,0.365-0.766,0.336-1.189V87.307c1.234-0.359,2.507-0.565,3.792-0.61c0.939,0,1.621,0.217,2.026,0.646
			c0.404,0.428,0.614,1.209,0.614,2.308v10.061c-0.027,0.426,0.099,0.849,0.357,1.188c0.298,0.311,0.718,0.471,1.146,0.438h1.65
			c0.427,0.035,0.846-0.129,1.134-0.445c0.246-0.346,0.365-0.766,0.338-1.19V89.356c0-2.181-0.548-3.85-1.63-4.96
			C229.99,83.262,228.429,82.652,226.824,82.719z"/>
		<path id="path31" fill="#101F30" d="M213.334,83.263h-1.618c-0.427-0.032-0.845,0.127-1.142,0.436
			c-0.26,0.353-0.387,0.789-0.356,1.226v14.777c-0.028,0.427,0.098,0.85,0.356,1.19c0.298,0.311,0.719,0.472,1.147,0.437h1.618
			c0.436,0.039,0.866-0.124,1.166-0.444c0.244-0.346,0.362-0.767,0.332-1.189V84.924c0.031-0.437-0.096-0.871-0.356-1.226
			C214.182,83.39,213.762,83.228,213.334,83.263z"/>
		<path id="path33" fill="#101F30" d="M207.565,75.673c-1.344,0.599-4.144,2.914-4.144,3.509v4.758
			c-1.039-0.845-2.522-1.272-4.414-1.272c-1.484-0.032-2.944,0.393-4.179,1.218c-1.21,0.85-2.151,2.031-2.709,3.402
			c-0.642,1.564-0.958,3.245-0.927,4.936c0,6.38,3.081,9.616,9.16,9.616c1.442,0.002,2.875-0.23,4.243-0.69
			c1.16-0.438,2.292-0.948,3.39-1.526V76.108c0.003-0.106-0.032-0.21-0.099-0.293C207.802,75.724,207.679,75.621,207.565,75.673
			L207.565,75.673z M203.421,89.947v7.241c-0.904,0.516-1.935,0.762-2.975,0.71c-1.586,0-2.775-0.429-3.529-1.272
			c-0.753-0.845-1.161-2.301-1.161-4.29c0-1.789,0.357-3.205,1.063-4.212c0.705-1.007,1.732-1.462,3.132-1.462
			c0.918-0.042,1.818,0.255,2.534,0.831c0.614,0.535,0.933,1.36,0.933,2.435L203.421,89.947z"/>
		<path id="path35" fill="#101F30" d="M183.508,82.719c-1.698-0.012-3.388,0.23-5.012,0.721l-0.099,0.028l-0.745,0.191
			c-0.135-0.256-0.406-0.411-0.694-0.397h-2.074c-0.343-0.042-0.685,0.088-0.912,0.35c-0.167,0.286-0.241,0.617-0.214,0.946v15.143
			c-0.027,0.427,0.099,0.85,0.357,1.19c0.297,0.311,0.718,0.472,1.146,0.437h1.618c0.437,0.039,0.867-0.124,1.167-0.444
			c0.245-0.346,0.365-0.766,0.336-1.189V87.307c1.234-0.359,2.507-0.565,3.792-0.61c0.939,0,1.621,0.217,2.026,0.646
			c0.404,0.428,0.614,1.188,0.614,2.308v10.061c-0.027,0.426,0.099,0.849,0.357,1.188c0.298,0.311,0.718,0.471,1.146,0.438h1.65
			c0.427,0.035,0.846-0.129,1.134-0.445c0.247-0.346,0.365-0.766,0.336-1.19V89.356c0-2.181-0.546-3.85-1.629-4.96
			C186.67,83.262,185.112,82.653,183.508,82.719z"/>
		<path id="path37" fill="#101F30" d="M163.732,82.684c-2.715,0-4.849,0.856-6.344,2.542c-1.495,1.685-2.225,4.139-2.225,7.328
			c-0.061,1.805,0.357,3.594,1.209,5.186c0.75,1.341,1.888,2.422,3.263,3.105c1.415,0.67,2.964,1.004,4.528,0.979
			c1.181,0.017,2.359-0.134,3.497-0.449c1.024-0.302,1.991-0.774,2.859-1.396c0.239-0.163,0.388-0.431,0.397-0.721
			c-0.004-0.186-0.047-0.367-0.124-0.536l-0.737-1.538c-0.179-0.465-0.477-0.531-0.639-0.531c-0.189,0.014-0.37,0.083-0.519,0.198
			c-1.257,0.834-2.735,1.271-4.243,1.253c-1.613,0-2.882-0.396-3.771-1.189c-0.854-0.817-1.332-1.951-1.32-3.133h11.103
			c0.492,0,1.312-0.206,1.312-1.586c0.005-3.062-0.693-5.417-2.066-7.025C168.543,83.56,166.43,82.684,163.732,82.684z
			 M167.737,90.455h-8.164c0-1.082,0.382-2.129,1.078-2.957c0.71-0.793,1.757-1.19,3.109-1.19s2.328,0.397,2.978,1.158
			c0.657,0.856,1.007,1.91,0.995,2.989H167.737z"/>
		<path id="path39" fill="#101F30" d="M153.424,97.22c-0.333-0.396-0.445-1.189-0.445-2.236V77.726
			c0.026-0.395-0.078-0.787-0.297-1.118c-0.259-0.305-0.649-0.465-1.047-0.431h-1.943c-0.399-0.034-0.79,0.129-1.046,0.436
			c-0.219,0.33-0.324,0.722-0.298,1.118v17.403c0,5.37,3.319,6.488,5.052,6.706c0.498,0.076,0.963-0.265,1.04-0.763
			c0.008-0.05,0.011-0.1,0.011-0.149v-2.455c-0.007-0.334-0.195-0.639-0.492-0.793C153.75,97.565,153.568,97.409,153.424,97.22
			L153.424,97.22z"/>
	</g>
	<g id="Leaf" transform="translate(-21.599946,-19.996447)">
		
			<linearGradient id="path42_1_" gradientUnits="userSpaceOnUse" x1="517.6151" y1="-343.7091" x2="540.6016" y2="-320.7226" gradientTransform="matrix(1 0 0 -1 -307.2012 -262.5295)">
			<stop  offset="0.05" style="stop-color:#078181"/>
			<stop  offset="0.21" style="stop-color:#07997D"/>
			<stop  offset="0.41" style="stop-color:#08AF7A"/>
			<stop  offset="0.6" style="stop-color:#08BC78"/>
			<stop  offset="0.77" style="stop-color:#08C177"/>
		</linearGradient>
		<path id="path42" fill="url(#path42_1_)" d="M232.963,57.809c-1.19,0.178-8.975,1.011-14.711,2.443
			c-8.176,2.038-8.03,8.862-8.03,11.558v3.22c0,0,0,5.754,0,5.892c0,0.139,0.104,0.144,0.175,0.052
			c3.412-4.536,7.279-8.711,11.543-12.459c0,0,0.032-0.032-0.024,0c-2.439,0.764-4.793,1.777-7.026,3.021c0-0.654,0-1.082,0-1.157
			c-0.032-4.648,2.704-5.901,5.948-6.808c2.661-0.738,7.621-1.163,7.621-1.163s-0.396,2.895-0.932,8.791
			c-0.364,4.294-3.529,5.246-7.942,5.246h-2.481c-1.983,2.859-2.249,4.575-2.249,4.575h4.866c9.266,0,11.335-4.083,11.781-10.127
			c0.559-7.68,1.332-12.133,1.562-12.974c0.014-0.045-0.013-0.095-0.058-0.108C232.991,57.807,232.976,57.807,232.963,57.809z"/>
	</g>
	<path id="path45" fill="#101F30" d="M293.046,64.007c-0.164-0.299-0.41-0.543-0.709-0.706c-0.588-0.329-1.305-0.329-1.893,0
		c-0.299,0.163-0.545,0.407-0.709,0.706c-0.342,0.594-0.342,1.323,0,1.915c0.164,0.298,0.409,0.542,0.706,0.706
		c0.591,0.339,1.316,0.339,1.906,0c0.295-0.165,0.536-0.409,0.698-0.706C293.388,65.331,293.388,64.601,293.046,64.007z
		 M292.729,65.737c-0.132,0.239-0.328,0.437-0.566,0.571c-0.474,0.272-1.057,0.272-1.53,0c-0.238-0.134-0.436-0.332-0.567-0.571
		c-0.275-0.478-0.275-1.066,0-1.543c0.133-0.239,0.331-0.436,0.571-0.567c0.471-0.262,1.044-0.262,1.515,0
		c0.241,0.13,0.439,0.328,0.57,0.567c0.276,0.477,0.276,1.065,0,1.543H292.729z"/>
	<path id="path47" fill="#101F30" d="M291.945,65.292c-0.039-0.055-0.082-0.104-0.132-0.15c-0.041-0.031-0.087-0.055-0.135-0.072
		c0.151-0.011,0.292-0.077,0.397-0.186c0.09-0.098,0.141-0.225,0.138-0.357c0.003-0.097-0.022-0.192-0.07-0.277
		c-0.042-0.077-0.106-0.143-0.183-0.186c-0.096-0.048-0.199-0.075-0.306-0.08h-1.011v1.938h0.396v-0.793h0.104
		c0.099-0.004,0.195,0.026,0.274,0.084c0.114,0.113,0.207,0.248,0.272,0.396l0.163,0.313h0.488l-0.23-0.396
		C292.016,65.392,291.96,65.313,291.945,65.292L291.945,65.292z M291.608,64.777c-0.141,0.025-0.283,0.034-0.425,0.027h-0.158V64.29
		h0.158c0.141-0.007,0.281,0.002,0.42,0.027c0.053,0.016,0.099,0.048,0.13,0.092c0.032,0.041,0.05,0.091,0.05,0.143
		c0,0.111-0.073,0.21-0.18,0.241L291.608,64.777z"/>
</g>
</svg>
