<svg width="12" height="12" viewBox="0 0 12 12" version="1.1" xmlns="http://www.w3.org/2000/svg" xmlns:xlink="http://www.w3.org/1999/xlink">
<title>world</title>
<desc>Created using Figma</desc>
<g id="Canvas" transform="translate(-13792 -294)">
<g id="world">
<g id="Shape">
<use xlink:href="#path0_fill" transform="translate(13792 294)" fill="#89909E"/>
</g>
<g id="Shape">
<use xlink:href="#path1_fill" transform="translate(13798 299.025)" fill="#89909E"/>
</g>
</g>
</g>
<defs>
<path id="path0_fill" fill-rule="evenodd" d="M 0 6C 0 2.70001 2.7002 0 6 0C 9.2998 0 12 2.70001 12 6C 12 9.29999 9.2998 12 6 12C 2.7002 12 0 9.29999 0 6ZM 3.0752 9.45001C 3.89941 10.125 4.875 10.5 6 10.5C 8.47461 10.5 10.5 8.47501 10.5 6C 10.5 5.02499 10.2002 4.125 9.75 3.375C 9 3.60001 7.64941 3.60001 7.5 3.60001C 7.08301 3.60001 6.9502 3.36401 6.72559 2.96689C 6.66699 2.86343 6.60156 2.74902 6.52441 2.625C 6.44727 2.52167 6.33398 2.40054 6.21289 2.27081C 5.98242 2.0239 5.72266 1.74582 5.625 1.5C 4.7998 1.57501 4.125 1.875 3.52441 2.25C 4.0498 2.85001 4.5752 3.97501 4.0498 4.57501C 3.85059 4.84058 3.45996 5.03265 3.08691 5.21634C 2.61719 5.44763 2.1748 5.66556 2.1748 6C 2.1748 6.31723 2.47266 6.67172 2.78027 7.0372C 2.9082 7.19019 3.03906 7.34509 3.14941 7.5C 3.59961 8.10001 3.52441 8.85001 3.0752 9.45001Z"/>
<path id="path1_fill" d="M 1.65475 0C 0.754749 0 -0.070251 0.6 0.00474896 1.425C 0.229749 3.3 -0.370251 3.975 0.454749 4.35C 1.42975 4.725 3.37975 2.925 3.30475 1.425C 3.30475 0.6 2.62975 0 1.65475 0Z"/>
</defs>
</svg>
