<?xml version="1.0" encoding="utf-8"?>
<!-- Generator: Adobe Illustrator 22.0.1, SVG Export Plug-In . SVG Version: 6.00 Build 0)  -->
<svg version="1.1" id="Layer_1" xmlns="http://www.w3.org/2000/svg" xmlns:xlink="http://www.w3.org/1999/xlink" x="0px" y="0px"
	 viewBox="0 0 146.9 36" style="enable-background:new 0 0 146.9 36;" xml:space="preserve">
<style type="text/css">
	.st0{fill:#5690FF;}
</style>
<title>Capterra_logo</title>
<path class="st0" d="M42.1,25.2c0-0.3-0.3-0.5-0.6-0.4c0,0,0,0,0,0c-1,0.5-2,0.7-3.1,0.7c-4.8,0-6.9-3.9-6.9-8.1s1.4-7.3,5.7-7.3
	c1.5,0,2.4,0.3,2.6,1.3l0.3,1.6c0,0.2,0.2,0.4,0.4,0.4l0,0h1.2c0.2,0,0.4-0.2,0.4-0.4v0V8.4c0-0.2-0.1-0.4-0.3-0.5
	c-1.3-0.3-2.6-0.4-3.9-0.4c-6.3,0-11,4-11,10.4c-0.2,5.6,4.3,10.3,9.9,10.5c0.2,0,0.5,0,0.7,0c1.7-0.1,3.3-0.4,4.9-1
	c0.2-0.2,0.3-0.4,0.2-0.7C42.5,26.8,42.1,25.2,42.1,25.2z M53.8,23.4c0,1.3-1.1,2.4-2.4,2.4c0,0-0.1,0-0.1,0
	c-1.2,0.1-2.2-0.9-2.3-2.1c0,0,0,0,0,0c0-1.6,1.2-2.9,4.6-2.9c0.2,0,0.2,0.1,0.2,0.3V23.4z M59.5,26.1c0-0.2-0.2-0.4-0.4-0.4l0,0
	h-0.7c-0.6,0-0.8-0.3-0.8-0.9V18c0-4.1-2.3-5.6-6-5.6c-1.7,0-3.5,0.3-5.1,0.9c-0.2,0.1-0.3,0.4-0.2,0.6l0.3,1.8
	c0.1,0.4,0.4,0.4,0.7,0.3c1-0.5,2.1-0.8,3.2-0.8c1.9,0,3.3,0.7,3.3,2.5v0.7c0,0.1,0,0.4-0.2,0.4c-4.5,0-8.4,1.5-8.4,5.6
	c-0.1,2.3,1.7,4.1,4,4.2c0.1,0,0.3,0,0.4,0c1.8,0.1,3.4-0.7,4.6-2h0.1c0,1.1,0.9,2,2,2c0.1,0,0.2,0,0.3,0c0.9,0,1.9-0.1,2.8-0.4
	c0.2-0.1,0.3-0.3,0.3-0.5L59.5,26.1z M66.8,17.7c0.1-1.4,1.2-2.5,2.6-2.4c0,0,0.1,0,0.1,0c2.5,0,3.4,2.4,3.4,5s-0.9,5.3-3.7,5.3
	s-2.4-0.8-2.4-2V17.7z M69.1,33.9c0.2,0,0.4-0.2,0.4-0.4v0v-0.7c0-0.2-0.1-0.5-0.3-0.5l-1.8-0.2c-0.4-0.1-0.6-0.5-0.6-0.9v-3.3h1.6
	c5.6,0,8.7-3.4,8.7-8.6s-2.4-7-5.9-7c-1.8,0-3.5,0.9-4.6,2.3h-0.1L66.3,13c0-0.2-0.1-0.4-0.3-0.5c-0.1,0-0.2,0-0.3,0.1L61,13
	c-0.3,0-0.5,0.2-0.5,0.5v0.7c0,0.2,0.2,0.5,0.4,0.5h1.3c0.4,0.1,0.7,0.5,0.7,1v15.5c0,0.6-0.3,0.9-0.6,0.9l-1.2,0.3
	c-0.2,0.1-0.3,0.3-0.3,0.5v0.7c0,0.2,0.2,0.4,0.4,0.4h0L69.1,33.9z M89.2,25.6c0-0.3-0.3-0.4-0.6-0.4c-0.6,0.2-1.2,0.4-1.8,0.4
	c-1.3,0.1-2.5-1-2.5-2.3c0-0.1,0-0.3,0-0.4v-7.1c0-0.1,0.2-0.3,0.5-0.3h3.6c0.1,0,0.2-0.2,0.2-0.3v-1.8c0-0.1-0.1-0.3-0.2-0.3h-3.6
	c-0.2,0-0.4-0.1-0.4-0.3V9.6c0-0.3-0.1-0.5-0.5-0.4l-2.8,0.9c-0.4,0.1-0.5,0.3-0.5,0.7v1.9c0,0.3,0,0.4-0.4,0.4h-1.8v0.3l-0.2,1.7
	c0,0.3,0,0.4,0.2,0.4h1.9c0.2,0,0.4,0.1,0.4,0.3v8c0,2.9,2.1,4.7,5,4.7c1.3,0,2.5-0.3,3.7-0.8c0.1-0.1,0.2-0.3,0.2-0.5L89.2,25.6z
	 M100.1,16.7c0,2.1-2,2.8-4,2.8h-1.2c-0.2,0-0.3,0-0.3-0.3c-0.1-1.9,0.9-4.6,3.2-4.6C99,14.5,100,15.5,100.1,16.7c0,0,0,0.1,0,0.1
	 M103.2,25.1c-0.1-0.2-0.3-0.4-0.6-0.2c-1,0.5-2.1,0.9-3.3,0.9c-2.1,0-4.4-1.4-4.5-3.7c0-0.3,0-0.4,0.3-0.4h2c3.1,0,6.8-1.4,6.8-4.8
	s-2.7-4.6-5.5-4.6c-4.3,0-7.8,3.5-7.8,7.8c0,0.1,0,0.1,0,0.2c0,4.8,2.7,8.2,8,8.2c1.6,0,3.3-0.4,4.7-1.2c0.2-0.1,0.4-0.4,0.3-0.6
	L103.2,25.1z M114.3,28.2c0.3,0,0.5-0.2,0.5-0.5V27c0-0.2-0.1-0.3-0.4-0.4l-1.8-0.3c-0.3,0-0.5-0.4-0.5-0.9v-6.9
	c0-1.4,1.2-2.6,2.6-2.6c0.1,0,0.1,0,0.2,0c0.6,0,1.2,0.1,1.8,0.3c0.2,0.1,0.5-0.1,0.6-0.3l0.6-2.8c0.1-0.2,0.1-0.4-0.1-0.6
	c0,0-0.1,0-0.1,0c-0.4-0.2-0.8-0.3-1.3-0.3c-1.9,0-3.3,1.3-4.4,2.9h-0.1l-0.3-2.2c0-0.4-0.2-0.6-0.4-0.6l-4.8,0.6
	c-0.3,0-0.5,0.1-0.5,0.4V14c0,0.2,0.2,0.5,0.4,0.5l1.4,0.3c0.5,0,0.7,0.6,0.7,0.9v9.5c0,0.6-0.3,0.9-0.6,0.9l-1.2,0.3
	c-0.3,0.1-0.4,0.3-0.4,0.4v0.8c0,0.2,0.3,0.4,0.5,0.4c-0.2,0.1,7.6,0.1,7.6,0.1L114.3,28.2z M127.4,28.2c0.2,0,0.4-0.3,0.4-0.5V27
	c0-0.2-0.1-0.3-0.3-0.4l-1.8-0.3c-0.3,0-0.6-0.4-0.6-0.9v-6.9c0.1-1.5,1.3-2.7,2.8-2.6c0,0,0,0,0,0c0.6,0,1.2,0.1,1.8,0.3
	c0.3,0.1,0.6,0,0.7-0.3l0.6-2.8c0.1-0.2,0.1-0.4-0.1-0.6c0,0-0.1,0-0.1,0c-0.4-0.2-0.9-0.3-1.3-0.3c-1.9,0-3.3,1.3-4.5,2.9h-0.1
	l-0.2-2.2c0-0.4-0.2-0.6-0.5-0.6l-4.8,0.6c-0.2,0-0.4,0.2-0.4,0.4v0V14c0,0.2,0.2,0.5,0.4,0.5l1.4,0.3c0.4,0,0.6,0.6,0.6,0.9v9.5
	c0,0.6-0.2,0.9-0.5,0.9l-1.3,0.3c-0.2,0.1-0.3,0.2-0.3,0.4v0.8c0,0.2,0.2,0.4,0.4,0.4l0,0c-0.1,0.1,7.7,0.1,7.7,0.1V28.2z
	 M141.2,23.5c0,1.3-1.1,2.4-2.4,2.4c-0.1,0-0.1,0-0.2,0c-1.2,0.1-2.2-0.9-2.3-2.1c0,0,0,0,0,0c0-1.6,1.2-2.9,4.6-2.9
	c0.2,0,0.3,0.1,0.3,0.3v0V23.5z M146.8,26.2c0-0.3-0.1-0.4-0.4-0.4h-0.7c-0.6,0-0.8-0.3-0.8-0.9V18c0-4.1-2.4-5.6-6.1-5.6
	c-1.7,0-3.4,0.3-5,0.9c-0.2,0-0.4,0.2-0.4,0.4c0,0.1,0,0.1,0.1,0.2l0.4,1.8c0.1,0.4,0.3,0.4,0.6,0.3c1-0.5,2.1-0.8,3.2-0.8
	c1.9,0,3.4,0.7,3.4,2.5v0.7c0,0.1-0.1,0.4-0.3,0.4c-4.6,0-8.4,1.5-8.4,5.6c-0.1,2.3,1.7,4.1,4,4.2c0.1,0,0.3,0,0.4,0
	c1.7,0.1,3.4-0.7,4.5-2h0.1c0,1.2,1,2.1,2.2,2c0.1,0,0.1,0,0.2,0c0.9,0,1.9-0.1,2.8-0.4c0.2-0.1,0.2-0.2,0.2-0.5L146.8,26.2z"/>
<path class="st0" d="M0.4,17h5.2C5.8,17,6,16.9,6,16.7c0.5-2.1,2.4-3.6,4.5-3.6c2.2,0,4.1,1.5,4.5,3.6c0,0.2,0.2,0.3,0.4,0.3h5.2
	c0.2,0,0.4-0.2,0.4-0.4v-0.3c-0.3-3.5-3-9.9-10.2-16.2c-0.2-0.1-0.4-0.1-0.6,0c-0.1,0.1-7.4,6.4-9.7,14.4c-0.2,0.4-0.3,0.8-0.4,1.2
	v1.1L0.4,17z"/>
<path class="st0" d="M20.6,19h-5.2c-0.2,0-0.4,0.1-0.4,0.3c-0.5,2.1-2.4,3.6-4.5,3.6c-2.2,0-4.1-1.5-4.5-3.6C6,19.1,5.8,19,5.6,19
	H0.4C0.2,19,0,19.2,0,19.4v0.3c0.3,3.5,3.1,9.9,10.2,16.2c0.2,0.1,0.4,0.1,0.6,0c0.1-0.1,7.4-6.4,9.7-14.4c0.2-0.4,0.3-0.8,0.4-1.2
	v-1.1L20.6,19z"/>
</svg>
