<svg xmlns="http://www.w3.org/2000/svg" width="143" height="40"><path fill="#5690FF" fill-rule="evenodd" d="M30.558662 8.96305c-.405224.45292-.881958.90584-1.382529 1.40644l-1.978447 1.88319h5.744647v2.33612H23.69369v-1.21574l3.217956-3.88557c.595918-.59595 1.096488-1.12039 1.454039-1.57331.357551-.42908.786612-.95351.977305-1.28724.238367-.38141 1.45404-1.54947 1.334856-3.00358-.524408-1.62098-2.02612-1.764-2.908079-1.64481-.905795.02383-1.95461 1.23957-2.121467 2.28843 0 0-1.644733-.23837-2.002283-.40524.023836-.45292.810448-2.43147 2.335997-3.31347.738938-.33373 1.215672-.50059 2.073794-.50059.667428 0 1.263346.09535 1.81159.26221.548244.16687 1.001142.42908 1.382529.76282.381387.33373 1.024979.73897 1.215672 1.23957.309878.64362.548245 1.31108.548245 1.97854.07151 1.47795-1.191836 2.93206-1.430203 3.31347-.286041.47676-.619754.92968-1.024979 1.35876zM19.832143 40C8.867256 40 0 31.10846 0 20.16687 0 9.20143 8.891093.33373 19.832143.33373v7.00834c-7.079503 0-12.82415 5.74494-12.82415 12.8248 0 7.07985 5.744647 12.84862 12.82415 12.84862 5.625463 0 10.392806-3.62336 12.132885-8.65315-3.432486 0-8.295175-.02384-8.295175-.02384v-7.34208h15.756066c.166857 1.02503.262203 2.09774.262203 3.17045C39.664286 31.1323 30.79703 40 19.832143 40zM46.338565 0h1.334855v39.66627h-1.334855V0zM65.71781 29.29678c-1.144162.6913-2.574365 1.04887-4.242934 1.04887-1.74008 0-3.19412-.28606-4.314445-.882-1.144162-.59595-1.8831-1.40644-2.264487-2.45531-.357551-1.04886-.548245-2.62217-.548245-4.7199v-6.26937c0-1.54946.047674-2.69368.166857-3.48033.119184-.76282.452898-1.52563 1.024979-2.24077.572081-.71513 1.334856-1.28724 2.335997-1.69249 1.001142-.40524 2.145304-.61978 3.432487-.61978 1.763916 0 3.217956.30989 4.362118.95351 1.144162.64363 1.8831 1.43028 2.264487 2.38379.357551.95352.429061.66746.429061 2.66985v1.66865l-4.862689-.07151v-1.45411c0-1.09655-.119184-1.78785-.381387-2.0739-.262204-.26222-.810449-.40525-1.644733-.40525-.977306 0-1.573223.16687-1.835427.5006-.262204.33373-.381387 1.04887-.381387 2.14541v9.79738c0 1.04887.119183 1.74017.381387 2.0739.262204.33373.834285.47675 1.763916.47675.881959 0 1.430203-.16686 1.716244-.47675.262203-.33373.405224-.76282.405224-1.95471l-.023837-1.54946h4.886526v.33373c0 2.21692-.071511 2.93206-.405225 3.8379-.381387.92968-1.120325 1.764-2.264487 2.4553zm13.896802-15.63766c0-.66746-.333714-1.45411-.977305-1.66866-.643591-.21454-1.477876-.30989-3.194119-.30989v6.07867c1.668569 0 2.502854-.09535 3.146446-.26222.667427-.16687 1.001141-1.71633 1.001141-2.66984v-1.16806h.023837zm0 9.60667c0-1.14422-.238367-1.83552-.715101-2.12157-.476734-.26222-1.406366-.40525-3.432487-.40525v9.27295h-4.791178l.07151-21.54946H75.0618c2.884242 0 4.838853.09535 5.863831.30989 1.024979.21454 1.859264.71514 2.502855 1.54946.643591.83433.977305 2.16925.977305 4.00477 0 1.66865-.286041 3.17044-.715101 3.74255-.452898.57211-1.334856.92968-2.645875 1.04887 1.191835.28605 2.002283.64362 2.407507 1.09654.405224.45292.667428.882.762775 1.26341.095347.38141.214531 1.02503.214531 2.7652v5.64958l-4.767343.11919v-6.74613h-.047673zm17.067085-9.27294c0-1.00119-.166857-1.62098-.476735-1.90703-.309877-.28606-.977305-.40525-1.95461-.40525-.834285 0-1.477876.11919-1.930773.33373-.452898.21454-.667428.88201-.667428 1.97855v9.96424c0 1.23957.14302 2.00239.429061 2.28844.28604.28606.977305.42908 2.02612.42908 1.096489 0 1.787753-.16686 2.09763-.50059.309878-.33373.452898-1.12038.452898-2.38379v-9.79738h.023837zm3.742363 14.04052c-.595918.73898-1.430203 1.31109-2.455181 1.71633-1.024979.40525-2.240651.59595-3.62318.59595-1.311019 0-2.479018-.1907-3.527833-.57211-1.048815-.38141-1.8831-.92968-2.502855-1.69249-.643591-.73898-1.001142-1.5733-1.120325-2.45531-.119184-.882-.190694-2.43146-.190694-4.64839v-3.67103c0-2.14541.047674-3.67104.166857-4.57688.119184-.90584.476734-1.71633 1.096489-2.4553.619754-.73898 1.430202-1.31109 2.455181-1.71633 1.024979-.40525 2.240651-.59595 3.62318-.59595 1.311019 0 2.479018.1907 3.527833.57211 1.048815.38141 1.8831.92968 2.502855 1.69249.619754.73898 1.001141 1.5733 1.120325 2.4553.119184.88201.190694 2.43147.190694 4.62456v3.69487c0 2.14541-.047674 3.67104-.166857 4.57688-.119184.90584-.476734 1.71633-1.096489 2.4553zm17.782186 1.85936c-.691265-3.28963-2.312161-11.37068-2.860405-15.58999-.238367 1.81168-2.145304 9.89273-3.027263 15.58999h-5.244076l-4.076077-21.45411h4.600485l1.311019 7.4851.953468 8.89154c.214531-3.74255 2.121468-10.32182 3.027263-16.37664h5.339423c.07151.61978.977305 2.97974 1.334855 7.07985l1.334856 9.15376c.357551-5.19666 1.573223-11.27533 2.383671-16.23361h4.266771l-4.385954 21.45411h-4.958036zm20.14202-15.25626c0-.95351-.07151-1.5733-.21453-1.85935-.143021-.26222-.500571-.47676-1.048816-.59595-.548244-.11919-1.549386-.19071-3.051099-.19071v14.32658c1.978447 0 3.170283-.16686 3.647017-.47675.452898-.3099.691265-1.1919.691265-2.62217v-8.58165h-.023837zm4.362118 12.75328c-.190694.64362-.548244 1.16806-1.048815 1.52563-.500571.35756-1.096489.61978-1.835427.76281-.715101.14303-1.477876.21454-2.955752.21454h-7.699257V8.43862h4.576648c2.955752 0 4.624322.11919 5.6493.3814 1.048816.23838 1.835427.64363 2.383671 1.21574.548245.57211.881959 1.19189 1.024979 1.88319.14302.6913.190693 2.05006.190693 4.07628v7.50894c.023837 1.93087-.07151 3.21812-.28604 3.88558z"/></svg>