<?xml version="1.0" encoding="UTF-8"?>
<svg width="86px" height="86px" viewBox="0 0 86 86" version="1.1" xmlns="http://www.w3.org/2000/svg" xmlns:xlink="http://www.w3.org/1999/xlink">
    <!-- Generator: Sketch 52.1 (67048) - http://www.bohemiancoding.com/sketch -->
    <title>Group Copy 2</title>
    <desc>Created with Sketch.</desc>
    <defs>
        <linearGradient x1="50%" y1="4.25171604%" x2="50%" y2="93.2507653%" id="linearGradient-1">
            <stop stop-color="#58F17B" offset="0%"></stop>
            <stop stop-color="#16CD6F" offset="100%"></stop>
        </linearGradient>
        <polygon id="path-2" points="69 32.6342171 69 69 0 0 36.3657829 0"></polygon>
        <filter x="-21.7%" y="-17.4%" width="143.5%" height="143.5%" filterUnits="objectBoundingBox" id="filter-3">
            <feOffset dx="0" dy="3" in="SourceAlpha" result="shadowOffsetOuter1"></feOffset>
            <feGaussianBlur stdDeviation="4.5" in="shadowOffsetOuter1" result="shadowBlurOuter1"></feGaussianBlur>
            <feColorMatrix values="0 0 0 0 0.168627451   0 0 0 0 0.741176471   0 0 0 0 0.521568627  0 0 0 0.5 0" type="matrix" in="shadowBlurOuter1"></feColorMatrix>
        </filter>
    </defs>
    <g id="Subscription-Plans" stroke="none" stroke-width="1" fill="none" fill-rule="evenodd">
        <g id="Subscription-plans-NEW-22.11.18" transform="translate(-986.000000, -284.000000)">
            <g id="Group-Copy-2" transform="translate(994.000000, 290.000000)">
                <rect id="Rectangle" fill="#0AA756" fill-rule="nonzero" x="0" y="0" width="4" height="3"></rect>
                <rect id="Rectangle-Copy" fill="#0AA756" fill-rule="nonzero" x="66" y="66" width="3" height="3"></rect>
                <g id="Path">
                    <use fill="black" fill-opacity="1" filter="url(#filter-3)" xlink:href="#path-2"></use>
                    <use fill="url(#linearGradient-1)" fill-rule="evenodd" xlink:href="#path-2"></use>
                </g>
                <path d="M29.5935908,22.2399996 L29.5935908,29.9748062 L27.8035355,29.9748062 L27.8035355,26.8035355 L24.2897234,26.8035355 L24.2897234,29.9748062 L22.4996681,29.9748062 L22.4996681,22.2399996 L24.2897234,22.2399996 L24.2897234,25.2897234 L27.8035355,25.2897234 L27.8035355,22.2399996 L29.5935908,22.2399996 Z M31.4278449,22.2399996 L34.9416571,22.2399996 C35.7814403,22.2399996 36.523606,22.400219 37.1681764,22.7206626 C37.8127469,23.0411062 38.3136627,23.4922987 38.6709388,24.0742538 C39.028215,24.6562088 39.2068504,25.3339184 39.2068504,26.1074029 C39.2068504,26.8808875 39.028215,27.5585971 38.6709388,28.1405521 C38.3136627,28.7225071 37.8127469,29.1736997 37.1681764,29.4941433 C36.523606,29.8145869 35.7814403,29.9748062 34.9416571,29.9748062 L31.4278449,29.9748062 L31.4278449,22.2399996 Z M34.8532593,28.505193 C35.6267438,28.505193 36.2436806,28.2897255 36.704088,27.8587841 C37.1644955,27.4278428 37.3946958,26.8440549 37.3946958,26.1074029 C37.3946958,25.370751 37.1644955,24.7869631 36.704088,24.3560217 C36.2436806,23.9250803 35.6267438,23.7096129 34.8532593,23.7096129 L33.2179002,23.7096129 L33.2179002,28.505193 L34.8532593,28.505193 Z M42.9416571,22.2399996 L42.9416571,29.9748062 L41.1516018,29.9748062 L41.1516018,23.6764637 L39.6046405,23.6764637 L39.6046405,22.2399996 L42.9416571,22.2399996 Z M47.6046405,30.1074029 C46.9637533,30.1074029 46.3928566,29.9490251 45.8919333,29.6322648 C45.39101,29.3155045 44.9987487,28.8569455 44.7151377,28.2565742 C44.4315267,27.6562029 44.2897234,26.9398196 44.2897234,26.1074029 C44.2897234,25.2749862 44.4315267,24.558603 44.7151377,23.9582317 C44.9987487,23.3578603 45.39101,22.8993014 45.8919333,22.5825411 C46.3928566,22.2657807 46.9637533,22.1074029 47.6046405,22.1074029 C48.2455277,22.1074029 48.8164244,22.2657807 49.3173477,22.5825411 C49.818271,22.8993014 50.2105323,23.3578603 50.4941433,23.9582317 C50.7777543,24.558603 50.9195576,25.2749862 50.9195576,26.1074029 C50.9195576,26.9398196 50.7777543,27.6562029 50.4941433,28.2565742 C50.2105323,28.8569455 49.818271,29.3155045 49.3173477,29.6322648 C48.8164244,29.9490251 48.2455277,30.1074029 47.6046405,30.1074029 Z M47.6046405,28.5935908 C48.0760977,28.5935908 48.4462598,28.3910145 48.7151377,27.985856 C48.9840157,27.5806974 49.1184527,26.9545527 49.1184527,26.1074029 C49.1184527,25.2602532 48.9840157,24.6341085 48.7151377,24.2289499 C48.4462598,23.8237913 48.0760977,23.6212151 47.6046405,23.6212151 C47.1405498,23.6212151 46.7740709,23.8237913 46.505193,24.2289499 C46.236315,24.6341085 46.1018781,25.2602532 46.1018781,26.1074029 C46.1018781,26.9545527 46.236315,27.5806974 46.505193,27.985856 C46.7740709,28.3910145 47.1405498,28.5935908 47.6046405,28.5935908 Z M57.0853035,25.9085079 C57.4683625,26.1000374 57.7611772,26.3504953 57.9637565,26.6598891 C58.1663358,26.9692829 58.2676239,27.3265538 58.2676239,27.7317123 C58.2676239,28.2105361 58.1313454,28.6285798 57.8587841,28.985856 C57.5862229,29.3431322 57.2031697,29.6193725 56.7096129,29.8145853 C56.2160561,30.009798 55.6451594,30.1074029 54.9969057,30.1074029 C54.348652,30.1074029 53.7795969,30.009798 53.2897234,29.8145853 C52.7998498,29.6193725 52.4204798,29.3431322 52.1516018,28.985856 C51.8827239,28.6285798 51.7482869,28.2105361 51.7482869,27.7317123 C51.7482869,27.3265538 51.849575,26.9692829 52.0521543,26.6598891 C52.2547336,26.3504953 52.5438651,26.1000374 52.9195576,25.9085079 C52.6322634,25.7317114 52.4112711,25.5088776 52.2565742,25.2399996 C52.1018773,24.9711217 52.02453,24.6635741 52.02453,24.3173477 C52.02453,23.86799 52.149759,23.4775703 52.4002206,23.146077 C52.6506823,22.8145836 53.0005867,22.5586009 53.4499444,22.3781212 C53.899302,22.1976414 54.4149507,22.1074029 54.9969057,22.1074029 C55.5862272,22.1074029 56.1074007,22.1976414 56.5604416,22.3781212 C57.0134825,22.5586009 57.3652286,22.8145836 57.6156902,23.146077 C57.8661519,23.4775703 57.9913808,23.86799 57.9913808,24.3173477 C57.9913808,24.6635741 57.9140335,24.9711217 57.7593366,25.2399996 C57.6046397,25.5088776 57.3799643,25.7317114 57.0853035,25.9085079 Z M54.9969057,23.4223201 C54.6359462,23.4223201 54.3468147,23.5088754 54.1295024,23.6819886 C53.9121901,23.8551018 53.8035355,24.0926685 53.8035355,24.3946958 C53.8035355,24.6893565 53.9103485,24.9213984 54.1239775,25.0908283 C54.3376066,25.2602583 54.6285797,25.344972 54.9969057,25.344972 C55.3652317,25.344972 55.659888,25.2602583 55.8808836,25.0908283 C56.1018792,24.9213984 56.2123753,24.6893565 56.2123753,24.3946958 C56.2123753,24.0926685 56.1018792,23.8551018 55.8808836,23.6819886 C55.659888,23.5088754 55.3652317,23.4223201 54.9969057,23.4223201 Z M54.9969057,28.7924858 C55.4462634,28.7924858 55.8016926,28.6911977 56.063204,28.4886184 C56.3247155,28.2860391 56.4554692,28.0153236 56.4554692,27.6764637 C56.4554692,27.3376038 56.3247155,27.0687299 56.063204,26.8698339 C55.8016926,26.6709378 55.4462634,26.5714913 54.9969057,26.5714913 C54.5549145,26.5714913 54.2050101,26.6709378 53.9471819,26.8698339 C53.6893538,27.0687299 53.5604416,27.3376038 53.5604416,27.6764637 C53.5604416,28.0226901 53.6893538,28.2952472 53.9471819,28.4941433 C54.2050101,28.6930393 54.5549145,28.7924858 54.9969057,28.7924858 Z M62.4002206,30.1074029 C61.7593334,30.1074029 61.1884367,29.9490251 60.6875134,29.6322648 C60.1865901,29.3155045 59.7943288,28.8569455 59.5107178,28.2565742 C59.2271069,27.6562029 59.0853035,26.9398196 59.0853035,26.1074029 C59.0853035,25.2749862 59.2271069,24.558603 59.5107178,23.9582317 C59.7943288,23.3578603 60.1865901,22.8993014 60.6875134,22.5825411 C61.1884367,22.2657807 61.7593334,22.1074029 62.4002206,22.1074029 C63.0411078,22.1074029 63.6120045,22.2657807 64.1129278,22.5825411 C64.6138511,22.8993014 65.0061124,23.3578603 65.2897234,23.9582317 C65.5733344,24.558603 65.7151377,25.2749862 65.7151377,26.1074029 C65.7151377,26.9398196 65.5733344,27.6562029 65.2897234,28.2565742 C65.0061124,28.8569455 64.6138511,29.3155045 64.1129278,29.6322648 C63.6120045,29.9490251 63.0411078,30.1074029 62.4002206,30.1074029 Z M62.4002206,28.5935908 C62.8716778,28.5935908 63.2418399,28.3910145 63.5107178,27.985856 C63.7795958,27.5806974 63.9140328,26.9545527 63.9140328,26.1074029 C63.9140328,25.2602532 63.7795958,24.6341085 63.5107178,24.2289499 C63.2418399,23.8237913 62.8716778,23.6212151 62.4002206,23.6212151 C61.9361299,23.6212151 61.5696511,23.8237913 61.3007731,24.2289499 C61.0318951,24.6341085 60.8974582,25.2602532 60.8974582,26.1074029 C60.8974582,26.9545527 61.0318951,27.5806974 61.3007731,27.985856 C61.5696511,28.3910145 61.9361299,28.5935908 62.4002206,28.5935908 Z" id="HD1080" fill="#FFFFFF" transform="translate(44.107403, 26.107403) rotate(45.000000) translate(-44.107403, -26.107403) "></path>
            </g>
        </g>
    </g>
</svg>