<?xml version="1.0" encoding="UTF-8"?>
<svg width="70px" height="48px" viewBox="0 0 70 48" version="1.1" xmlns="http://www.w3.org/2000/svg" xmlns:xlink="http://www.w3.org/1999/xlink">
    <!-- Generator: Sketch 52.1 (67048) - http://www.bohemiancoding.com/sketch -->
    <title>Icon4</title>
    <desc>Created with Sketch.</desc>
    <g id="Subscription-Plans" stroke="none" stroke-width="1" fill="none" fill-rule="evenodd">
        <g id="Video-Maker-Single-Purchase" transform="translate(-985.000000, -689.000000)">
            <g id="Icon4" transform="translate(986.000000, 689.000000)">
                <circle id="Oval" fill="#C1C9E0" cx="5.19" cy="5.67" r="1.04"></circle>
                <circle id="Oval" fill="#C1C9E0" cx="8.31" cy="5.67" r="1.04"></circle>
                <circle id="Oval" fill="#C1C9E0" cx="11.42" cy="5.67" r="1.04"></circle>
                <path d="M67.5,2 L67.5,45.43 C67.5,45.9822847 67.0522847,46.43 66.5,46.43 L1,46.43 C0.44771525,46.43 0,45.9822847 0,45.43 L0,2 C-1.11022302e-16,1.44771525 0.44771525,1 1,1 L66.46,1 C66.7320768,0.989108123 66.99683,1.08963674 67.193109,1.2783666 C67.3893881,1.46709646 67.5002179,1.72770534 67.5,2 Z" id="Path" stroke="#363F5A" stroke-width="2" stroke-linecap="round"></path>
                <polygon id="Path" fill="#363F5A" points="33.96 26.84 31.78 25.2 29.64 26.84 28.39 26.11 28.39 26.91 31.78 29.15 35.17 26.93 35.17 26.13"></polygon>
                <polygon id="Path" fill="#363F5A" points="37.31 20.6 34.04 18.54 31.78 20.4 35.16 22.37"></polygon>
                <polygon id="Path" fill="#363F5A" points="26.25 24.19 29.61 26.16 31.78 24.49 28.56 22.44"></polygon>
                <polygon id="Path" fill="#363F5A" points="29.61 18.54 26.25 20.7 28.56 22.44 31.78 20.4"></polygon>
                <polygon id="Path" fill="#363F5A" points="31.78 24.49 33.99 26.16 37.31 24.19 35.16 22.37"></polygon>
                <path d="M14.09,18.32 L12.78,18.32 C12.1142807,18.2832573 11.4651528,18.5359477 10.9994858,19.0131127 C10.5338188,19.4902776 10.2970336,20.1453748 10.35,20.81 L10.35,22 L9,22 C8.94517775,21.9999314 8.89273073,22.0223699 8.85492225,22.0620688 C8.81711377,22.1017677 8.79725884,22.1552463 8.8,22.21 L8.8,23.87 C8.83319692,23.9506655 8.91280398,24.0024101 9,24 L10.32,24 L10.32,28.19 C10.32,28.2456955 10.3421249,28.2991098 10.3815076,28.3384924 C10.4208902,28.3778751 10.4743045,28.4 10.53,28.4 L12.25,28.4 C12.3048223,28.4000686 12.3572693,28.3776301 12.3950778,28.3379312 C12.4328862,28.2982323 12.4527412,28.2447537 12.45,28.19 L12.45,24 L14,24 C14.112057,23.994658 14.2001273,23.9021842 14.2,23.79 L14.2,22.16 C14.2019826,22.1037874 14.180203,22.0493383 14.14,22.01 C14.0960737,21.9898635 14.0463424,21.9863112 14,22 L12.48,22 L12.48,21 C12.48,20.53 12.6,20.29 13.21,20.29 L14.09,20.29 C14.2004569,20.29 14.29,20.2004569 14.29,20.09 L14.29,18.52 C14.29,18.4095431 14.2004569,18.32 14.09,18.32 Z" id="Path" fill="#363F5A"></path>
                <path d="M56.07,24.3 C55.8090228,26.5674381 53.8292173,28.2406366 51.55,28.12 C49.8494158,28.12 48.2780111,27.2127492 47.427719,25.74 C46.5774269,24.2672509 46.5774269,22.4527491 47.427719,20.98 C48.2780111,19.5072508 49.8494158,18.6 51.55,18.6 C52.7385872,18.5743987 53.8890106,19.0201877 54.75,19.84 L53.39,21.2 C52.8961041,20.7270928 52.2335419,20.4714302 51.55,20.49 C49.9900491,20.5227227 48.7442013,21.7997167 48.75,23.36 C48.7499128,24.9113247 49.9987625,26.1735549 51.55,26.19 C52.7620013,26.3028935 53.8665813,25.4905759 54.12,24.3 L51.55,24.3 L51.55,22.39 L56.06,22.39 C56.1145353,22.7205157 56.1412955,23.0550179 56.14,23.39 C56.1410712,23.6947184 56.1176626,23.9990304 56.07,24.3 Z M61.79,23.71 L60.12,23.71 L60.12,25.38 L58.93,25.38 L58.93,23.71 L57.27,23.71 L57.27,22.53 L58.93,22.53 L58.93,20.86 L60.12,20.86 L60.12,22.53 L61.79,22.53 L61.79,23.71 Z" id="Shape" fill="#363F5A" fill-rule="nonzero"></path>
                <rect id="Rectangle" fill="#363F5A" x="28.04" y="38.9" width="11.42" height="3.12" rx="1"></rect>
            </g>
        </g>
    </g>
</svg>