<?xml version="1.0" encoding="utf-8"?>
<!-- Generator: Adobe Illustrator 22.0.1, SVG Export Plug-In . SVG Version: 6.00 Build 0)  -->
<svg version="1.1" id="Layer_1" xmlns="http://www.w3.org/2000/svg" xmlns:xlink="http://www.w3.org/1999/xlink" x="0px" y="0px"
	 viewBox="0 0 150 40" style="enable-background:new 0 0 150 40;" xml:space="preserve">
<style type="text/css">
	.st0{fill:#5690FF;}
</style>
<path class="st0" d="M24.1,1.7c1.1,0.1,2.9,0.5,4.3,1.1c1.1,0.5,2,1.2,2.9,2c0.8,0.8,1.2,1.9,1,3c-0.1,0.9-0.5,1.6-1.3,2.1
	c-0.6,0.4-1.3,0.5-2,0.3l-2.2-1.1c-1-0.6-2.1-1-3.2-1.3c-3.4-0.9-6.9,0.9-8,4.1c-0.5,1.2-0.8,2.5-0.8,3.8c-0.1,1.6,0.1,3.2,0.6,4.8
	c0.3,1,0.8,1.9,1.5,2.6c1.2,1.3,2.9,2.1,4.7,2.1c0.6,0,1.3-0.1,1.9-0.3c1.6-0.4,3-1.6,3.6-3.1c0.2-0.4,0.5-1.8,0.5-2.1
	c0.1-0.3-0.1-0.4-0.5-0.4h-2c0,0-1.1-0.1-1.6-0.2c-0.3-0.1-0.7-0.2-1-0.4c-0.9-0.4-1.4-1.1-1.5-2c-0.1-0.5,0-1,0.1-1.5
	c0.2-0.7,0.7-1.2,1.4-1.5c0.7-0.3,1.5-0.4,2.3-0.4h5.5c0.6,0,1.2,0.1,1.8,0.3c0.9,0.2,1.6,0.8,1.8,1.6c0.1,0.4,0.3,0.8,0.4,1.2
	c0.2,2.6-0.2,5.2-1.3,7.6c-1.6,3.6-5.1,6.1-9.1,6.7c-2.2,0.4-4.5,0.2-6.6-0.5c-2.8-0.9-5.2-2.7-6.7-5c-1.2-2-2-4.1-2.2-6.4
	c-0.4-2.7-0.2-5.4,0.5-8c0.8-2.9,2.6-5.4,5.1-7.2c1.5-1,3.1-1.7,4.9-2c0,0,1.3-0.2,2.9-0.2C22.5,1.5,23.5,1.6,24.1,1.7z M99.2,11.2
	l0.7-0.7c1.1-0.8,2.4-1.4,3.8-1.5c3.9-0.3,6.6,1.6,8.5,4.7c1.2,2.2,1.7,4.7,1.5,7.2c-0.1,2-0.8,4-2,5.7c-1,1.6-2.5,3-4.3,3.8
	c-2.7,0.9-5.2,0.9-7.5-0.9l-0.5-0.3c-0.1,0.2-0.1,0.5-0.1,0.7c0,1.5,0.1,3.1,0,4.5c0,0.7-0.1,1.4-0.2,2.1c0,0.2-0.1,0.4-0.2,0.6
	c-0.5,1.6-2,2-3.6,1.7c-0.7-0.2-1.3-0.7-1.5-1.4c-0.4-0.8-0.5-1.6-0.5-2.4V13.4c0-0.8,0.1-1.7,0.4-2.5c0.3-0.9,1.2-1.6,2.2-1.7
	c1.1-0.1,2.1,0.3,2.8,1.1L99.2,11.2z M99.2,20v0.7c0.1,1.2,0.5,2.3,1.2,3.2c1.3,1.6,3.6,1.9,5.3,0.7c0.2-0.2,0.5-0.4,0.6-0.6
	c0.4-0.5,0.8-1.1,1-1.8c0.3-1.1,0.4-2.3,0.3-3.5c-0.2-1.1-0.8-2.2-1.6-3c-0.9-0.9-2.3-1.2-3.6-0.9c-1.1,0.3-2.1,1.2-2.5,2.2
	C99.3,18,99.1,19,99.2,20z M121.9,11.2l0.6-0.5c1-1,2.4-1.5,3.8-1.6c3.7-0.2,6.3,1.4,8.2,4.3c1,1.5,1.6,3.1,1.7,4.9
	c0.3,2.4,0,4.9-1.1,7.1c-0.9,2.2-2.6,3.9-4.8,5c-2.5,1.2-5.6,1-7.8-0.7c-0.1-0.2-0.3-0.3-0.5-0.3c0,0.3-0.1,0.5-0.1,0.7
	c0,1.9,0,3.8-0.1,5.6c0,0.6-0.2,1.2-0.4,1.8c-0.3,1-1.4,1.7-2.5,1.6c-1.2,0.2-2.3-0.5-2.6-1.6c-0.2-0.6-0.3-1.2-0.4-1.8V13.6
	c0-0.8,0-1.6,0.3-2.3c0.2-1,1-1.8,2.1-2s2.2,0.2,3,1L121.9,11.2z M130.2,20v-0.9c-0.1-1.3-0.7-2.5-1.6-3.4c-1.4-1.4-3.8-1.4-5.2,0
	l-0.1,0.1c-0.5,0.6-0.9,1.3-1.2,2c-0.3,1-0.4,2-0.3,3.1c0.1,1,0.4,1.9,1,2.7c1.1,1.7,3.3,2.2,5,1.2c0.5-0.3,0.9-0.7,1.2-1.2
	C129.9,22.6,130.3,21.3,130.2,20L130.2,20z M88.9,30.8c-1,0-1.9-0.5-2.3-1.3c-0.4-0.6-0.7-1.2-0.9-1.8c-0.3-0.7-0.5-1.5-0.6-2.2
	c-0.1-0.3-0.3-0.4-0.6-0.4h-9.6c-0.4,0-0.5,0.1-0.6,0.4L73.4,28c-0.2,0.6-0.5,1.1-0.8,1.6c-0.6,1-1.8,1.4-2.9,1.1
	c-1.1-0.2-1.9-1-2.1-2c-0.3-0.9-0.2-1.9,0.2-2.8c1-2.6,2-5.1,2.9-7.7c1.4-4,3-7.9,4.4-11.9c0.3-0.9,0.7-1.7,1.3-2.5
	c1.4-1.9,4.1-2.4,6.1-1c0.3,0.2,0.6,0.5,0.9,0.8c0.5,0.6,1,1.4,1.3,2.1c2.3,6.7,4.7,13.3,7.1,20c0.2,0.8,0.4,1.5,0.4,2.1
	c0.1,1.6-1.2,2.9-2.9,2.9C89.1,30.8,89,30.8,88.9,30.8z M79.7,8.9c-0.3,0.7-3.4,9.9-3.4,10.4h3.4c1.1,0,2.1,0.1,3.3,0
	C84.2,19.2,80,9.3,79.7,8.9z M47.7,21.5l-5.7,0c-0.4,0-0.5,0.2-0.4,0.6c0.2,1.7,1.6,3,3.3,3.2c1.5,0.3,3.1,0.1,4.5-0.5l2.6-1.1
	l0.7-0.2c1.2-0.2,2.4,0.6,2.5,1.8c0,0.3,0,0.5,0,0.8c-0.1,0.8-0.5,1.5-1.1,2c-1.2,1.1-2.7,1.9-4.4,2.3c-2.3,0.7-4.7,0.7-7,0.1
	c-3.4-1-6.1-3.7-7-7c-0.9-2.9-0.7-6,0.6-8.7C37.5,12,40,10,43,9.2c5.6-1.4,10.6,1.9,12.1,6.7c0.3,1.2,0.5,2.4,0.4,3.7
	c-0.1,1.4-0.8,1.8-2.1,1.9H47.7L47.7,21.5z M49.7,17.6c0-1.3-0.8-2.6-2-3.2c-1.3-0.8-3-0.8-4.3,0c-1.1,0.7-1.9,1.9-2,3.2H49.7z
	 M58.8,15.1l-1-0.2l-1.1-0.2c-1-0.3-1.7-1.3-1.6-2.3c-0.1-1,0.5-1.9,1.5-2.3l1.7-0.3h0.4V9.2c0.1-1.1,0.1-2.2,0.2-3.4
	c0-0.5,0.2-1,0.4-1.5c0.4-1,1.3-1.6,2.4-1.5c1.3-0.2,2.5,0.7,2.8,1.9c0.2,0.7,0.3,1.4,0.3,2.1c0.1,0.8,0.1,1.7,0.1,2.5
	c0,0.8,0,0.8,0.7,0.8c0.6,0,1.2,0,1.8,0.3c1.3,0.3,2.2,1.6,1.9,2.9c0,0.1-0.1,0.2-0.1,0.3c-0.2,0.7-0.7,1.2-1.3,1.5
	c-0.7,0.2-1.4,0.4-2.1,0.3H65v11.3c0,0.8-0.1,1.6-0.4,2.3c-0.4,1.4-1.9,2.2-3.4,1.9c-0.2,0-0.3-0.1-0.4-0.2c-0.5-0.2-0.9-0.6-1.2-1
	c-0.3-0.5-0.5-1.1-0.5-1.7C59,27.4,59,26.8,59,26.2V15.8C59,15.3,59,15.1,58.8,15.1z M138.6,11.5c-3,0-5.4-2.3-5.4-5.1
	s2.4-5.1,5.4-5.1s5.4,2.3,5.4,5.1S141.6,11.5,138.6,11.5z M138.6,2.1c-2.5,0-4.5,1.9-4.5,4.3s2,4.3,4.5,4.3s4.5-1.9,4.5-4.3
	S141.1,2.1,138.6,2.1z M137.1,3.4h1.4c0.6,0,1.1,0.1,1.6,0.4c0.3,0.3,0.4,0.6,0.4,1c0,0.6-0.4,1.2-1.1,1.4l0,0
	c0.5,0.2,0.8,0.6,0.8,1.1c0.2,0.7,0.4,1.2,0.4,1.5H140c-0.1-0.4-0.3-0.8-0.4-1.3c-0.2-0.8-0.4-1-1.1-1h-0.7v2.3h-0.7V3.4z
	 M137.8,5.9h0.7c0.8,0,1.3-0.4,1.3-1s-0.5-1-1.3-1h-0.7V5.9z"/>
</svg>
