<svg id="Layer_1" data-name="Layer 1" xmlns="http://www.w3.org/2000/svg" xmlns:xlink="http://www.w3.org/1999/xlink" viewBox="0 0 226.81 51.85"><defs><style>.cls-1{fill:#5690ff;opacity:0.47;isolation:isolate;}.cls-2{fill:url(#linear-gradient);}.cls-3{fill:#363f5a;}</style><linearGradient id="linear-gradient" y1="-125.92" x2="39.99" y2="-125.92" gradientTransform="matrix(1, 0, 0, -1, 0, -100)" gradientUnits="userSpaceOnUse"><stop offset="0" stop-color="#5690ff" stop-opacity="0.99"/><stop offset="1" stop-color="#0052e0"/></linearGradient></defs><title>Artboard 1 copy 4</title><path class="cls-1" d="M37.78,23.81l-9.1-6L3.74,2.46A22.66,22.66,0,0,1,8.07,9.67,24,24,0,0,1,9.43,15l18.7,11.72a1.53,1.53,0,0,1,.39,2.13l-.07.09h0l-.07.08-.08.08h-.05l-.13.1-18.06,11a1.08,1.08,0,0,1-1.51-.29,1.1,1.1,0,0,1-.19-.61V14.21A23.76,23.76,0,0,0,7.15,9.67,21.22,21.22,0,0,0,.59.39L0,0V47.22a4.63,4.63,0,0,0,7.17,3.86L37.78,32a4.9,4.9,0,0,0,0-8.19Z"/><path class="cls-2" d="M37.78,23.81l-9.1-6a7.08,7.08,0,0,1,1,10,6.93,6.93,0,0,1-1.2,1.16h0l-.07.08-.08.08h0l-.13.1-13,7.66h0l-5,3.39A1.08,1.08,0,0,1,8.62,40a1.1,1.1,0,0,1-.19-.61V14.25A23.41,23.41,0,0,0,7.15,9.67,21.22,21.22,0,0,0,.59.39L0,0V47.22a4.63,4.63,0,0,0,7.17,3.86L37.78,32a4.9,4.9,0,0,0,0-8.19Z"/><path class="cls-3" d="M65.83,35.57H61.44c-.32,0-.43-.29-.57-.57L57,27.74h-.32c-.6,0-1.49-.06-2-.06V35a.59.59,0,0,1-.57.57H50.37A.59.59,0,0,1,49.8,35V15.76c0-1,.4-1.23,1.29-1.38A45.26,45.26,0,0,1,56.91,14c4.88,0,8.63,1.63,8.63,6.71v.37a5.78,5.78,0,0,1-3.7,5.74l4.33,8.09a.9.9,0,0,1,.09.32C66.26,35.43,66.14,35.57,65.83,35.57ZM60.66,20.72c0-1.75-1.35-2.55-3.76-2.55-.4,0-1.89.06-2.24.09v5.51l2,.06c3,0,4-.77,4-2.72Z"/><path class="cls-3" d="M82.32,28.81H73.17v.06c0,1.63.69,3.13,3,3.13,1.81,0,4.36-.14,5.51-.26h.09c.32,0,.54.14.54.46v2.18c0,.46-.11.66-.6.77a22,22,0,0,1-5.88.69c-3.47,0-7.2-1.84-7.2-7.37v-2c0-4.62,2.7-7.54,7.26-7.54S83,22.14,83,26.47v1.66C82.92,28.55,82.69,28.81,82.32,28.81Zm-3.93-3c0-2.12-1-3.18-2.58-3.18s-2.64,1.09-2.64,3.18v.11h5.22Z"/><path class="cls-3" d="M99.35,35.57H95.83a.6.6,0,0,1-.57-.6V24.88c0-1.26-.2-2.15-1.69-2.15H92.13c-1.49,0-1.69.89-1.69,2.15V35a.6.6,0,0,1-.57.6H86.33a.58.58,0,0,1-.54-.6V24.88c0-4,2.21-6,6.34-6h1.43c4.13,0,6.34,2,6.34,6V35A.58.58,0,0,1,99.35,35.57Z"/><path class="cls-3" d="M116,35.09a27.05,27.05,0,0,1-6.08.75c-4.65,0-7.2-2.7-7.2-7.34V26.25c0-4.5,2.35-7.34,7.2-7.34a20.5,20.5,0,0,1,2.35.2v-5a.59.59,0,0,1,.57-.57h3.44a.6.6,0,0,1,.6.57v20.1C116.85,34.71,116.73,34.91,116,35.09ZM112.23,22.9a20.44,20.44,0,0,0-2.35-.14c-2,0-2.58,1.49-2.58,3.5V28.5c0,2,.55,3.53,2.58,3.53a16.78,16.78,0,0,0,2.35-.17Z"/><path class="cls-3" d="M133.6,28.81h-9.15v.06c0,1.63.69,3.13,3,3.13,1.81,0,4.36-.14,5.51-.26h0c.32,0,.54.14.54.46v2.18c0,.46-.11.66-.6.77a22,22,0,0,1-5.88.69c-3.47,0-7.2-1.84-7.2-7.37v-2c0-4.62,2.7-7.54,7.26-7.54s7.08,3.21,7.08,7.54v1.66C134.2,28.55,134,28.81,133.6,28.81Zm-3.93-3c0-2.12-1-3.18-2.58-3.18s-2.64,1.09-2.64,3.18v.11h5.22Z"/><path class="cls-3" d="M144.44,22.78a17.12,17.12,0,0,0-2.58.17V35a.6.6,0,0,1-.57.6h-3.47a.65.65,0,0,1-.6-.6V20.66c0-.4.23-.69.89-.92a19.18,19.18,0,0,1,6.34-.83c.34,0,.77.14.77.54v2.78C145.21,22.55,145,22.78,144.44,22.78Z"/><path class="cls-3" d="M156.08,22.61h-3.9V35a.65.65,0,0,1-.6.6h-3.47a.65.65,0,0,1-.6-.6V18c0-4,2.7-4.85,5.59-4.85a25.24,25.24,0,0,1,3.13.26c.32.06.43.17.43.34v2.41c0,.32-.11.46-.4.46h-3c-.89,0-1.09.54-1.09,1.38v1.15h3.9a.59.59,0,0,1,.57.57V22a.58.58,0,0,1-.55.61Z"/><path class="cls-3" d="M165.83,35.83c-4.65,0-7.2-2.9-7.2-7.46v-2c0-4.56,2.55-7.46,7.2-7.46s7.17,2.9,7.17,7.46v2C173,32.94,170.48,35.83,165.83,35.83Zm2.55-9.46c0-2.32-.89-3.5-2.55-3.5s-2.58,1.18-2.58,3.5v2c0,2.32.92,3.53,2.58,3.53s2.55-1.2,2.55-3.53Z"/><path class="cls-3" d="M183.21,22.78a17.12,17.12,0,0,0-2.58.17V35a.6.6,0,0,1-.57.6h-3.47a.65.65,0,0,1-.6-.6V20.66c0-.4.23-.69.89-.92a19.18,19.18,0,0,1,6.34-.83c.34,0,.77.14.77.54v2.78C184,22.55,183.76,22.78,183.21,22.78Z"/><path class="cls-3" d="M199.68,28.81h-9.15v.06c0,1.63.69,3.13,3,3.13,1.81,0,4.36-.14,5.51-.26h.09c.32,0,.54.14.54.46v2.18c0,.46-.11.66-.6.77a22,22,0,0,1-5.88.69c-3.47,0-7.2-1.84-7.2-7.37v-2c0-4.62,2.7-7.54,7.26-7.54s7.08,3.21,7.08,7.54v1.66A.69.69,0,0,1,199.68,28.81Zm-3.93-3c0-2.12-1-3.18-2.58-3.18s-2.64,1.09-2.64,3.18v.11h5.22Z"/><path class="cls-3" d="M208.65,35.83a22.39,22.39,0,0,1-5.22-.63.65.65,0,0,1-.54-.66V32.22a.53.53,0,0,1,.52-.54h.13c1.55.2,4,.4,4.88.4,1.38,0,1.69-.37,1.69-1.12,0-.43-.26-.75-1.06-1.2l-3.73-2.15a4.74,4.74,0,0,1-2.55-4.24c0-2.9,1.92-4.45,5.88-4.45a18.34,18.34,0,0,1,5.11.66.65.65,0,0,1,.54.66v2.32c0,.34-.17.54-.46.54h-.11a44.66,44.66,0,0,0-4.76-.37c-1.12,0-1.52.17-1.52.83,0,.43.32.66.89,1l3.56,2c2.38,1.38,2.9,2.87,2.9,4.42C214.79,33.71,212.84,35.83,208.65,35.83Z"/><path class="cls-3" d="M226.23,22.61H222.3v8.52c0,1,.46,1.18,1.69,1.18h2.15c.37,0,.6.17.6.49V35c0,.32-.2.52-.57.57a23.33,23.33,0,0,1-3.44.26c-3.21,0-5.11-1-5.11-4.73V16.7a.62.62,0,0,1,.57-.57l3.5-.6h.09a.59.59,0,0,1,.52.57v3h3.93a.59.59,0,0,1,.57.57V22a.58.58,0,0,1-.55.61Z"/></svg>