<svg id="Layer_1" xmlns="http://www.w3.org/2000/svg" xmlns:xlink="http://www.w3.org/1999/xlink" viewBox="0 0 40 52"><defs><style>.cls-1{fill:#5690ff;opacity:0.47;isolation:isolate;}.cls-2{fill:url(#linear-gradient);}</style><linearGradient id="linear-gradient" y1="1206" x2="39.99" y2="1206" gradientTransform="translate(0 -1180)" gradientUnits="userSpaceOnUse"><stop offset="0" stop-color="#5690ff" stop-opacity="0.99"/><stop offset="1" stop-color="#0052e0"/></linearGradient></defs><path class="cls-1" d="M37.79,23.89l-9.1-6L3.75,2.54A22.84,22.84,0,0,1,8.08,9.75a24.54,24.54,0,0,1,1.36,5.33L28.14,26.8a1.54,1.54,0,0,1,.39,2.13h0l-.07.09h0l-.07.08-.08.08h0l-.13.1-18.06,11A1.09,1.09,0,0,1,8.56,40h0a1,1,0,0,1-.19-.61V14.29A24.52,24.52,0,0,0,7.16,9.75,21.38,21.38,0,0,0,.6.47L0,.08V47.3a4.63,4.63,0,0,0,7.17,3.86L37.79,32.08a4.9,4.9,0,0,0,1.4-6.79A5.18,5.18,0,0,0,37.79,23.89Z"/><path class="cls-2" d="M37.78,23.89l-9.1-6a7.07,7.07,0,0,1,1,10l0,0a6.94,6.94,0,0,1-1.2,1.16h0l-.07.08-.08.08h0l-.13.1L15.2,37h0l-5,3.39a1.08,1.08,0,0,1-1.52-.19l-.06-.09a1.1,1.1,0,0,1-.19-.61V14.33A23.41,23.41,0,0,0,7.15,9.75,21.22,21.22,0,0,0,.59.47L0,.08V47.3a4.63,4.63,0,0,0,7.17,3.86L37.78,32.08a4.9,4.9,0,0,0,0-8.19Z"/></svg>