<?xml version="1.0" encoding="UTF-8"?><svg xmlns="http://www.w3.org/2000/svg" width="102" height="80"><defs><linearGradient id="a" x1="3.2126%" x2="53.1153%" y1="100.062%" y2="25.0167%"><stop offset="0%" stop-color="#F89923"/><stop offset="100%" stop-color="#C86F29"/></linearGradient><linearGradient id="b" x1="93.7924%" x2="36.0551%" y1="5.839%" y2="92.5001%"><stop offset="0%" stop-color="#FAD804"/><stop offset="100%" stop-color="#F8B914"/></linearGradient></defs><g fill="none"><path fill="#FFF" d="M61.7997 45.2398l12.6692 1.0624-9.3799-12.807-3.2893 11.7446zm13.6009 1.5845l-14.1718-1.1875L64.9082 32.5l10.4924 14.3243zM54.1484 39.281l-13.8973 7.0064 20.7052-1.0442-6.8079-5.9622zm-15.9696 7.555l16.0368-8.0842 7.8553 6.879-23.892 1.2052zM65.474 33.2685l9.5121 12.9873 14.8435-10.4525-24.3556-2.5348zm9.4118 13.5995L64.5273 32.724l26.5246 2.7608L74.8857 46.868zm-20.321-7.8103l6.8307 5.9826 3.247-11.5914-10.0777 5.6088zm7.0674 6.778l-7.8328-6.8594 11.5554-6.4316-3.7226 13.291zM41.5628 21.2933l12.684 17.4351 10.2826-5.7234-22.9666-11.7117zM54.12 39.3059L40.1166 20.058l25.354 12.9304L54.12 39.306zm-14.719-3.8341l14.2568 3.2006L40.9973 21.267 39.401 35.4718zm15.3054 3.89l-15.7897-3.544 1.7684-15.7332L54.7064 39.362zm10.7526-6.5393l24.2565 2.5245-15.3166-12.2817-8.94 9.7572zm25.7098 3.1213L64.538 33.1726l9.8135-10.7124 16.8172 13.4836zM41.8916 20.9626l23.0595 11.7612 8.9478-9.7688-32.0073-1.9924zm23.1586 12.3086l-.1501-.076L39.789 20.3878l35.0623 2.1826-9.8011 10.7008zm-23.689-12.7848l32.2772 2.009L54.2409 8.202 41.3612 20.4864zm33.7508 2.5452l-34.79-2.166L54.204 7.6242l20.908 15.4074zM55.2332 8.3817L73.67 21.9679l-6.0105-10.6107-12.4262-2.9755zm19.8444 15.1745L53.2119 7.4418l14.7377 3.5291.0473.0835 7.0807 12.5018zm.15-.3936l14.4068 11.5531-5.7837-9.7896-8.6231-1.7635zm16.0227 13.4155L73.52 22.3601l10.6117 2.1719.0502.0843 7.0683 11.9618zm-.3156-.3874l10.1676 22.0886-.2624-16.3241-9.9052-5.7645zm10.644 24.1807L89.9466 35.103l11.3307 6.5944.0029.1258.2985 18.5483zM40.1116 46.7377l17.7882 8.3492 3.2955-9.41-21.0837 1.0608zm18.0444 8.958l-.2218-.1034-19.6184-9.2077 23.5151-1.1833-3.6749 10.4945zm17.2153-9.1698L100.88 58.8566 90.35 35.9813 75.3712 46.5259zm26.4275 13.2652l-.556-.2675-26.7427-12.9258 16.029-11.2852.111.2413 11.1587 24.2372zM39.3811 35.9226l.0523 10.283 14.0955-7.1073-14.1478-3.1757zm-.3868 10.9995l-.0593-11.5536 15.8987 3.5686-15.8394 7.985zm-3.613-26.8604l-9.286 4.0953 13.6285-3.429-4.3424-.6663zm-11.717 5.1636l-.1431-.4175 11.7996-5.2038 6.6375 1.0197-18.294 4.6016zm16.7 22.1204l20.5679 19.5002-3.0899-11.296-17.478-8.2042zm21.413 20.912L38.0667 45.7786l20.1487 9.4569.0265.0992 3.5352 12.923zm-42.4306-7.9164l21.9242 11.9124 19.0093-4.6664-40.9335-7.246zm21.8637 12.3834l-.0747-.0411L16.742 59.4288l1.3409.2384 44.3426 7.8483-21.2151 5.2092zM18.647 59.7677l42.0178 7.4363-15.9274-15.0615-5.5519-5.301L18.647 59.7678zm43.3964 8.1312l-.728-.1292-43.875-7.7648L39.242 46.2833l5.8007 5.5394 17.0008 16.0762zm-3.6839-12.134l3.1616 11.5605 23.8075-.6492-26.969-10.9114zm2.827 12.0128l-3.4904-12.76.4143.1681 29.3515 11.8763-26.2754.7156zM75.4762 47.069l11.0077 19.5082 14.3559-7.2477L75.4762 47.069zm10.8302 20.0955l-.104-.1848-11.8063-20.925 27.4425 13.2665-15.5322 7.8433zM62.1763 45.7164L85.5791 65.874 74.7994 46.7742l-12.6231-1.0578zm25.0335 22.148l-26.357-22.7038 14.2165 1.1916.0577.1018 12.0828 21.4104zm-28.9029-12.6L85.233 66.159l-23.618-20.34-3.308 9.4452zm29.2533 12.3148l-29.811-12.061 3.6617-10.4588.2467.2114 25.9026 22.3084zM1.6697 61.8299l15.9974 7.504.1493-9.1994-16.1467 1.6954zm16.4282 8.196L.0402 61.554l18.226-1.9135-.1683 10.3852zm2.3777-29.3099l-2.159 18.736 20.3772-12.826-18.2182-5.91zm-2.7038 19.6045l2.3269-20.193 19.6366 6.3705-5.6626 3.5341-16.301 10.2884zm3.3144-19.8734l17.9048 5.8115-.0523-10.3291-17.8525 4.5176zm18.3505 6.422l-19.9485-6.4743 19.8892-5.0335.0593 11.5078zm-15.6776-21.49l-3.1807 14.7392 18.047-4.5667L23.759 25.3791zm-3.764 15.3443l3.4708-16.0816.2712.1857 15.9493 10.913-19.6914 4.983zm-17.01 5.0603l-1.879 15.6575 16.4393-1.7257L2.9852 45.7837zM.6011 61.94l2.0495-17.088L18.542 60.0574.6011 61.94zm23.5426-36.8345L38.979 35.2552l1.6059-14.2861-16.441 4.1364zm15.1935 10.9313L23.081 24.9153l18.0146-4.5322-.0352.3177-1.7232 15.336zM3.2517 45.4255L17.875 59.4188l2.1544-18.6945-16.7777 4.7012zM18.212 60.3562l-.321-.3086L2.3848 45.208l18.1593-5.0888-2.3319 20.2371zm-.1053 9.1267l22.0109 2.6478-21.8604-11.875-.1505 9.2272zm24.2582 3.365l-24.7068-2.9738.1687-10.3573.3206.1752L42.365 72.848z"/><path fill="url(#a)" d="M53.2946 34.4591L36.5923 78.8843l42.3035-44.4252z" transform="translate(0 1)"/><path fill="#F4EA20" d="M27.4045 48.7621h25.5991l25.8923-13.3034H53.2951z"/><path fill="url(#b)" d="M27.4036 47.7612h25.6003L65.824.0738z" transform="translate(0 1)"/></g></svg>