<?xml version="1.0" encoding="UTF-8"?><svg xmlns="http://www.w3.org/2000/svg" width="102" height="80"><path fill="#FFF" d="M26.7616 23.795v44.1817h9.6956l.0906-44.1816h-9.7862zm9.7862 0l.0297-14.4385c.0022-1.0824.881-1.9565 1.9614-1.9565h38.8844c1.081 0 1.96.875 1.9614 1.9581l.0153 12.474c.0013 1.084-.877 1.9617-1.959 1.963H36.5478zm3.3686-3.3615h36.1203l-.0119-9.6719H39.9362l-.0198 9.6719zm-.1005 48.9484c-.0022 1.0824-.881 1.9565-1.9614 1.9565h-12.493c-1.082 0-1.9615-.8765-1.9615-1.9605v-46.984c0-1.084.8794-1.9604 1.9614-1.9604h14.555l-.1005 48.9484zm13.0445-22.4037H62.969V36.914H52.8604v10.0642zm-1.4007-13.4258h12.91c1.083 0 1.961.878 1.961 1.961v12.8655c0 1.083-.878 1.961-1.961 1.961h-12.91c-1.083 0-1.961-.878-1.961-1.961V35.5133c0-1.083.878-1.961 1.961-1.961z"/></svg>