<?xml version="1.0" encoding="UTF-8"?><svg xmlns="http://www.w3.org/2000/svg" width="130" height="60"><path fill="#FFF" d="M103.7565 9.5928v20.1557h1.9692V11.5689h10.168v18.1796h1.9691V11.5689h10.168v18.1796H130V9.5928h-26.2435zm-62.619-.7545c-2.8643 0-5.5853 1.1138-7.626 3.1617-2.0408 2.0479-3.1507 4.7425-3.1507 7.6527 0 2.8742 1.1099 5.6048 3.1506 7.6527 2.0408 2.0479 4.726 3.1617 7.626 3.1617 2.8643 0 5.5853-1.1138 7.626-3.1617 2.0408-2.048 3.1507-4.7425 3.1507-7.6527 0-2.8743-1.11-5.6048-3.1507-7.6527-2.0765-2.012-4.7617-3.1617-7.626-3.1617zm6.2296 17.1018c-1.647 1.6886-3.8667 2.5868-6.2297 2.5868-2.363 0-4.5827-.934-6.2297-2.5868-1.6469-1.6886-2.5778-3.8802-2.5778-6.2515 0-2.3712.931-4.5988 2.5778-6.2515 1.647-1.6886 3.8667-2.5868 6.2297-2.5868 2.363 0 4.5828.9341 6.2297 2.5868 1.647 1.6886 2.5778 3.8803 2.5778 6.2515 0 2.3354-.9309 4.5629-2.5778 6.2515zM91.7984 12.036c-2.0408-2.0479-4.726-3.1616-7.626-3.1616-2.8642 0-5.5852 1.1137-7.626 3.1616-2.0408 2.048-3.1506 4.7425-3.1506 7.6527 0 2.8743 1.1098 5.6048 3.1506 7.6527 2.0408 2.048 4.726 3.1617 7.626 3.1617 2.9 0 5.5852-1.1138 7.626-3.1617l-1.3963-1.4012c-1.647 1.6886-3.8667 2.5868-6.2297 2.5868-2.363 0-4.5828-.934-6.2297-2.5868-1.647-1.6886-2.5778-3.8802-2.5778-6.2515h19.5842c0-2.9102-1.11-5.6407-3.1507-7.6527zm-13.8199 1.3653c1.647-1.6886 3.8667-2.5868 6.2297-2.5868 2.363 0 4.5828.9341 6.2297 2.5868 1.1815 1.1856 2.005 2.6946 2.363 4.2754H75.6155c.358-1.5808 1.1457-3.0538 2.363-4.2754zM23.9163 5.0659l-6.2655 6.2874c-1.9334-1.6168-4.3322-2.515-6.8742-2.515-2.8642 0-5.5852 1.1138-7.626 3.1617C1.11 14.0479 0 16.7784 0 19.6527c0 2.8742 1.1099 5.6048 3.1506 7.6527 1.7902 1.7964 4.1174 2.9102 6.6236 3.1257v7.976c-2.5062.2156-4.8334 1.2935-6.6236 3.1258C1.11 43.581 0 46.3114 0 49.1856c0 2.8743 1.1099 5.6048 3.1506 7.6527C5.1914 58.8863 7.8766 60 10.7766 60c2.8643 0 5.5853-1.1138 7.626-3.1617 2.0408-2.0479 3.1507-4.7425 3.1507-7.6527 0-2.9102-1.1099-5.6048-3.1507-7.6527-1.7901-1.7964-4.1173-2.9102-6.6235-3.1257v-7.976c2.5062-.2156 4.8334-1.2935 6.6235-3.1258 2.0408-2.048 3.1507-4.7425 3.1507-7.6527 0-2.5509-.895-4.994-2.5062-6.9341l6.2655-6.2875-1.3963-1.3652zm-6.91 37.8682c1.647 1.6886 2.5778 3.8803 2.5778 6.2515 0 2.3713-.9308 4.5988-2.5778 6.2515-1.6469 1.6886-3.8667 2.5869-6.2297 2.5869-2.363 0-4.5827-.9342-6.2296-2.5869-1.647-1.6886-2.5778-3.8802-2.5778-6.2515 0-2.3712.9308-4.5988 2.5778-6.2515 1.6469-1.6886 3.8667-2.5868 6.2296-2.5868 2.363 0 4.5828.8982 6.2297 2.5868zm2.5778-23.2455c0 2.3713-.9308 4.5988-2.5778 6.2515-1.6469 1.6886-3.8667 2.5868-6.2297 2.5868-2.363 0-4.5827-.934-6.2296-2.5868C2.9 24.2515 1.9692 22.06 1.9692 19.6886c0-2.3712.9308-4.5988 2.5778-6.2515 1.6469-1.6886 3.8667-2.5868 6.2296-2.5868 2.363 0 4.5828.9341 6.2297 2.5868 1.6828 1.6527 2.5778 3.8803 2.5778 6.2515zm42.1041 9.8084h1.9692V0h-1.9692v29.497z"/></svg>