<?xml version="1.0" encoding="UTF-8"?><svg xmlns="http://www.w3.org/2000/svg" width="144" height="60"><path fill="#FFF" fill-rule="evenodd" d="M3.2583 10.9603h43.0572v-7.71H3.2583v7.71zM0 14.2107V0h49.5738v14.2107H0zm11.8033 8.797v13.8724H8.974v-5.8288H2.829V36.88H0V23.0078h2.8292v5.5128h6.145v-5.5128h2.829zm4.7753 7.7869h3.7806c-.0671-1.0779-.6712-1.8416-1.7674-1.8416-.917 0-1.7004.584-2.0132 1.8416zm-.0895 1.8194c.2237 1.6394 1.4094 2.3136 2.886 2.3136 1.096 0 1.879-.2474 2.8634-.8763v2.2911c-.8281.6065-1.9464.876-3.2884.876-3.0427 0-5.1234-1.9766-5.1234-5.166 0-3.1443 1.9688-5.3228 4.6983-5.3228 2.9081 0 4.407 2.0213 4.407 4.986v.8984h-6.443zm17.1288.3713l1.796-6.2557h2.6938l-3.053 9.8121h-2.559l-1.6387-6.0145-1.6385 6.0145h-2.5592l-3.0527-9.812h2.7833l1.796 6.2556 1.6384-6.2557h2.1327l1.6609 6.2557zm14.6609-2.1907h3.7806c-.067-1.0779-.6711-1.8416-1.7674-1.8416-.917 0-1.7003.584-2.0132 1.8416zm-.0895 1.8194c.2237 1.6394 1.4095 2.3136 2.886 2.3136 1.096 0 1.879-.2474 2.8635-.8763v2.2911c-.8282.6065-1.9465.876-3.2885.876-3.0427 0-5.1234-1.9766-5.1234-5.166 0-3.1443 1.9688-5.3228 4.6983-5.3228 2.9081 0 4.4071 2.0213 4.4071 4.986v.8984h-6.443zm31.4315-7.1434H77.041v4.1346h2.5798c1.4807 0 2.1987-.8586 2.1987-2.0562 0-1.2427-.718-2.0784-2.1987-2.0784zm-2.5798 6.597v4.8125h-2.849V23.0078h5.6086c2.9163 0 4.8458 1.5816 4.8458 4.5412 0 2.937-1.9295 4.5187-4.8458 4.5187H77.041zm14.386 1.4966c-.246-.5414-.9839-.8797-1.7668-.8797-.8724 0-1.7672.3835-1.7672 1.2403 0 .8802.8948 1.2408 1.7672 1.2408.783 0 1.5208-.3384 1.7668-.8798v-.7216zm0-2.8195c0-.97-.8273-1.579-2.2366-1.579-1.0063 0-1.9461.2932-2.7287.812V27.564c.7158-.4508 2.0129-.8343 3.3327-.8343 2.7511 0 4.2946 1.4209 4.2946 3.8794v6.429h-2.662v-.5414c-.3352.3383-1.3198.7218-2.4155.7218-2.013 0-3.6907-1.1727-3.6907-3.2707 0-1.9175 1.6778-3.2259 3.8696-3.2259.8724 0 1.8343.2936 2.2366.5866v-.5637zm9.4-4.015c1.006 0 1.9893.2245 2.7046.7857v2.538c-.6706-.6062-1.4754-.8982-2.3696-.8982-1.475 0-2.6375 1.0332-2.6375 2.8299 0 1.7745 1.1624 2.8299 2.6375 2.8299.8942 0 1.699-.3141 2.3696-.8982v2.5155c-.7153.5615-1.6986.7861-2.7046.7861-2.839 0-5.0518-2.0212-5.0518-5.2333 0-3.2342 2.2128-5.2555 5.0518-5.2555zM115.335 36.88h-3.184l-3.5354-4.611v4.611h-2.7232V22.331h2.7232v8.5058l3.3593-3.9617h3.2722l-4.0844 4.5881 4.1723 5.4168zm6.7809-3.3159c-.246-.5414-.984-.8797-1.767-.8797-.8724 0-1.7672.3835-1.7672 1.2403 0 .8802.8948 1.2408 1.7673 1.2408.783 0 1.5208-.3384 1.7669-.8798v-.7216zm0-2.8195c0-.97-.8274-1.579-2.2367-1.579-1.0063 0-1.9462.2932-2.7288.812V27.564c.7158-.4508 2.013-.8343 3.3328-.8343 2.7512 0 4.2944 1.4209 4.2944 3.8794v6.429h-2.6617v-.5414c-.3352.3383-1.3199.7218-2.4157.7218-2.013 0-3.6907-1.1727-3.6907-3.2707 0-1.9175 1.6777-3.2259 3.8697-3.2259.8724 0 1.834.2936 2.2367.5866v-.5637zm11.0926-1.0833c-.3808-.2224-.8736-.3335-1.3888-.3335-.9405 0-1.7021.489-1.9037 1.3998V36.88h-2.7777v-9.9284h2.7777v.977c.4256-.7104 1.254-1.199 2.24-1.199.4701 0 .8957.0884 1.0525.1773v2.7544zm8.0133.632c-.3112-.6764-1.067-1.1727-1.867-1.1727-1.4893 0-2.3781 1.2178-2.3781 2.842 0 1.6017.8888 2.8195 2.3782 2.8195.8224 0 1.5557-.4738 1.8669-1.173v-3.3158zm0 5.8648c-.4443.541-1.4224 1.0602-2.4894 1.0602-2.8894 0-4.5122-2.3686-4.5122-5.2557 0-2.887 1.6228-5.278 4.5122-5.278 1.067 0 2.0451.5186 2.4894 1.06V22.331H144v14.6618h-2.7783v-.8347zm-97.3498-.9388c.3343 0 .6908-.0668.9806-.2675v2.3374c-.4012.1788-.8915.2675-1.5378.2675-2.1168 0-3.5208-1.2913-3.5208-3.54V23.3462h2.7635v10.5351h-.0416c.0166.8832.5234 1.3382 1.356 1.3382zm22.7499-5.5764v4.2382h-.0415c.0165.8832.5227 1.3382 1.3547 1.3382.3338 0 .6896-.0668.9793-.2675v2.3374c-.4007.1788-.8907.2675-1.5361.2675-2.1142 0-3.516-1.2913-3.516-3.54V29.643H59.877v4.2382h-.0415c.0166.8832.5228 1.3382 1.3547 1.3382.3339 0 .69-.0668.979-.2675v2.3374c-.4006.1788-.8903.2675-1.5354.2675-2.1142 0-3.5164-1.2913-3.5164-3.54V29.643h-1.8106v-2.2486h1.8106v-4.0483h2.7596v4.0483h3.9851v-4.0483h2.7597v4.0483h2.5117v2.2486h-2.5117zM9.1054 42.2937v1.5816H2.086v4.3832h6.369V49.84H2.086v4.7217h7.0193v1.6043H.3372V42.2937h8.7682zm2.6979 3.9233h1.677v1.2549c.5813-.7845 1.6545-1.4564 2.9288-1.4564 2.2583 0 3.4879 1.4564 3.4879 3.6298v6.5207h-1.6993v-6.2518c0-1.3893-.6932-2.3527-2.191-2.3527-1.1627 0-2.1687.7842-2.5264 1.8598v6.7447h-1.677v-9.949zm18.9297 3.9986h5.0804c-.0664-1.476-.7984-2.747-2.396-2.747-1.3088 0-2.3738.8852-2.6844 2.747zm-.0891 1.3393c.0667 2.3383 1.509 3.451 3.3058 3.451 1.1097 0 1.9084-.2724 2.7956-.9536v1.5664c-.7984.6357-1.819.8857-2.9948.8857-2.84 0-4.7482-1.9751-4.7482-5.1536 0-3.1332 1.775-5.3353 4.3928-5.3353 2.6625 0 4.0382 1.975 4.0382 4.9266v.6128h-6.7894zm14.2086-3.6574c-.2663-.179-.6877-.269-1.1094-.269-1.0427 0-1.9526.695-2.2853 1.8602v6.6773H39.794v-9.949h1.664v1.2997c.4214-.8515 1.3533-1.5012 2.4406-1.5012.4214 0 .7765.067.954.1567v1.7253zm3.3934 5.2658c.5234 1.024 1.525 1.625 2.5948 1.625 1.935 0 3.0735-1.5362 3.0735-3.6294s-1.1386-3.6295-3.0735-3.6295c-1.0697 0-2.0714.601-2.5948 1.6257v4.0082zm0 6.7245h-1.7073v-13.672h1.7073v1.1579c.5234-.7126 1.5932-1.3582 2.8454-1.3582 2.9821 0 4.5527 2.405 4.5527 5.1434 0 2.739-1.5706 5.144-4.5527 5.144-1.2522 0-2.322-.646-2.8454-1.3585v4.9434zm14.8173-11.9903c-.2662-.179-.6876-.269-1.1094-.269-1.043 0-1.9525.695-2.2852 1.8602v6.6773h-1.664v-9.949h1.664v1.2997c.4218-.8515 1.3533-1.5012 2.4404-1.5012.4217 0 .7767.067.9542.1567v1.7253zm2.2528 8.2685h1.5647V46.087H65.316v10.079zm.7717-12.0313c-.542 0-1.001-.4995-1.001-1.0894 0-.613.459-1.09 1.001-1.09.5634 0 1.0224.477 1.0224 1.09 0 .59-.459 1.0894-1.0224 1.0894zm3.383 9.5544c.9308.8627 2.0883 1.3622 3.314 1.3622 1.1124 0 2.0883-.4087 2.0883-1.4076 0-.7494-.5676-1.158-1.4527-1.453l-1.3845-.477c-1.5206-.4992-2.5422-1.2257-2.5422-2.8604 0-1.7709 1.566-2.8378 3.5635-2.8378 1.135 0 2.179.3179 2.9962.8853v1.7709c-.84-.7036-1.7705-1.2031-2.9962-1.2031-1.0441 0-1.9067.4537-1.9067 1.3165 0 .8173.5451 1.0897 1.4981 1.4305l1.5435.522c1.5207.522 2.3607 1.4076 2.3607 2.8381 0 1.8614-1.6568 2.9287-3.768 2.9287-1.3162 0-2.5647-.409-3.314-.999V53.689zm10.4988-3.4735h5.0808c-.0668-1.476-.7988-2.747-2.3963-2.747-1.3092 0-2.3739.8852-2.6845 2.747zm-.089 1.3393c.0666 2.3383 1.509 3.451 3.306 3.451 1.1094 0 1.9078-.2724 2.7956-.9536v1.5664c-.7987.6357-1.8197.8857-2.9954.8857-2.84 0-4.7478-1.9751-4.7478-5.1536 0-3.1332 1.775-5.3353 4.3931-5.3353 2.6622 0 4.0378 1.975 4.0378 4.9266v.6128h-6.7894zm-53.2979 3.142c.3645 0 .7519-.0666 1.0708-.2674v1.5143c-.3874.1553-.7745.2222-1.3215.2222-1.7765 0-3.0977-1.1571-3.0977-3.138v-5.5317h-2.3255v-1.3948h2.3255v-2.4544h1.7278v2.4544h2.6832v1.3948H24.962v4.544h-.042v.8536c0 1.1802.6604 1.803 1.6627 1.803z"/></svg>