<?xml version="1.0" encoding="UTF-8"?><svg xmlns="http://www.w3.org/2000/svg" width="201" height="33"><path fill="#FFF" fill-rule="evenodd" d="M10.1304 32.5187H.5008V.821h16.6586l19.1054 23.6644V.821h9.629v31.6976H29.5765L10.1304 8.4503v24.0684m68.5547-7.63c2.1986 0 2.974-.1249 3.5-.5886.4954-.4338.7116-.9932.7116-2.8553v-9.6754c0-1.8608-.2162-2.4182-.7117-2.8547-.526-.4644-1.3013-.586-3.5-.586H63.0486c-2.1993 0-2.9727.1216-3.5.586-.4947.4365-.7103.9939-.7103 2.8547v9.6754c0 1.8621.2156 2.4215.7104 2.8553.5272.4637 1.3006.5886 3.4999.5886H78.685zm13.284-2.1704c0 4.404-.8058 5.924-2.1343 7.3815-2.0447 2.1717-5.0187 2.8228-10.7465 2.8228H62.6466c-5.7298 0-8.7031-.651-10.7452-2.8228-1.3318-1.4576-2.1363-2.9776-2.1363-7.3815V10.4972c0-4.4046.8045-5.9226 2.1363-7.3815C53.9435.9447 56.9168.2936 62.6466.2936h16.4417c5.7278 0 8.7018.651 10.7465 2.8221 1.3285 1.4589 2.1344 2.977 2.1344 7.3815v12.2211zM122.9626.8211h13.282l-17.9267 14.8254 20.2229 16.8722h-14.2173l-18.3598-16.5321L122.9625.8211zM95.9022 32.5187V.821h10.0614v31.6976H95.9022zm44.4942 0V.821h10.066v31.6976h-10.066zm29.4778-12.4072h12.5101L176.1266 8.637l-6.2524 11.4745zm18.9522 12.4072l-2.9747-5.5214h-19.474l-2.9422 5.5214h-11.1173L170.1528.821h12.5114l17.8366 31.6976h-11.6744z"/></svg>