<?xml version="1.0" encoding="UTF-8"?><svg xmlns="http://www.w3.org/2000/svg" width="156" height="37"><path fill="#FFF" fill-rule="evenodd" d="M11.5982 18.1628c0 5.883 2.3917 9.423 7.4597 9.423 4.3047 0 7.3203-3.3963 7.3203-9.7594 0-1.627-.1452-3.1119-.6239-4.4544-1.6256-4.6886-5.7407-4.8323-6.6964-4.8323-3.8247 0-7.4597 2.6317-7.4597 9.6231zm25.5456-.3364c0 8.5636-5.025 18.3216-18.2756 18.3216C5.0455 36.148.88 25.9084.88 18.2102.88 8.5397 6.8622.022 19.0579.022c13.3485 0 18.086 9.761 18.086 17.8044zm7.3633 5.5496c.9573 1.4818 1.7708 2.7266 4.6886 3.6838 1.387.4772 3.109.7661 4.7375.7661.861 0 5.0724-.0978 5.0724-2.5369 0-.24 0-1.4848-1.8687-2.1057-1.1958-.4282-7.4166-1.5293-8.8007-1.8656-3.1118-.8136-9.186-2.7252-9.186-9.8588 0-1.4848.3335-3.0155.9558-4.3551C42.3066 2.1292 47.9984.1672 54.074.1672c3.8765 0 7.4151.7647 10.1906 2.1531 2.534 1.2433 3.7802 2.5844 4.9776 3.8277l-6.6995 5.597c-.526-.6699-1.1025-1.436-2.5828-2.2006-1.9635-.9573-4.5449-1.2448-6.2683-1.2448-1.8182 0-3.8246.4787-3.8246 2.202 0 1.6271 1.7219 2.0583 4.6382 2.5844 7.5115 1.2936 14.9756 2.6332 14.9756 11.0072 0 3.5401-1.4849 6.0281-3.0141 7.6063-4.2574 4.3537-11.0517 4.3537-12.9173 4.3537-2.534 0-5.2132-.24-7.845-1.0062-5.3583-1.5278-7.8493-4.5419-9.3786-6.4105l8.1813-5.2605zm28.13 11.671V1.2668h10.7152V35.047H72.6371zm22.4367-9.9491c-3.635-.8625-8.085-1.8657-8.085-6.5543 0-4.1165 3.4942-6.7024 8.7059-6.7024 4.3077 0 8.8985 2.0583 9.666 7.3722l-4.115.526c-.0474-1.3884-.1423-2.4865-1.6256-3.6364-1.4848-1.1499-3.2052-1.341-4.3537-1.341-2.9666 0-4.453 1.7693-4.453 3.3045 0 2.1501 2.4436 2.8214 5.4088 3.5416l2.1531.5231c2.6792.6239 7.5086 1.7708 7.5086 6.5053 0 3.6854-3.2512 7.1292-9.469 7.1292-2.537 0-5.1687-.5246-6.9855-1.8153-.7202-.5275-2.9192-2.3472-3.349-6.1245l4.3048-.6698c-.0489 1.0033-.0489 2.9178 1.6745 4.4011 1.3381 1.15 3.014 1.2893 4.5463 1.2893 3.346 0 5.3095-1.2893 5.3095-3.7313 0-2.583-1.9635-3.06-4.6886-3.5876l-2.1531-.4297zm30.1853-4.4975c-.861-4.4485-3.7758-5.7421-6.3616-5.7421-5.1183 0-7.1751 3.9728-7.1751 9.14 0 4.7345 1.962 8.6585 6.889 8.6585 6.3631 0 6.8388-6.6017 6.8907-8.9.046-1.4344-.0993-2.4866-.243-3.1564zm-6.6002 15.1179c-7.799 0-11.099-5.837-11.099-11.7704 0-5.022 2.4895-12.154 11.2442-12.154 7.4611 0 10.9064 5.791 10.859 11.9629-.0474 6.8432-4.115 11.9615-11.0042 11.9615zm19.4226-23.2073h4.2574v3.1608h-4.2574V35.047h-3.6824V15.6718h-3.7802V12.511h3.7802l.0474-4.5922c.0474-1.913.1423-6.4105 5.8356-6.4105 1.101 0 2.0568.1897 2.774.286V4.761c-.7172-.0964-1.5797-.1912-2.1043-.1912-2.8244 0-2.8703 2.248-2.8703 4.0173v3.924zm13.682 0h4.1165v3.1608h-4.1166v12.9188c0 2.6792 0 3.8276 1.6286 3.8276.7202 0 1.7219-.2875 2.488-.5275v3.1563c-.6713.0963-2.2494.3853-3.6839.3853-4.401 0-4.401-2.1546-4.3522-5.1198V15.6718h-3.5905V12.511h3.5905V5.382h3.9195v7.1291z"/></svg>