<?xml version="1.0" encoding="UTF-8"?><svg xmlns="http://www.w3.org/2000/svg" width="102" height="80"><path fill="#FFF" d="M51.005 10C34.4367 9.9972 21.0029 23.416 21 39.972c-.0028 16.5558 13.4263 29.9792 29.9949 29.982 16.5685.0028 30.0022-13.416 30.005-29.9719.0137-7.9541-3.1418-15.5865-8.7696-21.212-5.6278-5.6253-13.265-8.781-21.2252-8.77m6.201 49.591c-10.4844.0004-19.0114-8.4402-19.1097-18.9162a13.0303 13.0303 0 0 0 4.2466.6953c4.6942-.0046 9.0345-2.4942 11.4058-6.5423 2.3713-4.0481 2.4185-9.0487.124-13.1408a19.7564 19.7564 0 0 1 3.3257-.299c6.8813-.0796 13.2742 3.5432 16.738 9.485 3.464 5.942 3.464 13.2858 0 19.2277-3.4638 5.942-9.8567 9.5647-16.738 9.4851"/></svg>