<?xml version="1.0" encoding="UTF-8"?><svg xmlns="http://www.w3.org/2000/svg" width="73" height="81"><path fill="#FFF" d="M54.5083 34.9667h-2.4218v-2.2153h7.1027v2.2153h-2.4068v12.3847h-2.2741V34.9667zm-34.785 8.9628c.0412.9364-.2485 1.8582-.8207 2.6119-.3871.5035-.9342.8685-1.5561 1.038a4.3332 4.3332 0 0 1-1.2578.164c-.788.029-1.5636-.1966-2.2063-.6415-.503-.373-.8994-.8656-1.1511-1.4305a5.6883 5.6883 0 0 1-.4989-2.0762l2.1573-.1516c.0981.8513.3283 1.472.6971 1.8541.228.2723.5731.4258.9337.4152.4978-.0162.9496-.288 1.1874-.7142a1.7396 1.7396 0 0 0 .226-.9675c0-.6063-.2843-1.2097-.8527-1.8105l-2.0145-1.8561a8.4575 8.4575 0 0 1-1.5946-1.9039 4.333 4.333 0 0 1-.503-2.0575c0-1.333.4597-2.342 1.3792-3.0272.6139-.4282 1.3557-.6471 2.1104-.6228a3.917 3.917 0 0 1 2.072.5253c.4595.2835.8339.6803 1.085 1.1502.2876.5234.4583 1.1.501 1.6921l-2.168.3862a2.5074 2.5074 0 0 0-.5286-1.4015c-.2264-.2495-.5583-.3835-.8996-.3633-.4003-.0125-.7722.201-.955.5481a2.032 2.032 0 0 0-.2643 1.0734c.0057.6686.307 1.3489.9038 2.041a7.5524 7.5524 0 0 0 1.0062.9322c.5265.4277.8761.7266 1.0424.899a7.5063 7.5063 0 0 1 1.294 1.609c.131.2223.247.4525.3474.6894.1975.4429.3109.917.3347 1.3993l-.0064-.0041zm3.797 3.4219H21.308v-14.6h3.1715l2.0623 10.4865 1.977-10.4865h3.0487v14.6h-2.21v-9.1755l-1.9188 9.1755h-1.7793l-2.1393-9.1507v9.1507zm12.8213-3.3553l-.5298 3.3553h-2.2713l2.4643-14.6h3.0024l2.4252 14.6h-2.3l-.5113-3.3553h-2.2795zm1.146-7.8978l-.8092 5.753h1.6141l-.805-5.753zm9.4374-3.347c1.244 0 2.1545.3385 2.7317 1.0155.5127.5886.7683 1.4113.767 2.4682v2.1222c.018 1.0016-.4116 1.9603-1.1747 2.6215l1.6537 6.3727h-2.4164l-1.3533-5.5002h-1.4898v5.5002h-2.2378v-14.6h3.5196zm1.3364 3.5231c0-.8455-.4251-1.269-1.2754-1.2704h-1.347v4.6691h1.347c.3403.0053.6675-.129.9035-.371.241-.236.375-.5581.372-.8931v-2.1346zM20.9257 58.7945a2.3493 2.3493 0 0 1-1.6825-.6953c-.4468-.4494-.6978-1.0607-.6973-1.6982v-5.4702c0-1.3231 1.06-2.3957 2.3676-2.3957 1.3076 0 2.3676 1.0726 2.3676 2.3957v1.1452h-1.5498v-1.1762a.8469.8469 0 0 0-.255-.619.8109.8109 0 0 0-.6117-.2538.8109.8109 0 0 0-.6118.2538.8491.8491 0 0 0-.2488.619v5.4867a.8678.8678 0 0 0 .249.6133.8474.8474 0 0 0 .6055.2534.829.829 0 0 0 .6117-.2518.8303.8303 0 0 0 .255-.619v-1.3825h1.5498v1.399a2.406 2.406 0 0 1-.6916 1.6924 2.3495 2.3495 0 0 1-1.672.7012l.0143.002zm3.5392-10.2594h1.5783v10.2595H24.465V48.535zm4.377 1.5568H27.227v-1.5568h4.7352v1.5568h-1.6046v8.7027H28.842v-8.7027zm4.6986-1.5568h1.5784v10.2595h-1.5784V48.535zm7.1027 0v1.5568l-2.7361 7.165h2.7361v1.5377h-4.3405v-1.5462l2.7443-7.165-2.7443.0085v-1.5568h4.3405zm1.1838 10.2595V48.535h4.3406v1.5555H43.353v2.7965h2.0568v1.5555H43.353v2.7986h2.8146v1.5534H41.827zm7.1944-10.2595l1.9723 6.8953V48.535h1.4874v10.2595h-1.595l-2.0474-6.5702v6.5702h-1.4873V48.535h1.67zm15.0058-28.6197c9.2202 10.5363 11.5489 25.4074 5.9878 38.239-7.988 18.4236-29.4685 26.9174-47.971 18.9648C7.6747 70.9566-1.1463 56.3532.1205 40.8242c1.2667-15.529 12.339-28.523 27.5187-32.2952L25.36.959c-.2309-.7691.193-1.1558.9402-.859l16.9495 6.688c.3434.1133.6097.3863.7133.7314a1.1 1.1 0 0 1-.1928 1.0013L33.3226 23.4016c-.4596.65-1.0262.5601-1.2592-.209l-2.5185-8.36C16.5358 17.7971 7.1144 29.0452 6.5198 42.322c-.5946 13.2767 7.784 25.3154 20.4764 29.4215 12.6925 4.1061 26.576-.7306 33.9302-11.8206 7.3542-11.0899 6.3696-25.7045-2.4063-35.7167l5.5071-4.2909z"/></svg>