<?xml version="1.0" encoding="UTF-8"?><svg xmlns="http://www.w3.org/2000/svg" width="102" height="80"><defs><linearGradient id="a" x1="0%" y1="49.8%" y2="49.8%"><stop offset="0%" stop-color="#FBFBFB"/><stop offset="100%" stop-color="#B8B8B8"/></linearGradient><linearGradient id="b" x1="-.1%" y1="50%" y2="50%"><stop offset="0%" stop-color="#BBB"/><stop offset="100%" stop-color="#F7F7F7"/></linearGradient><linearGradient id="c" x1="6.4%" x2="93.1%" y1="86%" y2="11.8%"><stop offset="0%" stop-color="#F1F1F1"/><stop offset="50%" stop-color="#FFF"/><stop offset="100%" stop-color="#F0F0F0"/></linearGradient><linearGradient id="d" x1="-.1%" x2="101.2%" y1="66.9%" y2="66.9%"><stop offset="0%" stop-color="#1A1A1A"/><stop offset="100%" stop-color="#1A1A1A"/></linearGradient></defs><g fill="none"><path fill="url(#a)" d="M5.3613 12.7994a143.849 143.849 0 0 1 24.8322 4.3412c1.949-.7354 3.871-1.471 5.7388-2.1696 6.7316-2.611 8.0206-6.1258 7.616-8.9226C43.144 3.4374 41.129.4839 32.3634.1819A79.1942 79.1942 0 0 0 7.8251 3.3097 8.5877 8.5877 0 0 0 2.8955 8.129c-.0736.2575-.1936.5516-.2574.809a2.9032 2.9032 0 0 0 2.7232 3.8614z" transform="translate(20 10)"/><path fill="url(#b)" d="M55.0974 45.7606a150.7084 150.7084 0 0 1-27.2226-5.1503c-2.4638 1.1768-5.1987 2.1174-7.5522 3.18-4.4516 1.9123-6.693 7.349-4.5968 10.4032 1.5813 2.3904 6.5323 4.113 10.2736 4.1497.267 0 .478.0368.6541.0368 8.6967.3972 17.509-.6595 25.9723-3.1277a8.5877 8.5877 0 0 0 4.9297-4.8194c.0735-.2574.1935-.5516.2574-.809a2.9032 2.9032 0 0 0-2.7155-3.8633z" transform="translate(20 10)"/><path fill="url(#c)" d="M59.4406 15.3387c-.147-.6987-.2941-1.3974-.4412-2.0593C57.3316 7.3987 52.494 2.9587 46.4923 1.8A78.2632 78.2632 0 0 0 32.218.1452C40.8639.5497 42.7394 3.42 43.1439 6.031c.4045 2.7967-.478 6.2903-7.2097 8.9032-7.7265 2.8239-15.8923 6.2535-24.0561 9.4161C-1.3277 29.4271-.2613 37.7052.8787 42.4858c.1471.7742.331 1.5484.478 2.3226 1.8226 5.9284 6.6052 10.477 12.6175 12a79.2542 79.2542 0 0 0 12.029 1.5813c-2.9032-.2574-8.5355-1.7652-10.1167-4.1574-2.0962-3.0542.2574-8.2781 4.709-10.1904 8.4251-3.7896 17.547-8.5354 26.5974-12.7277 10.262-5.2703 13.6084-9.2807 12.2477-15.9755z" transform="translate(20 10)"/><path fill="url(#d)" d="M26.0013 58.3432c.207.0295.4161.0418.6252.0368a3.571 3.571 0 0 1-.6252-.0368z" transform="translate(20 10)"/><path fill="#FFF" d="M73.702 18.2761a6.8961 6.8961 0 0 1 1.618 5.7755c-.6987.5516-2.8703-1.0664-4.5987-2.9032-1.6916-1.8387-4.3413-5.1503-3.753-5.702a12.8032 12.8032 0 0 1 6.7336 2.8297zm-44.22 35.8742c2.2064 3.0174 2.7967 3.569 1.3974 5.2607-1.324 1.7651-4.1207 1.8019-6.2904-2.3536-2.2064-3.9368-1.7651-8.4987-.4413-9.1239 1.1768-.7819 3.091 3.1549 5.3342 6.2168z"/></g></svg>