<svg width="12" height="12" viewBox="0 0 12 12" version="1.1" xmlns="http://www.w3.org/2000/svg" xmlns:xlink="http://www.w3.org/1999/xlink">
<title>virus</title>
<desc>Created using Figma</desc>
<g id="Canvas" transform="translate(-14234 -293)">
<g id="virus">
<g id="Shape">
<use xlink:href="#path0_fill" transform="translate(14234 293)" fill="#89909E"/>
</g>
</g>
</g>
<defs>
<path id="path0_fill" d="M 12 3L 12 2.25L 10.5 2.25L 10.5 3C 10.5 3.45 10.2 3.75 9.75 3.75L 9 3.75C 8.775 3.45 8.55 3.225 8.25 3L 8.25 2.25C 8.25 0.975 7.275 0 6 0C 4.725 0 3.75 0.975 3.75 2.25L 3.75 3C 3.45 3.225 3.225 3.45 3 3.75L 2.25 3.75C 1.8 3.75 1.5 3.45 1.5 3L 1.5 2.25L 0 2.25L 0 3C 0 4.275 0.975 5.25 2.25 5.25L 2.325 5.25C 2.25 5.475 2.25 5.775 2.25 6L 0 6L 0 7.5L 2.25 7.5L 2.25 8.25C 0.975 8.25 0 9.225 0 10.5L 0 11.25L 1.5 11.25L 1.5 10.5C 1.5 10.05 1.8 9.75 2.25 9.75L 2.55 9.75C 3.15 11.1 4.5 12 6 12C 7.5 12 8.85 11.1 9.45 9.75L 9.75 9.75C 10.2 9.75 10.5 10.05 10.5 10.5L 10.5 11.25L 12 11.25L 12 10.5C 12 9.225 11.025 8.25 9.75 8.25L 9.75 7.5L 12 7.5L 12 6L 9.75 6C 9.75 5.775 9.75 5.475 9.675 5.25L 9.75 5.25C 11.025 5.25 12 4.275 12 3Z"/>
</defs>
</svg>
