<svg width="13" height="14" viewBox="0 0 13 14" version="1.1" xmlns="http://www.w3.org/2000/svg" xmlns:xlink="http://www.w3.org/1999/xlink">
<title>loop-82</title>
<desc>Created using Figma</desc>
<g id="Canvas" transform="translate(-13572 -293)">
<g id="loop-82">
<g id="Shape">
<use xlink:href="#path0_fill" transform="translate(13572 293)" fill="#89909E"/>
</g>
<g id="Shape">
<use xlink:href="#path1_fill" transform="translate(13572 300)" fill="#89909E"/>
</g>
</g>
</g>
<defs>
<path id="path0_fill" d="M 10.2375 4.375L 9.18125 5.5125C 8.85625 5.8625 8.85625 6.3875 9.18125 6.7375C 9.34375 6.9125 9.50625 7 9.75 7C 9.99375 7 10.1562 6.9125 10.3188 6.7375L 12.7563 4.1125C 13.0813 3.7625 13.0813 3.2375 12.7563 2.8875L 10.3188 0.2625C 9.99375 -0.0875 9.50625 -0.0875 9.18125 0.2625C 8.85625 0.6125 8.85625 1.1375 9.18125 1.4875L 10.2375 2.625L 0.8125 2.625C 0.325 2.625 0 2.67947 0 2.625L 0 4.375L 1.625 4.375L 10.2375 4.375Z"/>
<path id="path1_fill" d="M 11.375 2.625L 2.7625 2.625L 3.81875 1.4875C 4.14375 1.1375 4.14375 0.6125 3.81875 0.2625C 3.49375 -0.0875 3.00625 -0.0875 2.68125 0.2625L 0.24375 2.8875C -0.08125 3.2375 -0.08125 3.7625 0.24375 4.1125L 2.68125 6.7375C 2.84375 6.9125 3.00625 7 3.25 7C 3.49375 7 3.65625 6.9125 3.81875 6.7375C 4.14375 6.3875 4.14375 5.8625 3.81875 5.5125L 2.7625 4.375L 12.1875 4.375C 12.675 4.375 13 4.42947 13 4.375L 13 2.625L 11.375 2.625Z"/>
</defs>
</svg>
