<svg width="101" height="30" viewBox="0 0 101 30" version="1.1" xmlns="http://www.w3.org/2000/svg" xmlns:xlink="http://www.w3.org/1999/xlink">
<title>uptime-logo-white.829af48ec56d</title>
<desc>Created using Figma</desc>
<g id="Canvas" transform="translate(1002 -2280)">
<g id="uptime-logo-white.829af48ec56d">
<g id="Rectangle-path">
<use xlink:href="#path0_fill" transform="translate(-953.695 2285.13)" fill="#FFFFFF"/>
</g>
<g id="Shape">
<use xlink:href="#path1_fill" transform="translate(-946.46 2284.97)" fill="#FFFFFF"/>
</g>
<g id="Shape">
<use xlink:href="#path2_fill" transform="translate(-918.424 2284.97)" fill="#FFFFFF"/>
</g>
<g id="Shape">
<use xlink:href="#path3_fill" transform="translate(-963.796 2280.07)" fill="#FFFFFF"/>
</g>
<g id="Shape">
<use xlink:href="#path4_fill" transform="translate(-1002 2285.07)" fill="#FFFFFF"/>
</g>
<g id="Rectangle-path">
<use xlink:href="#path5_fill" transform="translate(-953.661 2280.07)" fill="#FFFFFF"/>
</g>
<g id="Shape">
<use xlink:href="#path6_fill" transform="translate(-983.698 2284.93)" fill="#FFFFFF"/>
</g>
</g>
</g>
<defs>
<path id="path0_fill" d="M 0 0L 4.7672 0L 4.7672 18.1354L 0 18.1354L 0 0Z"/>
<path id="path1_fill" d="M 23.5693 1.56684C 21.9358 0.533393 20.1689 0 18.2354 0C 17.2686 0.0333371 16.3352 0.200022 15.4351 0.433382C 14.535 0.666742 13.7682 1.10012 13.1015 1.70019C 12.3014 1.03345 11.4346 0.56673 10.4678 0.333371C 9.50107 0.100011 8.50095 0 7.50084 0C 5.60063 0.100011 3.90044 0.666742 2.3336 1.70019C 0.766753 2.73364 0 4.80054 0 7.86755L 0 18.4354L 4.60052 18.4354L 4.60052 6.93411C 4.60052 5.83399 4.90055 5.06724 5.53396 4.56718C 6.13402 4.06712 6.86744 3.83376 7.63419 3.83376C 8.43428 3.83376 9.13436 4.06712 9.76776 4.56718C 10.4012 5.06724 10.7345 5.86733 10.7345 6.93411L 10.7345 18.4354L 15.2684 18.4354L 15.2684 6.93411C 15.2684 5.83399 15.6018 5.06724 16.2352 4.56718C 16.8686 4.06712 17.602 3.83376 18.3687 3.83376C 19.1688 3.83376 19.8689 4.06712 20.5023 4.56718C 21.1357 5.06724 21.4691 5.86733 21.4691 6.93411L 21.4691 18.4354L 23.7027 18.4354L 26.0029 18.4354L 26.0029 7.86755C 26.0029 4.70053 25.2028 2.60029 23.5693 1.56684Z"/>
<path id="path2_fill" fill-rule="evenodd" d="M 8.1676 0C 10.9012 0 13.0015 0.800049 14.5016 2.40039C 15.9684 4.03369 16.7019 6.33398 16.7019 9.30103L 16.7019 9.76782L 16.7019 10.0344C 16.7019 10.2678 16.6685 10.4011 16.6352 10.5012L 4.83386 10.5012C 4.90057 11.8679 5.23395 12.9014 5.86731 13.5681C 6.46741 14.2683 7.36749 14.635 8.5343 14.635C 9.43439 14.635 10.5012 14.4016 11.2346 13.8015L 11.468 13.5681C 11.6346 13.3682 11.768 13.1348 11.8347 12.9014C 11.8492 12.8577 11.8575 12.8201 11.8649 12.7864C 11.8744 12.7429 11.8826 12.7056 11.9014 12.668L 13.0348 12.668L 16.4352 12.668C 15.9351 14.5349 14.9683 15.9685 13.5682 16.9353C 12.1347 17.9688 10.3679 18.4688 8.23425 18.4688C 5.63397 18.4688 3.63373 17.6353 2.16693 16.0017C 0.733398 14.4016 0 12.1013 0 9.13428C 0 6.26733 0.700073 4.06714 2.10022 2.46704C 3.53375 0.833496 5.56732 0 8.1676 0ZM 5.83398 4.80054C 5.20056 5.43408 4.83386 6.30078 4.80054 7.46753L 11.8013 7.46753C 11.7013 6.26758 11.3679 5.36743 10.8345 4.80054C 10.2345 4.16724 9.40106 3.86719 8.3009 3.86719C 7.30084 3.86719 6.46741 4.16724 5.83398 4.80054Z"/>
<path id="path3_fill" d="M 4.73387 4.90055L 4.70053 0L 2.46694 0L 0 0L 0 20.0689C 0 22.1692 0.866764 23.2693 2.63363 23.4026C 4.40049 23.536 6.00067 23.5693 7.50084 23.4693L 7.50084 19.9356L 6.06735 19.9356C 5.16725 19.9356 4.70053 19.5355 4.70053 18.7688L 4.70053 8.73431L 7.50084 8.73431L 7.50084 6.36738L 7.50084 5.40061L 7.50084 5.33393L 7.50084 4.93389C 7.53418 4.90055 4.73387 4.90055 4.73387 4.90055Z"/>
<path id="path4_fill" d="M 13.4348 0L 11.1346 0C 11.1346 0.100011 11.1346 0.200022 11.1346 0.266697L 11.1346 10.2678C 11.1346 12.1347 9.66775 13.6682 7.90089 13.6682C 6.13402 13.6682 4.66719 12.1347 4.66719 10.2678L 4.66719 0.266697C 4.66719 0.166685 4.66719 0.0666742 4.66719 0L 0 0L 0 6.06735L 0 10.5679L 0 10.8679C 0 14.9017 3.26703 18.1687 7.30082 18.1687L 8.50095 18.1687C 12.5347 18.1687 15.8018 14.9017 15.8018 10.8679L 15.8018 10.5679L 15.8018 8.80099L 15.8018 6.06735L 15.8018 0L 13.4348 0Z"/>
<path id="path5_fill" d="M 0 0L 4.66719 0L 4.66719 3.66708L 0 3.66708L 0 0Z"/>
<path id="path6_fill" d="M 17.1019 8.03424C 17.0352 7.06746 16.8686 6.2007 16.6019 5.36727L 18.3021 4.73387L 12.2014 0.56673L 10.3012 7.80088L 12.168 7.06746C 12.3347 7.7342 12.4347 8.50095 12.4347 9.36772C 12.4347 10.9679 12.1014 12.2347 11.4013 13.1681C 10.7345 14.1016 9.8011 14.5683 8.60097 14.5683C 7.33416 14.5683 6.33404 14.1016 5.6673 13.1681C 5.00056 12.3347 4.63385 11.0679 4.63385 9.36772C 4.63385 7.53418 4.96723 6.2007 5.60063 5.36727C 6.26737 4.43383 7.23415 3.96711 8.46762 3.96711C 8.86766 3.96711 9.23437 4.03379 9.60108 4.10046L 10.6012 0.166685C 10.0345 0.0666742 9.43439 0 8.86766 0C 6.70075 0 4.66719 0.56673 2.80031 1.70019C 0.933438 2.83365 0 4.96722 0 8.06757L 0 20.6357L 0 24.7361L 2.3336 24.7361L 4.66719 24.7361L 4.66719 20.7023L 4.66719 15.8684C 5.20058 16.8019 5.934 17.502 6.8341 17.9353C 7.70087 18.3354 8.70098 18.5354 9.83444 18.5354C 11.968 18.5354 13.7349 17.702 15.1017 16.0018C 16.2685 14.5016 16.9352 12.6014 17.1019 10.3345C 17.1019 10.1345 17.1353 9.90111 17.1353 9.70109C 17.1353 9.5344 17.1353 8.96767 17.1353 8.83433C 17.1353 8.56763 17.1353 8.30093 17.1019 8.03424Z"/>
</defs>
</svg>
