<?xml version="1.0" encoding="UTF-8"?>
<svg width="180px" height="90px" viewBox="0 0 180 90" version="1.1" xmlns="http://www.w3.org/2000/svg" xmlns:xlink="http://www.w3.org/1999/xlink">
    <!-- Generator: Sketch 50.2 (55047) - http://www.bohemiancoding.com/sketch -->
    <title>Logos</title>
    <desc>Created with Sketch.</desc>
    <defs>
        <polygon id="path-1" points="0.665658893 0 157.376407 0 157.376407 25.9819979 0.665658893 25.9819979"></polygon>
        <polygon id="path-3" points="0.665658893 0 157.376407 0 157.376407 25.9819979 0.665658893 25.9819979"></polygon>
        <linearGradient x1="12.9171776%" y1="56.7749414%" x2="99.6841138%" y2="20.1786715%" id="linearGradient-5">
            <stop stop-color="#2B7A77" offset="0%"></stop>
            <stop stop-color="#4EBAA9" offset="51.048726%"></stop>
            <stop stop-color="#5CC2B1" offset="100%"></stop>
        </linearGradient>
        <linearGradient x1="73.5628048%" y1="10.3816293%" x2="18.5781462%" y2="100.102528%" id="linearGradient-6">
            <stop stop-color="#236736" offset="0%"></stop>
            <stop stop-color="#6BA443" offset="49.279997%"></stop>
            <stop stop-color="#86C146" offset="100%"></stop>
        </linearGradient>
        <linearGradient x1="28.0890158%" y1="0.30973165%" x2="81.5840713%" y2="99.6597275%" id="linearGradient-7">
            <stop stop-color="#29A5E3" offset="0%"></stop>
            <stop stop-color="#356EB9" offset="51.549304%"></stop>
            <stop stop-color="#394DA5" offset="100%"></stop>
        </linearGradient>
    </defs>
    <g id="Logos" stroke="none" stroke-width="1" fill="none" fill-rule="evenodd">
        <g id="autodesk" transform="translate(10.000000, 31.000000)">
            <g id="g4585" transform="translate(79.999483, 14.065904) scale(-1, 1) rotate(-180.000000) translate(-79.999483, -14.065904) translate(0.099943, 0.067286)">
                <g id="g4558" transform="translate(0.028922, 0.006310)">
                    <g id="g3623" transform="translate(0.380357, 0.570564)">
                        <g id="g3625-Clipped">
                            <mask id="mask-2" fill="white">
                                <use xlink:href="#path-1"></use>
                            </mask>
                            <g id="path3629"></g>
                            <g id="g3625" mask="url(#mask-2)">
                                <g transform="translate(154.432863, 5.325271)">
                                    <g id="g3631" transform="translate(0.076018, 0.032884)">
                                        <path d="M2.66263557,2.66263557 C2.66263557,1.98233218 2.17137931,1.49107592 1.50572042,1.49107592 C0.842724159,1.49107592 0.34880526,1.98233218 0.34880526,2.66263557 C0.34880526,3.34293896 0.842724159,3.83552654 1.50572042,3.83552654 C2.17137931,3.83552654 2.66263557,3.34293896 2.66263557,2.66263557 M2.86632719,2.66263557 C2.86632719,3.41483012 2.25791497,4.02457367 1.50572042,4.02457367 C0.75751982,4.02457367 0.146444956,3.41483012 0.146444956,2.66263557 C0.146444956,1.91044102 0.75751982,1.30202879 1.50572042,1.30202879 C2.25791497,1.30202879 2.86632719,1.91044102 2.86632719,2.66263557" id="path3633" fill="#231F20" fill-rule="nonzero"></path>
                                    </g>
                                    <g id="g3635" transform="translate(0.501374, 1.681854)">
                                        <path d="M1.33131779,1.33131779 C1.33131779,1.1302888 1.16490306,1.10898772 1.00381361,1.10898772 L0.861362608,1.10898772 L0.861362608,1.55497917 L1.07171082,1.55497917 C1.26208926,1.55497917 1.33131779,1.46311825 1.33131779,1.33131779 Z M1.6694725,0.319516269 L1.34063701,0.78148354 C1.28205903,0.864025243 1.24078818,0.91994059 1.17688492,0.96786803 C1.41385949,0.99848834 1.55098522,1.12762616 1.55098522,1.33131779 C1.55098522,1.54033468 1.40454026,1.7293818 1.11963826,1.7293818 L0.659002304,1.7293818 L0.659002304,0.319516269 L0.861362608,0.319516269 L0.861362608,0.950560899 C0.971861984,0.950560899 1.01446415,0.915946637 1.08236136,0.813435167 L1.42317871,0.319516269 L1.6694725,0.319516269 Z" id="path3637" fill="#231F20" fill-rule="nonzero"></path>
                                    </g>
                                </g>
                            </g>
                        </g>
                    </g>
                    <g id="g3719" transform="translate(33.358564, 5.903690)" fill="#0E0D0F" fill-rule="nonzero">
                        <path d="M7.98790672,13.3131779 L5.41047548,7.29562147 L10.5879704,7.29562147 L7.98790672,13.3131779 Z M15.8719706,1.3246612 L13.0801972,1.3246612 L11.5545071,4.95383348 L4.44260745,4.95383348 L2.89561618,1.3246612 L0.189047126,1.3246612 L6.80702784,16.4710636 L9.25398993,16.4710636 L15.8719706,1.3246612 Z" id="path3721"></path>
                    </g>
                    <g id="g3723" transform="translate(65.626112, 7.227952)" fill="#0E0D0F" fill-rule="nonzero">
                        <polygon id="path3725" points="7.98790672 0 5.32260851 0 5.32260851 12.5902723 0.552496881 12.5902723 0.552496881 15.039897 12.9710292 15.039897 11.9472458 12.5902723 7.98790672 12.5902723"></polygon>
                    </g>
                    <g id="g3727" transform="translate(112.226362, 6.505313)" fill="#0E0D0F" fill-rule="nonzero">
                        <polygon id="path3729" points="11.9818601 13.3131779 3.92738747 13.3131779 3.92738747 9.48830186 9.08624389 9.48830186 9.08624389 7.12255016 3.92738747 7.12255016 3.92738747 3.12593416 11.985854 3.12593416 11.985854 0.722905558 1.26741453 0.722905558 1.26741453 15.7628026 11.9818601 15.7628026"></polygon>
                    </g>
                    <polygon id="path3731" fill="#0E0D0F" fill-rule="nonzero" points="143.092299 7.22715313 140.572114 7.22715313 140.572114 22.2670502 143.092299 22.2670502"></polygon>
                    <g id="g3733" transform="translate(0.380357, 0.570564)">
                        <g id="g3735-Clipped">
                            <mask id="mask-4" fill="white">
                                <use xlink:href="#path-3"></use>
                            </mask>
                            <g id="path3739"></g>
                            <g id="g3735" mask="url(#mask-4)">
                                <g transform="translate(49.258758, 5.325271)">
                                    <g id="g3741" transform="translate(76.080951, 0.888388)">
                                        <path d="M6.65658893,13.3131779 C5.12024821,13.3131779 3.81422546,12.848548 3.80756887,11.8287585 C3.79958096,10.6345665 4.54911287,10.2205266 7.37816317,9.30058605 C10.5040973,8.27280872 12.1642506,7.22772426 12.1469435,4.68490729 C12.1309677,1.8185801 9.91565487,0.183721854 6.68055265,0.183721854 C4.39068606,0.183721854 2.33779403,0.926597179 0.772164316,2.30317977 L1.74668894,4.66227489 C3.16720501,3.47207679 4.88859891,2.62802131 6.74844986,2.6200334 C8.37665151,2.6120455 9.53489798,3.40417958 9.53489798,4.57707055 C9.53489798,5.55825176 8.96775661,6.21059747 6.22391065,7.07994799 C3.0766754,8.11171927 1.17555361,9.18742404 1.19152942,11.7502108 C1.21016787,14.2996843 3.60121461,15.7494894 6.60733017,15.7348449 C9.61477705,15.7202004 11.3082133,14.6205319 11.5651576,14.4714243 L10.619922,12.3266714 C10.0061845,12.6581695 8.6602222,13.3131779 6.65658893,13.3131779" id="path3743" fill="#0E0D0F" fill-rule="nonzero"></path>
                                    </g>
                                    <g id="g3745" transform="translate(92.707512, 1.103396)">
                                        <polygon id="path3747" fill="#0E0D0F" fill-rule="nonzero" points="3.99395336 7.98790672 10.7264274 15.2688837 7.50064441 15.2688837 0.74553796 7.98790672 8.16896594 0.226324024 11.4386824 0.226324024"></polygon>
                                    </g>
                                    <g id="g3749" transform="translate(29.116453, 0.836866)">
                                        <path d="M7.98790672,2.66263557 C5.03238123,2.66263557 2.8743151,5.05767627 2.8743151,8.01320175 C2.8743151,10.9687272 5.03238123,13.3650993 7.98790672,13.3650993 C10.9434322,13.3650993 13.1028297,10.9687272 13.1028297,8.01320175 C13.1028297,5.05767627 10.9434322,2.66263557 7.98790672,2.66263557 M7.98790672,15.7934229 C3.69174422,15.7934229 0.21034821,12.3093642 0.21034821,8.01320175 C0.21034821,3.71703926 3.69174422,0.235643248 7.98790672,0.235643248 C12.2827379,0.235643248 15.7667965,3.71703926 15.7667965,8.01320175 C15.7667965,12.3093642 12.2827379,15.7934229 7.98790672,15.7934229" id="path3751" fill="#0E0D0F" fill-rule="nonzero"></path>
                                    </g>
                                    <g id="g3753" transform="translate(46.715675, 1.075439)">
                                        <path d="M6.65658893,2.66263557 L3.61852174,2.65997294 L3.61852174,12.844554 L6.66857079,12.844554 C9.62276496,12.844554 11.7701805,10.7503911 11.7701805,7.79619696 C11.7701805,4.84200279 9.60945178,2.66263557 6.65658893,2.66263557 M6.65658893,15.29551 L0.950560899,15.29551 L0.950560899,0.255613015 L6.65658893,0.256944333 C10.9500888,0.256944333 14.4328161,3.50136578 14.4328161,7.79619696 C14.4328161,12.0923595 10.9500888,15.29551 6.65658893,15.29551" id="path3755" fill="#0E0D0F" fill-rule="nonzero"></path>
                                    </g>
                                    <g id="g3757" transform="translate(0.321513, 0.007722)">
                                        <path d="M13.3131779,7.98790672 C13.3131779,3.50402841 10.6824939,1.08635531 6.86693714,1.08635531 C3.05271168,1.08635531 0.422027738,3.50402841 0.422027738,7.98790672 L0.422027738,16.3632269 L3.08599463,16.3632269 L3.08599463,7.67105308 C3.08599463,5.04036914 4.63032326,3.49604051 6.86693714,3.49604051 C9.10621366,3.49604051 10.6505423,5.04036914 10.6505423,7.67105308 L10.6505423,16.3632269 L13.3131779,16.3632269 L13.3131779,7.98790672 Z" id="path3759" fill="#0E0D0F" fill-rule="nonzero"></path>
                                    </g>
                                </g>
                            </g>
                        </g>
                    </g>
                </g>
                <path d="M6.33838599,8.65403501 C5.59773042,8.65403501 5.21283984,8.37465466 4.84336009,7.72566988 L1.46837186,1.46934695 C1.23579279,1.02099343 1.23208556,0.87166429 1.23208556,0.548621344 L6.53632461,0.782447707 L7.75033384,1.99645694 L18.3899653,1.99645694 L9.55579173,7.46903651 C9.12519193,7.72370018 7.48747792,8.65403501 6.33838599,8.65403501 Z" id="path4460" fill="url(#linearGradient-5)" fill-rule="nonzero" transform="translate(9.811025, 4.601328) scale(-1, 1) rotate(-180.000000) translate(-9.811025, -4.601328) "></path>
                <path d="M7.75520543,26.5438759 L3.16710797,26.5438759 C1.78134398,26.5438759 1.23208556,25.8190676 1.23208556,25.0960403 C1.23208556,24.6385282 1.37930477,24.3890305 1.58285511,23.8805579 L8.2691651,7.91868261 L8.34101863,7.77861568 L8.4335796,7.63490264 L8.62600879,7.44734503 L8.90856303,7.29632446 L9.31777963,7.20619942 L10.0217296,7.22446821 L14.6680422,8.95145964 L13.0969437,13.9059033 L7.75520543,26.5438759 Z" id="path4458" fill="url(#linearGradient-6)" fill-rule="nonzero" transform="translate(7.950064, 16.875038) scale(-1, 1) rotate(-180.000000) translate(-7.950064, -16.875038) "></path>
                <path d="M21.2272004,26.5757849 L10.6733096,1.59116255 C10.4915263,1.16573743 10.2000727,0.616837478 9.44565981,0.616837478 C8.77160369,0.616837478 8.45049934,0.943219086 8.2691651,1.29400119 C8.36292972,1.04103358 8.64667014,0.54960892 9.46904354,0.54960892 L16.7530989,0.54960892 C17.4243642,0.54960892 17.7463822,0.944855679 17.8931327,1.30673355 L28.565818,26.5757849 L21.2272004,26.5757849 Z" id="path4456" fill="url(#linearGradient-7)" transform="translate(18.417492, 13.562697) scale(-1, 1) rotate(-180.000000) translate(-18.417492, -13.562697) "></path>
            </g>
        </g>
    </g>
</svg>