<?xml version="1.0" encoding="utf-8"?>
<!-- Generator: Adobe Illustrator 16.0.0, SVG Export Plug-In . SVG Version: 6.00 Build 0)  -->
<!DOCTYPE svg PUBLIC "-//W3C//DTD SVG 1.1//EN" "http://www.w3.org/Graphics/SVG/1.1/DTD/svg11.dtd">
<svg version="1.1" id="Layer_1" xmlns="http://www.w3.org/2000/svg" xmlns:xlink="http://www.w3.org/1999/xlink" x="0px" y="0px"
	 width="160px" height="80px" viewBox="0 15.75 160 80" enable-background="new 0 15.75 160 80" xml:space="preserve">
<title>Logos</title>
<desc>Created with Sketch.</desc>
<g id="Logos">
	<g id="bnp-paribas" transform="translate(10.000000, 27.000000)">
		
			<g id="g11" transform="translate(79.787654, 18.219753) scale(-1, 1) rotate(-180.000000) translate(-79.787654, -18.219753) translate(0.116872, 0.112757)">
			<g id="g39" transform="translate(0.574375, 0.231858)">
				<g id="g41">
					<g id="g47">
						<g id="g49">
							
								<linearGradient id="path59_1_" gradientUnits="userSpaceOnUse" x1="137.964" y1="11.7091" x2="137.964" y2="10.6356" gradientTransform="matrix(34.9992 0 0 34.4173 -4820.6704 -377.5324)">
								<stop  offset="0" style="stop-color:#007348"/>
								<stop  offset="0.6" style="stop-color:#8DC9AB"/>
								<stop  offset="1" style="stop-color:#00925B"/>
							</linearGradient>
							<polygon id="path59" fill="url(#path59_1_)" points="-9.548,-9.864 25.451,-9.864 25.451,24.554 -9.548,24.554 							"/>
						</g>
					</g>
				</g>
			</g>
			<g id="g61" transform="translate(0.574375, 1.054904)">
				<g id="g63">
					<g id="g69">
						<g id="g71">
							
								<linearGradient id="path85_1_" gradientUnits="userSpaceOnUse" x1="138.4484" y1="9.516" x2="138.4484" y2="8.2672" gradientTransform="matrix(33.6226 0 0 33.2477 -4647.0908 -283.986)">
								<stop  offset="0" style="stop-color:#00925B"/>
								<stop  offset="0.3" style="stop-color:#8DC9AB"/>
								<stop  offset="0.55" style="stop-color:#00925B"/>
								<stop  offset="0.8352" style="stop-color:#007348"/>
								<stop  offset="1" style="stop-color:#009C6D"/>
							</linearGradient>
							<path id="path85" fill="url(#path85_1_)" d="M-6.814,23.116c-0.679,0-1.123-0.574-1.228-1.377c0,0-0.874-4.594-0.874-14.35
								c0-9.762,0.874-16.146,0.874-16.146c0.081-0.771,0.549-1.375,1.228-1.375H23.48c0.676,0,1.215,0.537,1.226,1.375
								c0,0-0.336,7.479-0.336,14.785s0.336,15.711,0.336,15.711c0.017,0.748-0.55,1.377-1.226,1.377H-6.814z"/>
						</g>
					</g>
				</g>
			</g>
			<g id="g87" transform="translate(17.035280, 19.161900)">
				<g id="g89">
					<g id="g95">
						<g id="g97">
							
								<linearGradient id="path105_1_" gradientUnits="userSpaceOnUse" x1="122.967" y1="-72.216" x2="122.967" y2="-69.9338" gradientTransform="matrix(13.9267 0 0 11.772 -1714.4365 825.2271)">
								<stop  offset="0" style="stop-color:#00A678"/>
								<stop  offset="1" style="stop-color:#00925B"/>
							</linearGradient>
							<path id="path105" fill="url(#path105_1_)" d="M-6.262,1.497c0.956-0.4,4.796-2.479,5.267-3.141
								C-2.928-1.9-6.718-2.886-8.759-3.88l-0.12-0.24c2.251,0.496,5.398,0.756,7.567,0.873c-0.81-1.188-1.347-1.756-2.579-3.1
								l-0.113-0.262c2.348,1.412,3.009,1.512,5.173,2.781c0.817-1.209,1.014-3.996,1.045-6.205c0.705,1.4,1.56,6.678,1.204,7.633
								c1.436,0.984,1.629,1.777,1.629,1.777C3.731-0.736,3.005-0.759,2.296-0.982C0.615,0.05-3.241,1.411-6.151,1.739L-6.262,1.497
								z"/>
						</g>
					</g>
				</g>
			</g>
			<g id="g107" transform="translate(3.866556, 4.347085)">
				<g id="g109">
					<g id="g115">
						<g id="g117">
							
								<linearGradient id="path125_1_" gradientUnits="userSpaceOnUse" x1="170.7314" y1="-55.1395" x2="170.7314" y2="-52.3842" gradientTransform="matrix(8.0979 0 0 9.7539 -1387.9844 527.7338)">
								<stop  offset="0" style="stop-color:#00A678"/>
								<stop  offset="1" style="stop-color:#00925B"/>
							</linearGradient>
							<path id="path125" fill="url(#path125_1_)" d="M-7.431-0.089C-7.62-1.847-7.697-3.104-7.446-4.511
								c-0.712-0.197-1.335-0.225-1.909-0.469l-0.109-0.242c0.912-0.563,1.656-0.994,2.688-1.475c0.552-1.188,1.123-1.986,2.048-2.9
								l0.112,0.244c-0.166,0.674-0.381,1.232-0.3,1.969c1.147-0.334,2.132-0.512,3.439-0.551l0.11,0.242
								c-1.149,0.447-2.298,0.799-3.228,1.678c0.292,0.813,0.627,1.449,1.173,2.258l0.116,0.246c-0.988-0.15-1.883-0.51-2.738-0.676
								c-0.673,1.184-0.935,2.801-1.274,4.344L-7.431-0.089z"/>
						</g>
					</g>
				</g>
			</g>
			<g id="g127" transform="translate(6.335691, 15.046673)">
				<g id="g129">
					<g id="g135">
						<g id="g137">
							
								<linearGradient id="path145_1_" gradientUnits="userSpaceOnUse" x1="144.651" y1="-89.8977" x2="144.651" y2="-86.7299" gradientTransform="matrix(13.7942 0 0 8.4782 -1998.0458 741.3788)">
								<stop  offset="0" style="stop-color:#00A678"/>
								<stop  offset="1" style="stop-color:#00925B"/>
							</linearGradient>
							<path id="path145" fill="url(#path145_1_)" d="M-4.04-2.765c0,0-0.739,0.072-1.962,0.035
								C-7.035-2.779-8.577-2.87-9.327-3.091l-0.109-0.24c1.192-0.051,2.825-0.371,3.449-1c0,0-1.809-1.631-3.603-5.203
								c0,0,3.251,3.051,4.66,3.807c0,0,0.737-2.457,1.25-3.688l0.113,0.246c0.141,0.791,0.495,2.936,1.094,4.246
								c0,0,0.212,0.129,1.252,0.23c1.042,0.092,2.515,0.146,5.313-0.344l0.114,0.24C3.567-4.419,1.021-3.327-1.673-2.964h0.087
								c0.37,1.088,0.832,1.908,0.832,1.908C-1.325-1.136-2.951-1.898-4.04-2.765"/>
						</g>
					</g>
				</g>
			</g>
			<g id="g147" transform="translate(13.743099, 3.524039)">
				<g id="g149">
					<g id="g155">
						<g id="g157">
							
								<linearGradient id="path165_1_" gradientUnits="userSpaceOnUse" x1="154.5941" y1="-129.3555" x2="154.5941" y2="-124.0059" gradientTransform="matrix(7.5638 0 0 5.0123 -1174.9301 639.1083)">
								<stop  offset="0" style="stop-color:#00A678"/>
								<stop  offset="1" style="stop-color:#00925B"/>
							</linearGradient>
							<path id="path165" fill="url(#path165_1_)" d="M-4.637-6.311c-0.041,0.477-0.071,0.883-0.095,1.418
								C-5.297-5.66-5.78-6.262-6.404-6.963c-0.659-0.184-1.413-0.176-2.101-0.168C-8.776-7.129-9.039-7.125-9.28-7.133
								l-0.111-0.244c0.64-0.33,1.268-0.533,1.938-0.67c-0.544-0.494-1.27-0.871-1.78-1.215l-0.112-0.24
								c1.093,0.258,2.533,0.723,3.605,1.355c0.558-0.025,1.079,0.012,1.462,0.088c0,0,0.114,0.248,0.114,0.242
								c-0.07,0.248-0.29,0.396-0.354,0.742c1.005,0.781,1.733,1.492,2.574,2.338l0.117,0.244C-2.658-5.063-3.666-5.852-4.637-6.311
								"/>
						</g>
					</g>
				</g>
			</g>
			<g id="g167" transform="translate(2.714292, 3.524039)">
				<g id="g169-Clipped" transform="translate(-0.000000, 0.000000)">
					<g id="g169" transform="translate(0.329218, 0.000000)">
						<g id="g175" transform="translate(14.168724, 15.762963)">
							<path id="path177" fill="#FFFFFF" d="M1.104-3.706c-2.16-1.271-2.821-1.377-5.17-2.783c1.367,1.484,1.843,2.117,2.689,3.357
								c-2.165-0.113-5.312-0.375-7.559-0.873C-6.98-2.962-3.103-1.8-1.056-1.523c-0.475,0.654-4.316,2.736-5.271,3.137
								c3.041-0.236,6.758-1.373,8.56-2.475c0.709,0.221,1.446,0.23,2.766,0.35c-0.336-0.578-0.351-0.912-1.645-1.77
								C3.712-3.24,2.856-8.515,2.148-9.911C2.122-7.704,1.929-4.917,1.104-3.706"/>
						</g>
						<g id="g179" transform="translate(0.821975, 0.954486)">
							<path id="path181" fill="#FFFFFF" d="M-1.365-7.822C-2.606-7.363-3.5-6.826-4.485-5.906c0.295,0.813,0.631,1.447,1.18,2.264
								c-1.009-0.15-1.753-0.266-2.622-0.43c-0.708,1.238-1.029,2.434-1.39,4.098C-7.51-1.738-7.583-2.996-7.334-4.4
								c-0.798-0.221-1.363-0.416-2.02-0.711c0.92-0.564,1.664-0.996,2.691-1.477c0.552-1.184,1.122-1.984,2.049-2.896
								C-4.831-8.706-4.889-8.087-4.8-7.273C-3.652-7.607-2.669-7.783-1.365-7.822"/>
						</g>
						<g id="g183" transform="translate(3.230370, 11.913992)">
							<path id="path185" fill="#FFFFFF" d="M-0.542-1.238C-0.929-1.74-1.378-2.676-1.499-3.109C1.7-3.545,4.267-5.187,4.267-5.187
								C1.47-4.691-0.004-4.752-1.048-4.846c-1.037-0.098-1.25-0.221-1.25-0.221c-0.755-1.652-1.207-4.492-1.207-4.492
								C-4.014-8.332-4.75-5.873-4.75-5.873c-1.412-0.756-4.658-3.811-4.658-3.811C-7.623-6.107-5.811-4.48-5.811-4.48
								C-6.435-3.85-8.069-3.535-9.265-3.482c0.621,0.254,2.213,0.551,3.436,0.605c1.225,0.035,1.965-0.035,1.965-0.035
								C-2.771-2.049-1.114-1.322-0.542-1.238"/>
						</g>
						<g id="g187" transform="translate(10.739012, 0.701728)">
							<path id="path189" fill="#FFFFFF" d="M-4.658-5.352c-0.564-0.768-1.05-1.369-1.676-2.068C-7.411-7.723-8.27-7.835-9.32-7.835
								c0.645-0.334,1.269-0.533,1.941-0.674c-0.672-0.607-1.24-1.041-1.893-1.457c1.094,0.26,2.532,0.725,3.603,1.357
								c0.56-0.021,1.083,0.016,1.466,0.09C-4.304-8.194-4.365-7.952-4.446-7.53c1.008,0.781,1.74,1.488,2.579,2.338
								C-2.76-5.815-3.53-6.28-4.564-6.768C-4.608-6.294-4.634-5.889-4.658-5.352"/>
						</g>
					</g>
				</g>
			</g>
			<g id="g247" transform="translate(44.195774, 10.766838)">
				<g id="g249-Clipped">
					<g id="g249" transform="translate(0.000000, 0.164609)">
						<g id="g353" transform="translate(0.077449, 1.077202)">
							<path id="path355" d="M-5.481-0.414c2.143-0.018,2.927-0.453,2.927-1.619c0-0.322-0.099-0.607-0.288-0.826
								c-0.411-0.492-1.21-0.748-2.229-0.686h-0.053l-0.598-1.559h0.598c1.183,0.033,2.211-0.34,2.739-0.984
								c0.244-0.293,0.367-0.648,0.367-1.008c0-1.221-1.074-1.85-3.192-1.85c-0.356,0-0.937,0-1.297,0.012
								c-0.062,1.627-0.089,3.83-0.089,4.494c0,0.768,0.05,2.48,0.088,3.943C-6.263-0.448-5.858-0.414-5.481-0.414z M-9.449,0.707
								c0.066-1.156,0.133-4.08,0.133-5.146c0-0.982-0.001-4.271-0.173-5.689l-0.01-0.111h5.138c2.526,0,5.197,0.785,5.197,3.029
								c0,1.402-1.017,2.441-2.918,3.01c1.411,0.377,2.35,1.342,2.35,2.443c0,1.83-2.103,2.52-4.08,2.568h-5.666L-9.449,0.707z"/>
						</g>
						<g id="g357" transform="translate(12.492428, 0.656132)">
							<path id="path359" d="M0.281,1.231h-2.5l0.101-2.787c0.048-1.377,0.095-2.793,0.192-4.168
								c-0.162,0.432-0.312,0.652-1.072,1.758C-3-3.927-5.6,0.071-6.502,1.206l-0.025,0.025h-2.902V1.128
								C-9.337-0.028-9.3-2.954-9.3-4.019c0-0.982,0-4.271-0.139-5.689l-0.025-0.111h2.586v0.111
								c-0.147,2.697-0.147,5.42-0.147,8.061c0.089-0.32,0.204-0.596,0.611-1.199C-6.38-2.919-1.926-9.401-1.71-9.773l0.022-0.047
								h2.072L0.381-9.708C0.223-8.29,0.21-5.001,0.21-4.019c0,1.064,0.071,3.99,0.138,5.145l0.033,0.105H0.281L0.281,1.231z"/>
						</g>
						<g id="g361" transform="translate(25.035309, 0.968642)">
							<path id="path363" d="M-5.481-0.415C-4.04-0.39-3.034-0.681-2.555-1.286c0.219-0.26,0.34-0.604,0.34-0.996
								c0-1.6-1.8-1.945-3.304-1.945l-0.61,0.035c0,0-0.145,0.014-0.252,0.023c-0.01,0.371-0.01,0.857-0.01,1.404
								c0,0.695,0,1.521,0.032,2.287C-6.147-0.452-5.826-0.415-5.481-0.415z M-9.273,0.815c0.101-1.158,0.14-4.08,0.14-5.146
								c0-0.982,0-4.271-0.152-5.689v-0.111h3.075l-0.012,0.111c-0.104,1.02-0.158,2.967-0.17,4.453
								C-6.247-5.575-5.81-5.597-5.81-5.597l0.435-0.01c4.045,0,6.014,1.07,6.014,3.324c0,2.564-2.76,3.152-5.063,3.199h-4.85
								L-9.273,0.815L-9.273,0.815z"/>
						</g>
						<g id="g365" transform="translate(40.812428, 0.968642)">
							<path id="path367" d="M-5.481-0.415c1.443,0.025,2.449-0.266,2.934-0.871c0.223-0.26,0.332-0.604,0.332-0.996
								c0-1.6-1.795-1.945-3.279-1.945l-0.611,0.035c0,0-0.16,0.014-0.256,0.023C-6.377-3.798-6.377-3.31-6.377-2.765
								c0,0.701,0,1.52,0.027,2.285C-6.156-0.452-5.822-0.415-5.481-0.415z M-9.268,0.815c0.098-1.156,0.154-4.08,0.154-5.146
								c0-0.982-0.01-4.271-0.17-5.689v-0.111h3.078l-0.018,0.111C-6.32-8.999-6.377-7.054-6.377-5.566
								c0.145-0.008,0.555-0.031,0.555-0.031l0.445-0.008c4.045,0,6.029,1.07,6.029,3.324c0,2.563-2.775,3.15-5.086,3.199h-4.834
								V0.815z"/>
						</g>
						<g id="g369" transform="translate(50.162140, 0.693827)">
							<path id="path371" d="M-3.834-2.062c0.244-0.525,0.879-1.994,1.594-3.75C-2.35-5.814-2.488-5.814-2.488-5.814l-1.346-0.02
								c0,0-1.393,0.02-1.625,0.021C-4.879-4.408-4.303-3.14-3.834-2.062z M-4.582,1.194h-0.041l-0.021-0.055
								C-5.217-0.435-8.906-8.486-9.492-9.718l-0.047-0.139h2.619l0.021,0.061c0.23,0.758,0.539,1.611,0.877,2.523
								c0.105,0,2.188,0.031,2.188,0.031l1.809-0.012c0,0,0.293-0.02,0.379-0.02c0.467-1.188,0.824-2.082,0.98-2.537l0.029-0.047
								h3.035L-2.504,1.194h-0.063H-4.582z"/>
						</g>
						<g id="g373" transform="translate(62.568066, 0.552428)">
							<path id="path375" d="M-8.773,1.232c0.088-1.156,0.133-4.08,0.133-5.146c0-0.98,0-4.27-0.168-5.688v-0.113h3.096
								l-0.014,0.111C-5.89-8.177-5.902-4.897-5.902-3.915c0,0.768,0.023,2.48,0.102,3.863c0.234,0.018,0.592,0.053,0.834,0.053
								c1.434,0.027,2.443-0.268,2.916-0.869c0.229-0.262,0.33-0.611,0.33-0.998c0-1.275-1.189-1.922-2.301-1.98
								c-0.373-0.016-0.65,0.033-0.65,0.033l-0.215,0.035l0.119-0.201c1.098-1.604,2.74-4.377,3.42-5.689l0.02-0.047h3.307
								L1.897-9.569C1.762-9.382-0.392-6.214-1.306-4.858c0,0-0.041,0.037-0.08,0.08c1.695,0.512,2.514,1.457,2.514,2.912
								c0,2.545-2.76,3.15-5.092,3.201h-4.816L-8.773,1.232z"/>
						</g>
						<g id="g377" transform="translate(75.224774, 0.656132)">
							<path id="path379" d="M-6.303,1.231H-9.25l0.016-0.104c0.076-1.156,0.137-4.082,0.137-5.146c0-0.979-0.014-4.26-0.152-5.689
								l-0.012-0.111h3.055l-0.016,0.111c-0.117,1.43-0.154,4.711-0.154,5.689c0,1.064,0.074,3.99,0.152,5.145v0.105H-6.303
								L-6.303,1.231z"/>
						</g>
						<g id="g381" transform="translate(81.249630, 1.077202)">
							<path id="path383" d="M-5.48-0.414c2.158-0.018,2.941-0.453,2.941-1.619c0-0.322-0.1-0.607-0.295-0.826
								c-0.391-0.492-1.221-0.748-2.23-0.686h-0.051l-0.594-1.559h0.594c1.188,0.033,2.205-0.34,2.732-0.984
								c0.258-0.293,0.381-0.646,0.381-1.008c0-1.221-1.078-1.85-3.209-1.85c-0.342,0-0.918,0-1.277,0.012
								c-0.09,1.627-0.09,3.83-0.09,4.494c0,0.768,0.027,2.48,0.09,3.943C-6.256-0.448-5.851-0.414-5.48-0.414z M-9.447,0.707
								c0.088-1.156,0.143-4.08,0.143-5.146c0-0.982,0-4.271-0.154-5.689l-0.025-0.111h5.146c2.516,0,5.195,0.785,5.195,3.029
								c0,1.402-1.02,2.441-2.938,3.01c1.414,0.379,2.365,1.342,2.365,2.443c0,1.83-2.107,2.52-4.066,2.568h-5.68L-9.447,0.707z"/>
						</g>
						<g id="g385" transform="translate(92.236872, 0.699835)">
							<path id="path387" d="M-3.835-2.06c0.248-0.516,0.879-1.986,1.594-3.744c-0.109,0-0.242-0.012-0.242-0.012l-1.352-0.018
								c0,0-1.408,0.029-1.617,0.029C-4.88-4.392-4.319-3.135-3.835-2.06z M-2.563,1.188h-2.068l-0.014-0.049
								C-5.262-0.535-9.161-9.012-9.487-9.715l-0.059-0.148h2.633l0.018,0.066c0.219,0.756,0.523,1.607,0.867,2.537
								c0.084,0,2.178,0.033,2.178,0.033l1.813-0.029c0,0,0.314-0.004,0.385-0.004c0.477-1.189,0.83-2.092,0.982-2.537l0.029-0.066
								h3.047L-2.497,1.188H-2.563z"/>
						</g>
						<g id="g389" transform="translate(105.100000, 0.267572)">
							<path id="path391" d="M-9.596-1.238c0-1.941,1.943-2.723,3.666-3.438c1.342-0.533,2.744-1.096,2.744-2.021
								c0-0.279-0.055-0.516-0.211-0.682c-0.322-0.379-0.977-0.539-2.012-0.482C-6.434-7.82-7.592-7.495-8.895-6.896l-0.51,0.246
								v-0.43v-1.979l0.348-0.088l0.203-0.035c0.643-0.16,1.885-0.451,3.117-0.451c3.246,0,5.182,1.293,5.182,3.434
								c0,2.01-1.998,2.793-3.766,3.496c-1.301,0.527-2.648,1.049-2.648,1.91c0,0.25,0,0.975,1.682,0.975
								c1.238,0,2.441-0.504,3.127-0.766l0.623-0.262l-0.004,0.416v2.002l-0.619,0.111C-2.792,1.811-3.844,2.02-4.926,2.02
								C-7.727,2.02-9.596,0.698-9.596-1.238"/>
						</g>
					</g>
				</g>
			</g>
		</g>
	</g>
</g>
</svg>
