<?xml version="1.0" encoding="UTF-8"?>
<svg width="180px" height="90px" viewBox="0 0 180 90" version="1.1" xmlns="http://www.w3.org/2000/svg" xmlns:xlink="http://www.w3.org/1999/xlink">
    <!-- Generator: Sketch 50.2 (55047) - http://www.bohemiancoding.com/sketch -->
    <title>Logos</title>
    <desc>Created with Sketch.</desc>
    <defs>
        <polygon id="path-1" points="0.509693033 0.661053272 85.8230196 0.661053272 85.8230196 49.420387 0.509693033 49.420387"></polygon>
    </defs>
    <g id="Logos" stroke="none" stroke-width="1" fill="none" fill-rule="evenodd">
        <g id="cisco" transform="translate(47.000000, 20.000000)">
            <polygon id="path268" fill="#C4122E" fill-rule="nonzero" points="28.3431271 44.0818476 24.8526696 44.0818476 24.8526696 30.2052285 28.3431271 30.2052285"></polygon>
            <g id="g270" transform="translate(43.224833, 24.975657) scale(-1, 1) rotate(-180.000000) translate(-43.224833, -24.975657) translate(0.105466, 0.019787)">
                <g id="g272-Clipped">
                    <mask id="mask-2" fill="white">
                        <use xlink:href="#path-1"></use>
                    </mask>
                    <g id="path276"></g>
                    <g id="g272" mask="url(#mask-2)">
                        <g transform="translate(1.105625, 4.436599)">
                            <g id="g278" transform="translate(44.220348, 0.221941)">
                                <path d="M11.056248,11.0914979 C10.9136224,11.1647017 9.78920199,11.8324099 8.11970854,11.8324099 C5.86312832,11.8324099 4.2975636,10.2563081 4.2975636,8.13117708 C4.2975636,6.06926763 5.79568521,4.42661679 8.11970854,4.42661679 C9.76045575,4.42661679 10.9025662,5.07990602 11.056248,5.16309225 L11.056248,1.43856727 C10.6184206,1.31545165 9.42545143,0.944995617 7.87536546,0.944995617 C3.94929179,0.944995617 0.503059285,3.66019429 0.503059285,8.13117708 C0.503059285,12.2749607 3.62092122,15.3140311 7.87536546,15.3140311 C9.51169017,15.3140311 10.7256662,14.913628 11.056248,14.8160228 L11.056248,11.0914979 Z" id="path280" fill="#C4122E" fill-rule="nonzero"></path>
                            </g>
                            <g id="g282" transform="translate(7.786473, 0.221941)">
                                <path d="M11.056248,11.0914979 C10.9158337,11.1647017 9.79362449,11.8324099 8.12413104,11.8324099 C5.86312832,11.8324099 4.29866923,10.2563081 4.29866923,8.13117708 C4.29866923,6.06926763 5.79789646,4.42661679 8.12413104,4.42661679 C9.76487825,4.42661679 10.905883,5.07990602 11.056248,5.16309225 L11.056248,1.43856727 C10.6228431,1.31545165 9.43208518,0.944995617 7.87315421,0.944995617 C3.94929179,0.944995617 0.507481784,3.66019429 0.507481784,8.13117708 C0.507481784,12.2749607 3.62534372,15.3140311 7.87315421,15.3140311 C9.51611267,15.3140311 10.7278774,14.913628 11.056248,14.8160228 L11.056248,11.0914979 Z" id="path284" fill="#C4122E" fill-rule="nonzero"></path>
                            </g>
                            <g id="g286" transform="translate(58.517846, 0.910834)">
                                <path d="M7.73937361,11.0914979 C5.66853836,11.0914979 4.13061426,9.45661107 4.13061426,7.44239506 C4.13061426,5.42374245 5.66853836,3.78996482 7.73937361,3.78996482 C9.80799761,3.78996482 11.3503442,5.42374245 11.3503442,7.44239506 C11.3503442,9.45661107 9.80799761,11.0914979 7.73937361,11.0914979 M15.0486592,7.44239506 C15.0486592,3.47274798 11.9938178,0.2562136 7.73937361,0.2562136 C3.48492937,0.2562136 0.434510547,3.47274798 0.434510547,7.44239506 C0.434510547,11.4053872 3.48492937,14.6252491 7.73937361,14.6252491 C11.9938178,14.6252491 15.0486592,11.4053872 15.0486592,7.44239506" id="path288" fill="#C4122E" fill-rule="nonzero"></path>
                            </g>
                            <g id="g290" transform="translate(31.524017, 1.044043)">
                                <path d="M8.84499841,11.0914979 C8.79303405,11.1081351 7.32365868,11.5151931 6.1163164,11.5151931 C4.71770103,11.5151931 3.95703116,11.0449136 3.95703116,10.3783145 C3.95703116,9.53314241 4.98305098,9.23810856 5.55687025,9.056208 L6.51986945,8.74897351 C8.78529467,8.02580785 9.81794824,6.4696707 9.81794824,4.77932643 C9.81794824,1.29326865 6.76200129,0.122006476 4.09081177,0.122006476 C2.23446772,0.122006476 0.495319911,0.46473376 0.323948067,0.501335703 L0.323948067,3.69457794 C0.631311762,3.61693745 2.095159,3.17882328 3.6198156,3.17882328 C5.35675216,3.17882328 6.15501327,3.68792304 6.15501327,4.47431023 C6.15501327,5.1775112 5.46399777,5.58346002 4.59829355,5.85631087 C4.38711921,5.92729645 4.06980489,6.02711993 3.85310243,6.09810552 C1.90941403,6.7147928 0.288568073,7.86054453 0.288568073,10.1575937 C0.288568073,12.7530042 2.22562273,14.4954785 5.4429909,14.4954785 C7.14233622,14.4954785 8.74106968,14.0817657 8.84499841,14.0540369 L8.84499841,11.0914979 Z" id="path292" fill="#C4122E" fill-rule="nonzero"></path>
                            </g>
                            <g id="g294" transform="translate(0.170266, 24.656843)">
                                <path d="M4.42249921,5.54574893 C4.42249921,6.50183604 3.64413935,7.27713174 2.68998514,7.27713174 C1.73583094,7.27713174 0.956365453,6.50183604 0.956365453,5.54574893 L0.956365453,1.90330103 C0.956365453,0.941668168 1.73583094,0.165263318 2.68998514,0.165263318 C3.64413935,0.165263318 4.42249921,0.941668168 4.42249921,1.90330103 L4.42249921,5.54574893 Z" id="path296" fill="#15495D" fill-rule="nonzero"></path>
                            </g>
                            <g id="g298" transform="translate(9.688922, 23.892085)">
                                <path d="M4.42249921,11.0914979 C4.42249921,12.047585 3.64413935,12.825099 2.68998514,12.825099 C1.73472531,12.825099 0.956365453,12.047585 0.956365453,11.0914979 L0.956365453,2.66750523 C0.956365453,1.70587237 1.73472531,0.93057667 2.68998514,0.93057667 C3.64413935,0.93057667 4.42249921,1.70587237 4.42249921,2.66750523 L4.42249921,11.0914979 Z" id="path300" fill="#15495D" fill-rule="nonzero"></path>
                            </g>
                            <g id="g302" transform="translate(19.207688, 20.450947)">
                                <path d="M4.42249921,21.0738459 C4.42249921,22.029933 3.64413935,22.8063379 2.68998514,22.8063379 C1.73472531,22.8063379 0.956365453,22.029933 0.956365453,21.0738459 L0.956365453,2.64754054 C0.956365453,1.68590767 1.73472531,0.909502824 2.68998514,0.909502824 C3.64413935,0.909502824 4.42249921,1.68590767 4.42249921,2.64754054 L4.42249921,21.0738459 Z" id="path304" fill="#15495D" fill-rule="nonzero"></path>
                            </g>
                            <g id="g306" transform="translate(28.726454, 23.892085)">
                                <path d="M4.42249921,11.0914979 C4.42249921,12.047585 3.64413935,12.825099 2.68998514,12.825099 C1.73472531,12.825099 0.956365453,12.047585 0.956365453,11.0914979 L0.956365453,2.66750523 C0.956365453,1.70587237 1.73472531,0.93057667 2.68998514,0.93057667 C3.64413935,0.93057667 4.42249921,1.70587237 4.42249921,2.66750523 L4.42249921,11.0914979 Z" id="path308" fill="#15495D" fill-rule="nonzero"></path>
                            </g>
                            <g id="g310" transform="translate(38.234385, 24.656843)">
                                <path d="M4.42249921,5.54574893 C4.42249921,6.50183604 3.64966747,7.27713174 2.69993576,7.27713174 C1.74578156,7.27713174 0.967421701,6.50183604 0.967421701,5.54574893 L0.967421701,1.90330103 C0.967421701,0.941668168 1.74578156,0.165263318 2.69993576,0.165263318 C3.64966747,0.165263318 4.42249921,0.941668168 4.42249921,1.90330103 L4.42249921,5.54574893 Z" id="path312" fill="#15495D" fill-rule="nonzero"></path>
                            </g>
                            <g id="g314" transform="translate(47.757463, 23.892085)">
                                <path d="M4.42249921,11.0914979 C4.42249921,12.047585 3.64966747,12.825099 2.69551327,12.825099 C1.74246469,12.825099 0.967421701,12.047585 0.967421701,11.0914979 L0.967421701,2.66750523 C0.967421701,1.70587237 1.74246469,0.93057667 2.69551327,0.93057667 C3.64966747,0.93057667 4.42249921,1.70587237 4.42249921,2.66750523 L4.42249921,11.0914979 Z" id="path316" fill="#15495D" fill-rule="nonzero"></path>
                            </g>
                            <g id="g318" transform="translate(57.282642, 20.450947)">
                                <path d="M4.42249921,21.0738459 C4.42249921,22.029933 3.64966747,22.8063379 2.69551327,22.8063379 C1.74025344,22.8063379 0.967421701,22.029933 0.967421701,21.0738459 L0.967421701,2.64754054 C0.967421701,1.68590767 1.74025344,0.909502824 2.69551327,0.909502824 C3.64966747,0.909502824 4.42249921,1.68590767 4.42249921,2.64754054 L4.42249921,21.0738459 Z" id="path320" fill="#15495D" fill-rule="nonzero"></path>
                            </g>
                            <g id="g322" transform="translate(66.805720, 23.892085)">
                                <path d="M4.42249921,11.0914979 C4.42249921,12.047585 3.64966747,12.825099 2.67340077,12.825099 C1.71924657,12.825099 0.94641483,12.047585 0.94641483,11.0914979 L0.94641483,2.66750523 C0.94641483,1.70587237 1.71924657,0.93057667 2.67340077,0.93057667 C3.64966747,0.93057667 4.42249921,1.70587237 4.42249921,2.66750523 L4.42249921,11.0914979 Z" id="path324" fill="#15495D" fill-rule="nonzero"></path>
                            </g>
                            <g id="g326" transform="translate(76.309339, 24.656843)">
                                <path d="M4.42249921,5.54574893 C4.42249921,6.50183604 3.64745622,7.27713174 2.69440764,7.27713174 C1.74025344,7.27713174 0.965210452,6.50183604 0.965210452,5.54574893 L0.965210452,1.90330103 C0.965210452,0.941668168 1.74025344,0.165263318 2.69440764,0.165263318 C3.64745622,0.165263318 4.42249921,0.941668168 4.42249921,1.90330103 L4.42249921,5.54574893 Z" id="path328" fill="#15495D" fill-rule="nonzero"></path>
                            </g>
                            <g id="g330" transform="translate(76.523167, 1.022414)">
                                <polygon id="path332" fill="#C4122E" fill-rule="nonzero" points="2.2112496 2.21829957 2.2112496 2.00090621 1.59431096 2.00090621 1.59431096 0.391529874 1.34112288 0.391529874 1.34112288 2.00090621 0.72086737 2.00090621 0.72086737 2.21829957"></polygon>
                            </g>
                            <g id="g334" transform="translate(78.863885, 1.022414)">
                                <polygon id="path336" fill="#C4122E" fill-rule="nonzero" points="0 2.21829957 0.396919304 2.21829957 0.941992331 0.719838211 0.950837329 0.719838211 1.47822036 2.21829957 1.86740029 2.21829957 1.86740029 0.391529874 1.60757846 0.391529874 1.60757846 1.88888208 1.59873346 1.88888208 1.04592106 0.391529874 0.80600048 0.391529874 0.266455577 1.88888208 0.254293704 1.88888208 0.254293704 0.391529874 2.14810769e-16 0.391529874"></polygon>
                            </g>
                        </g>
                    </g>
                </g>
            </g>
        </g>
    </g>
</svg>