<?xml version="1.0" encoding="UTF-8"?>
<svg width="180px" height="90px" viewBox="0 0 180 90" version="1.1" xmlns="http://www.w3.org/2000/svg" xmlns:xlink="http://www.w3.org/1999/xlink">
    <!-- Generator: Sketch 50.2 (55047) - http://www.bohemiancoding.com/sketch -->
    <title>Logos</title>
    <desc>Created with Sketch.</desc>
    <defs></defs>
    <g id="Logos" stroke="none" stroke-width="1" fill="none" fill-rule="evenodd">
        <g id="ibm" transform="translate(40.000000, 25.000000)" fill="#1F70C1" fill-rule="nonzero">
            <path d="M0,0 L0,2.7367 L19.464844,2.7367 L19.464844,0 L0,0 Z M22.222657,0 L22.222657,2.7367 L49.960937,2.7367 C49.960937,2.7367 47.127625,0 43.375,0 L22.222657,0 Z M55.402344,0 L55.402344,2.7367 L72.183594,2.7367 L71.1875,0 L55.402344,0 Z M84.214844,0 L83.21875,2.7367 L99.847656,2.7367 L99.847656,0 L84.214844,0 Z M0,5.322221 L0,8.0589202 L19.464844,8.0589202 L19.464844,5.322221 L0,5.322221 Z M22.222657,5.3260975 L22.222657,8.0589202 L53.179688,8.0589202 C53.179688,8.0589202 52.818125,5.9526386 52.1875,5.3260975 L22.222657,5.3260975 Z M55.402344,5.3260975 L55.402344,8.0589202 L74.023438,8.0589202 L73.101562,5.3260975 L55.402344,5.3260975 Z M82.222656,5.3260975 L81.300781,8.0589202 L99.847656,8.0589202 L99.847656,5.3260975 L82.222656,5.3260975 Z M5.5937496,10.644442 L5.5937496,13.385017 L14.023437,13.385017 L14.023437,10.644442 L5.5937496,10.644442 Z M27.816407,10.644442 L27.816407,13.385017 L36.246093,13.385017 L36.246093,10.644442 L27.816407,10.644442 Z M44.445313,10.644442 L44.445313,13.385017 L52.875,13.385017 C52.875001,13.385017 53.410156,11.937715 53.410156,10.644442 L44.445313,10.644442 Z M60.996094,10.644442 L60.996094,13.385017 L75.941407,13.385017 L74.945313,10.644442 L60.996094,10.644442 Z M80.386719,10.644442 L79.386719,13.385017 L94.40625,13.385017 L94.40625,10.644442 L80.386719,10.644442 Z M5.5937496,15.97054 L5.5937496,18.707238 L14.023437,18.707238 L14.023437,15.97054 L5.5937496,15.97054 Z M27.816407,15.97054 L27.816407,18.707238 L49.347657,18.707238 C49.347658,18.707237 51.148781,17.30301 51.722656,15.97054 L27.816407,15.97054 Z M60.996094,15.97054 L60.996094,18.707238 L69.425781,18.707238 L69.425781,17.183835 L69.960937,18.707238 L85.402344,18.707238 L85.976563,17.183835 L85.976563,18.707238 L94.40625,18.707238 L94.40625,15.97054 L78.582031,15.97054 L77.742187,18.288593 L76.898438,15.97054 L60.996094,15.97054 Z M5.5937496,21.292761 L5.5937496,24.029459 L14.023437,24.029459 L14.023437,21.292761 L5.5937496,21.292761 Z M27.816407,21.292761 L27.816407,24.029459 L51.722656,24.029459 C51.148657,22.701331 49.347657,21.292761 49.347657,21.292761 L27.816407,21.292761 Z M60.996094,21.292761 L60.996094,24.029459 L69.425781,24.029459 L69.425781,21.292761 L60.996094,21.292761 Z M70.957031,21.292761 L71.976563,24.029459 L83.554688,24.029459 L84.523438,21.292761 L70.957031,21.292761 Z M85.976563,21.292761 L85.976563,24.029459 L94.40625,24.029459 L94.40625,21.292761 L85.976563,21.292761 Z M5.5937496,26.614982 L5.5937496,29.35168 L14.023437,29.35168 L14.023437,26.614982 L5.5937496,26.614982 Z M27.816407,26.614982 L27.816407,29.35168 L36.246093,29.35168 L36.246093,26.614982 L27.816407,26.614982 Z M44.445313,26.614982 L44.445313,29.35168 L53.410156,29.35168 C53.410158,28.060147 52.875,26.614982 52.875,26.614982 L44.445313,26.614982 Z M60.996094,26.614982 L60.996094,29.35168 L69.425781,29.35168 L69.425781,26.614982 L60.996094,26.614982 Z M72.871093,26.614982 L73.859375,29.35168 L81.621093,29.35168 L82.617187,26.614982 L72.871093,26.614982 Z M85.976563,26.614982 L85.976563,29.35168 L94.40625,29.35168 L94.40625,26.614982 L85.976563,26.614982 Z M0.152343,31.937203 L0.152343,34.677778 L19.617187,34.677778 L19.617187,31.937203 L0.152343,31.937203 Z M22.222657,31.937203 L22.222657,34.677778 L52.1875,34.677778 C52.818125,34.050245 53.179688,31.937203 53.179688,31.937203 L22.222657,31.937203 Z M55.554687,31.937203 L55.554687,34.677778 L69.425781,34.677778 L69.425781,31.937203 L55.554687,31.937203 Z M74.789062,31.937203 L75.804687,34.677778 L79.753906,34.677778 L80.707031,31.937203 L74.789062,31.937203 Z M85.976563,31.937203 L85.976563,34.677778 L100,34.677778 L100,31.937203 L85.976563,31.937203 Z M0.152343,37.2633 L0.152343,40 L19.617187,40 L19.617187,37.2633 L0.152343,37.2633 Z M22.222657,37.2633 L22.222657,39.996124 L43.375,39.996124 C47.127624,39.996122 49.960937,37.2633 49.960937,37.2633 L22.222657,37.2633 Z M55.554687,37.2633 L55.554687,40 L69.425781,40 L69.425781,37.2633 L55.554687,37.2633 Z M76.714844,37.2633 L77.691407,39.992246 L77.859375,39.996124 L78.851563,37.2633 L76.714844,37.2633 Z M85.976563,37.2633 L85.976563,40 L100,40 L100,37.2633 L85.976563,37.2633 Z" id="Shape"></path>
        </g>
    </g>
</svg>