<?xml version="1.0" encoding="UTF-8"?>
<svg width="180px" height="90px" viewBox="0 0 180 90" version="1.1" xmlns="http://www.w3.org/2000/svg" xmlns:xlink="http://www.w3.org/1999/xlink">
    <!-- Generator: Sketch 50.2 (55047) - http://www.bohemiancoding.com/sketch -->
    <title>Logos</title>
    <desc>Created with Sketch.</desc>
    <defs></defs>
    <g id="Logos" stroke="none" stroke-width="1" fill="none" fill-rule="evenodd">
        <g id="kraft" transform="translate(20.000000, 17.000000)" fill-rule="nonzero">
            <path d="M137.47,21.1266667 C137.456667,21.1071429 130.517143,11.3252381 130.517143,11.3252381 L130.431429,11.2047619 L130.339524,11.0919048 C126.31619,6.1752381 123.957143,4.86809524 117.041905,3.72714286 C111.634762,2.8352381 106.915714,2.20857143 102.187143,1.75761905 C93.4690476,0.925714286 85.3961905,0.442380952 69.94,0.442380952 C54.6033333,0.442380952 45.9571429,0.968095238 37.692381,1.75761905 C32.9657143,2.20857143 28.2471429,2.83571429 22.837619,3.72714286 C15.9247619,4.86809524 13.5633333,6.1752381 9.54238095,11.0919048 L9.44952381,11.2047619 L9.36428571,11.3252381 L2.42571429,21.1071429 C1.29904762,22.7171429 0.160952381,24.75 0.160952381,27.78 C0.160952381,30.8114286 1.29904762,32.8452381 2.41,34.4342857 C2.42571429,34.4552381 9.36428571,44.237619 9.36428571,44.237619 L9.44952381,44.3566667 L9.54238095,44.4709524 C13.5633333,49.3852381 15.9247619,50.692381 22.837619,51.8352381 C28.2471429,52.727619 32.9671429,53.3533333 37.692381,53.8057143 C45.9585714,54.5942857 54.6052381,55.1190476 69.94,55.1190476 C85.2742857,55.1190476 93.9228571,54.5942857 102.187143,53.8057143 C106.914762,53.3538095 111.632857,52.727619 117.041905,51.8352381 C123.956667,50.6928571 126.318571,49.3852381 130.339524,44.4709524 L130.431429,44.3566667 L130.517143,44.237619 L137.45619,34.4552381 C138.582381,32.8452381 139.719048,30.8119048 139.719048,27.78 C139.719048,24.75 138.582381,22.7171429 137.47,21.1266667" id="Shape" fill="#FFFFFF"></path>
            <path d="M37.0690476,11.6285714 C30.8838095,12.4714286 29.6514286,13.0614286 26.2633333,17.2028571 L21.8266667,23.4580952 C21.03,24.5957143 20.3480952,26.1595238 20.3480952,27.78 C20.3480952,29.4019048 21.0304762,30.9642857 21.8266667,32.1033333 L26.2633333,38.3595238 C29.6514286,42.5004762 30.8838095,43.0890476 37.0690476,43.9328571 C44.5757143,44.9561905 57.77,45.8671429 69.94,45.8671429 C82.1119048,45.8671429 95.3052381,44.9566667 102.812381,43.9328571 C108.997619,43.0890476 110.229048,42.5004762 113.618095,38.3595238 L118.054286,32.1033333 C118.850476,30.9638095 119.532857,29.4019048 119.532857,27.78 C119.532857,26.1595238 118.85,24.5952381 118.054286,23.4580952 L113.618095,17.2028571 C110.229048,13.0619048 108.997619,12.4714286 102.812381,11.6285714 C95.1590476,10.5857143 82.5414286,9.69619048 69.94,9.69619048 C57.77,9.69619048 44.5757143,10.6052381 37.0690476,11.6285714 Z M101.782857,6.00047619 C106.817619,6.48047619 111.488095,7.13047619 116.348571,7.93190476 C122.206667,8.89952381 123.652381,9.64809524 127.040952,13.79 L133.98,23.5714286 C134.775714,24.7095238 135.457619,25.9042857 135.457619,27.7795238 C135.457619,29.657619 134.775714,30.8519048 133.98,31.9885714 L127.040952,41.772381 C123.652381,45.9114286 122.206667,46.6628571 116.348571,47.6290476 C111.488095,48.4309524 106.817619,49.0790476 101.782857,49.5619048 C93.4280952,50.3595238 84.9409524,50.8566667 69.94,50.8566667 C54.9404762,50.8566667 46.4533333,50.3595238 38.0985714,49.5619048 C33.0628571,49.0790476 28.3933333,48.4309524 23.532381,47.6290476 C17.6757143,46.6628571 16.2295238,45.9119048 12.8404762,41.772381 L5.90238095,31.9885714 C5.10571429,30.8519048 4.42380952,29.657619 4.42380952,27.7795238 C4.42380952,25.9042857 5.10619048,24.7095238 5.90238095,23.5714286 L12.8404762,13.7895238 C16.2295238,9.64761905 17.6757143,8.89904762 23.532381,7.93142857 C28.3933333,7.13 33.0628571,6.48047619 38.0985714,6 C46.4528571,5.20190476 54.9404762,4.70380952 69.94,4.70380952 C85.5095238,4.70380952 93.4280952,5.20190476 101.782857,6.00047619 Z" id="Shape" fill="#EC1C2E"></path>
            <path d="M38.8752381,35.3204762 C39.1161905,35.7728571 39.1990476,36.0442857 39.2442857,36.467619 L45.9419048,36.467619 C45.5371429,36.0438095 45.3319048,35.7728571 45.0909524,35.3204762 L40.2038095,26.3490476 L45.2780952,19.5090476 C45.6152381,19.0566667 45.9347619,18.6633333 46.2814286,18.3619048 L40.3966667,18.3619048 C40.2638095,18.7847619 40.1238095,19.0566667 39.7866667,19.5090476 L35.2452381,25.46 L35.2361905,19.5090476 C35.2361905,19.0566667 35.2961905,18.7847619 35.4780952,18.3619048 L29.4433333,18.3619048 C29.6247619,18.7847619 29.6852381,19.0566667 29.6852381,19.5090476 L29.6852381,35.3204762 C29.6852381,35.7728571 29.6252381,36.0442857 29.4433333,36.467619 L35.4785714,36.467619 C35.2971429,36.0438095 35.2366667,35.7728571 35.2366667,35.3204762 L35.2366667,28.8033333 L38.8752381,35.3204762" id="Shape" fill="#0056A2"></path>
            <path d="M53.3052381,26.6009524 L55.2657143,26.6009524 C56.5328571,26.6009524 57.4080952,25.9504762 57.4080952,24.502381 C57.4080952,23.0542857 56.5328571,22.4047619 55.2657143,22.4047619 L53.3052381,22.4047619 L53.3052381,26.6009524 Z M47.7528571,19.5090476 C47.7528571,19.0566667 47.692381,18.7847619 47.512381,18.3619048 L56.5642857,18.3619048 C59.1904762,18.3619048 62.8114286,19.0366667 62.8114286,23.2504762 C62.8114286,26.4833333 60.7785714,27.9142857 58.9357143,28.2204762 L63.1590476,35.3204762 C63.4004762,35.7728571 63.6052381,36.0442857 64.0119048,36.467619 L57.1919048,36.467619 C57.1480952,36.0438095 57.0638095,35.7728571 56.8228571,35.3204762 L53.3066667,29.587619 L53.3066667,35.3204762 C53.3066667,35.7728571 53.3671429,36.0442857 53.5471429,36.467619 L47.5133333,36.467619 C47.6933333,36.0438095 47.7538095,35.7728571 47.7538095,35.3204762 L47.7538095,19.5090476 L47.7528571,19.5090476 Z" id="Shape" fill="#0056A2"></path>
            <path d="M95.4019048,18.3928571 L95.4019048,23.3404762 C94.9780952,23.1604762 94.7066667,23.1 94.2547619,23.1 L88.5657143,23.1 L88.5657143,26.237619 L95.22,26.237619 L95.22,30.3428571 C94.797619,30.1604762 94.5261905,30.1 94.0742857,30.1 L88.5661905,30.1 L88.5661905,35.3204762 C88.5661905,35.7728571 88.6114286,36.0442857 88.7938095,36.467619 L82.757619,36.467619 C82.9385714,36.0438095 82.9990476,35.7728571 82.9990476,35.3204762 L82.9990476,19.5090476 C82.9990476,19.0566667 82.9385714,18.7847619 82.757619,18.3619048 L95.4019048,18.3928571" id="Shape" fill="#0056A2"></path>
            <path d="M96.6695238,18.3928571 L96.6695238,23.3404762 C97.09,23.1604762 97.3614286,23.1 97.8152381,23.1 L101.573333,23.1 L101.573333,35.3204762 C101.573333,35.7728571 101.526667,36.0442857 101.345714,36.467619 L107.32,36.467619 C107.139048,36.0438095 107.09381,35.7728571 107.09381,35.3204762 L107.09381,23.1 L110.669524,23.1 C111.121429,23.1 111.393333,23.16 111.816667,23.3404762 L111.816667,18.3928571 L96.6695238,18.3928571" id="Shape" fill="#0056A2"></path>
            <path d="M74.7671429,32.8480952 L75.3566667,35.32 C75.4757143,35.772381 75.4857143,36.0438095 75.4166667,36.4671429 L81.7542857,36.4671429 C81.462381,36.0433333 81.3290476,35.772381 81.21,35.32 L76.6585714,19.4880952 C76.4990476,19.0357143 76.5080952,18.7838095 76.5414286,18.3614286 L68.8161905,18.3614286 C68.8485714,18.7842857 68.857619,19.0361905 68.6971429,19.4880952 L63.8438095,35.32 C63.7252381,35.772381 63.5928571,36.0438095 63.3009524,36.4671429 L69.3052381,36.4671429 C69.2357143,36.0433333 69.2466667,35.772381 69.3671429,35.32 L69.9566667,32.8480952 L74.7671429,32.8480952 Z M71.9990476,29.0161905 L70.8709524,29.0161905 L72.362381,22.767619 L73.8519048,29.0161905 L71.9990476,29.0161905 Z" id="Shape" fill="#0056A2"></path>
        </g>
    </g>
</svg>