<?xml version="1.0" encoding="UTF-8"?>
<svg width="180px" height="90px" viewBox="0 0 180 90" version="1.1" xmlns="http://www.w3.org/2000/svg" xmlns:xlink="http://www.w3.org/1999/xlink">
    <!-- Generator: Sketch 50.2 (55047) - http://www.bohemiancoding.com/sketch -->
    <title>Logos</title>
    <desc>Created with Sketch.</desc>
    <defs></defs>
    <g id="Logos" stroke="none" stroke-width="1" fill="none" fill-rule="evenodd">
        <g id="sage" transform="translate(40.000000, 30.000000)" fill="#2151A8" fill-rule="nonzero">
            <path d="M11.6271595,0.405446197 C5.16458797,0.405446197 2.38983051e-06,7.05887847 2.38983051e-06,15.1787446 C2.38983051e-06,23.3556076 5.16458797,29.9999908 11.6271595,29.9999908 C17.9516232,29.9999908 23.2560356,23.3556076 23.2560356,15.1787446 C23.2560356,7.05887847 17.9516232,0.405446197 11.6271595,0.405446197 Z M11.6990634,1.23437405 C16.8572827,1.23437405 21.0809461,7.5401339 21.0809461,15.1393556 C21.0809461,22.8525707 16.8572827,29.0357786 11.6990634,29.0357786 C6.52330627,29.0357695 2.31033229,22.8525707 2.31033229,15.1393556 C2.31033229,7.5401339 6.52330627,1.23437405 11.6990634,1.23437405 Z M11.234942,3.91980493 C7.38107492,4.06887376 4.52492492,8.36378288 4.36379908,11.1094993 C4.34731383,11.3944836 4.53164176,11.5445085 4.53164176,11.5445085 L12.0176232,19.0887142 L12.0176232,26.4839308 C15.896701,26.3326698 18.815942,21.9812456 18.8904763,19.2377217 C18.8904763,18.9790439 18.7123566,18.8301066 18.7123566,18.8301066 L11.234942,11.3252893 L11.234942,3.91980493 Z M12.0176232,3.92155866 L12.0176232,11.4126808 L18.5667778,11.4126793 C18.5667778,11.4126793 18.9134944,11.4161878 18.8904763,11.0787127 C18.7545605,8.32970797 15.858329,4.06953137 12.0176232,3.92155866 Z M4.68064068,18.9962832 C4.68064068,18.9962832 4.33153007,18.9716425 4.36550898,19.3542234 C4.51786607,22.1043239 7.40738085,26.3370981 11.234942,26.4839746 L11.234942,18.9962832 L4.68064068,18.9962832 Z" id="Shape"></path>
            <path d="M33.4257381,3.32893998 C27.9595159,3.32893998 25.6657327,6.78375864 25.6657327,10.3011254 C25.6657327,14.2295268 28.9949832,15.2650642 30.471422,15.6103337 L35.0904336,16.6790258 C38.7963193,17.5580934 39.8961137,18.3128903 39.8961137,20.6694925 C39.8961137,23.9040671 36.1896758,24.4681434 33.9909107,24.4681434 C31.1005103,24.4681434 27.7705759,23.2755224 27.7705759,19.1914754 L24.9121637,19.1914754 C24.9121637,21.2948802 25.2894305,23.1819427 27.2054034,24.9082907 C28.2116176,25.8202414 29.8434305,27.0765056 34.0217329,27.0765056 C37.8854736,27.0765056 42.8487198,25.6003383 42.8487198,20.2601675 C42.8487198,16.6792276 40.6489993,14.9204786 37.727908,14.2299392 L31.2883546,12.7536407 C29.9708492,12.4390617 28.6183388,11.8105871 28.6183388,9.89351847 C28.6183388,6.46932 31.8540092,5.93558339 33.769982,5.93558339 C36.3140166,5.93558339 39.2050307,7.03428203 39.3617725,10.5220541 L42.2201756,10.5220541 C42.095221,8.04049678 41.3099441,3.32893998 33.4257381,3.32893998 Z M71.9671475,3.32893998 C64.6167407,3.32893998 61.2870864,9.51741814 61.2870864,15.0143303 C61.2870864,17.4027198 61.3814136,21.264058 64.8373983,24.5315151 C65.9992576,25.6626844 67.8841983,27.0765056 71.7479288,27.0765056 C74.8268593,27.0765056 77.6527983,25.6922085 79.1928102,23.5570169 L79.2852966,26.4787922 L81.8936593,26.4787922 L81.8936593,14.4166169 L71.9996898,14.4166169 L71.9996898,17.0249797 L79.0352441,17.0249797 C79.0352441,19.4429634 78.5331661,21.4547786 76.5536186,23.0243853 C74.8897475,24.345179 73.0663983,24.4681434 71.9363237,24.4681434 C65.9363034,24.4681434 64.4297898,19.7579547 64.4297898,15.1718964 C64.4297898,9.26614068 67.7573237,6.02978644 71.8095915,6.02978644 C74.2922441,6.02978644 77.589839,6.84650797 78.5642644,10.7738136 L81.5168746,10.7738136 C80.857022,5.71533864 76.1772458,3.32893998 71.9671475,3.32893998 Z M50.8895949,3.92494342 L42.4085725,26.4787922 L45.5495664,26.4787922 L47.9061692,19.9142136 L56.9523763,19.9142136 L59.1822356,26.4787922 L62.5116254,26.4787922 L54.345722,3.92494342 L50.8895949,3.92494342 Z M84.0276102,3.92669766 L84.0276102,26.4788364 L100.677966,26.4788364 L100.677966,23.7779903 L87.0761237,23.7779903 L87.0761237,16.2389136 L99.4225983,16.2389136 L99.4225983,13.5380761 L87.0761237,13.5380761 L87.0761237,6.62754407 L100.457039,6.62754407 L100.457039,3.92669766 L84.0276102,3.92669766 Z M52.4601,7.28691051 L52.5217424,7.28691051 L55.8528458,17.2134117 L48.8481173,17.2134117 L52.4600898,7.28691051 L52.4601,7.28691051 Z" id="Shape"></path>
        </g>
    </g>
</svg>